<svg width="80" height="13" viewBox="0 0 80 13" fill="none" xmlns="http://www.w3.org/2000/svg">
<path d="M0.218 10V0.0599995H1.912V8.488H6.518V10H0.218ZM9.67139 1.852C9.46606 2.05733 9.21872 2.16 8.92939 2.16C8.64006 2.16 8.39272 2.05733 8.18739 1.852C7.98206 1.64667 7.87939 1.39933 7.87939 1.11C7.87939 0.83 7.98206 0.587333 8.18739 0.381999C8.39272 0.176666 8.64006 0.0739993 8.92939 0.0739993C9.21872 0.0739993 9.46606 0.176666 9.67139 0.381999C9.88606 0.587333 9.99339 0.83 9.99339 1.11C9.99339 1.39933 9.88606 1.64667 9.67139 1.852ZM8.14539 10V3.168H9.71339V10H8.14539ZM14.0458 10.112C12.9538 10.112 12.0345 9.78067 11.2878 9.118L12.0718 7.942C12.6132 8.474 13.2712 8.74 14.0458 8.74C14.3445 8.74 14.5778 8.67933 14.7458 8.558C14.9138 8.43667 14.9978 8.27333 14.9978 8.068C14.9978 7.90933 14.8998 7.77867 14.7038 7.676C14.5172 7.564 14.1672 7.41933 13.6538 7.242C12.9818 7.00867 12.4638 6.72867 12.0998 6.402C11.7452 6.07533 11.5678 5.60867 11.5678 5.002C11.5678 4.442 11.7918 3.98 12.2398 3.616C12.6972 3.252 13.2758 3.07 13.9758 3.07C14.8812 3.07 15.6838 3.35467 16.3838 3.924L15.5998 5.156C15.0865 4.67067 14.5172 4.428 13.8918 4.428C13.7052 4.428 13.5325 4.47933 13.3738 4.582C13.2245 4.67533 13.1498 4.82 13.1498 5.016C13.1498 5.296 13.5092 5.57133 14.2278 5.842C15.1145 6.18733 15.6698 6.43933 15.8938 6.598C16.3605 6.92467 16.5938 7.40533 16.5938 8.04C16.5938 8.64667 16.3745 9.146 15.9358 9.538C15.5065 9.92067 14.8765 10.112 14.0458 10.112ZM20.1809 10.112C19.5836 10.112 19.1169 9.92067 18.7809 9.538C18.4449 9.15533 18.2769 8.59067 18.2769 7.844V4.498H17.4369V3.168H18.2769V0.899999L19.8449 0.731999V3.168H21.8469V4.498H19.8449V7.69C19.8449 8.03533 19.8962 8.28267 19.9989 8.432C20.1016 8.572 20.2696 8.642 20.5029 8.642C20.8109 8.642 21.1469 8.544 21.5109 8.348L21.9169 9.706C21.4222 9.97667 20.8436 10.112 20.1809 10.112ZM29.1801 6.5C29.1801 6.668 29.1661 6.878 29.1381 7.13H24.1541C24.2567 7.61533 24.4807 7.998 24.8261 8.278C25.1714 8.54867 25.5961 8.684 26.1001 8.684C26.8094 8.684 27.3787 8.418 27.8081 7.886L28.9001 8.824C28.2374 9.68267 27.2761 10.112 26.0161 10.112C25.0081 10.112 24.1727 9.79 23.5101 9.146C22.8567 8.49267 22.5301 7.63867 22.5301 6.584C22.5301 5.548 22.8427 4.70333 23.4681 4.05C24.1027 3.39667 24.9007 3.07 25.8621 3.07C26.8607 3.07 27.6634 3.392 28.2701 4.036C28.8767 4.67067 29.1801 5.492 29.1801 6.5ZM27.0241 4.862C26.7441 4.61 26.3847 4.484 25.9461 4.484C25.5074 4.484 25.1294 4.60533 24.8121 4.848C24.5041 5.09067 24.2941 5.43133 24.1821 5.87H27.5981C27.4954 5.44067 27.3041 5.10467 27.0241 4.862ZM34.6754 3.07C35.4594 3.07 36.0707 3.308 36.5094 3.784C36.9574 4.26 37.1814 4.99267 37.1814 5.982V10H35.6134V6.388C35.6134 5.69733 35.4874 5.20733 35.2354 4.918C34.9927 4.62867 34.6241 4.484 34.1294 4.484C33.5881 4.484 33.1587 4.666 32.8414 5.03C32.5241 5.394 32.3654 5.90733 32.3654 6.57V10H30.7974V3.168H32.3654V4.12H32.3794C32.9674 3.42 33.7327 3.07 34.6754 3.07ZM49.4923 10L48.7363 7.858H44.6763L43.9343 10H42.1703L45.8803 0.0599995H47.5323L51.2563 10H49.4923ZM45.1943 6.402H48.2323L46.7203 2.09H46.6923L45.1943 6.402ZM57.5193 3.168H59.0873V9.3C59.0873 10.4013 58.8073 11.2693 58.2473 11.904C57.6873 12.548 56.8053 12.87 55.6013 12.87C54.5373 12.87 53.6087 12.632 52.8153 12.156L53.1933 10.784C53.632 11.0173 54.0147 11.1853 54.3413 11.288C54.6773 11.4 55.0693 11.456 55.5173 11.456C56.1613 11.456 56.6607 11.2927 57.0153 10.966C57.37 10.6487 57.5473 10.252 57.5473 9.776V9.048H57.5333C56.992 9.608 56.2967 9.888 55.4473 9.888C54.486 9.888 53.688 9.57533 53.0533 8.95C52.428 8.32467 52.1153 7.51267 52.1153 6.514C52.1153 5.51533 52.4187 4.694 53.0253 4.05C53.6413 3.39667 54.4207 3.07 55.3633 3.07C56.2033 3.07 56.9127 3.34533 57.4913 3.896H57.5193V3.168ZM55.6573 8.446C56.2267 8.446 56.6887 8.25933 57.0433 7.886C57.4073 7.50333 57.5893 7.02267 57.5893 6.444C57.5893 5.87467 57.4027 5.408 57.0293 5.044C56.6653 4.68 56.208 4.498 55.6573 4.498C55.0787 4.498 54.6073 4.68467 54.2433 5.058C53.8887 5.422 53.7113 5.89333 53.7113 6.472C53.7113 7.06933 53.8933 7.55 54.2573 7.914C54.6307 8.26867 55.0973 8.446 55.6573 8.446ZM66.0653 3.168H67.6333V10H66.1353V9.09H66.1073C65.6033 9.77133 64.8799 10.112 63.9373 10.112C62.9759 10.112 62.1826 9.79 61.5573 9.146C60.9413 8.502 60.6333 7.65733 60.6333 6.612C60.6333 5.58533 60.9459 4.74067 61.5713 4.078C62.1966 3.406 62.9806 3.07 63.9233 3.07C64.8193 3.07 65.5239 3.378 66.0373 3.994H66.0653V3.168ZM64.1893 8.684C64.7306 8.684 65.1879 8.49267 65.5613 8.11C65.9439 7.72733 66.1353 7.23267 66.1353 6.626C66.1353 6.01933 65.9486 5.51067 65.5753 5.1C65.2113 4.68933 64.7493 4.484 64.1893 4.484C63.6293 4.484 63.1626 4.68 62.7893 5.072C62.4159 5.464 62.2293 5.982 62.2293 6.626C62.2293 7.23267 62.4113 7.72733 62.7753 8.11C63.1393 8.49267 63.6106 8.684 64.1893 8.684ZM71.2358 1.852C71.0305 2.05733 70.7832 2.16 70.4938 2.16C70.2045 2.16 69.9572 2.05733 69.7518 1.852C69.5465 1.64667 69.4438 1.39933 69.4438 1.11C69.4438 0.83 69.5465 0.587333 69.7518 0.381999C69.9572 0.176666 70.2045 0.0739993 70.4938 0.0739993C70.7832 0.0739993 71.0305 0.176666 71.2358 0.381999C71.4505 0.587333 71.5578 0.83 71.5578 1.11C71.5578 1.39933 71.4505 1.64667 71.2358 1.852ZM69.7098 10V3.168H71.2778V10H69.7098ZM77.3043 3.07C78.0883 3.07 78.6996 3.308 79.1383 3.784C79.5863 4.26 79.8103 4.99267 79.8103 5.982V10H78.2423V6.388C78.2423 5.69733 78.1163 5.20733 77.8643 4.918C77.6216 4.62867 77.253 4.484 76.7583 4.484C76.217 4.484 75.7876 4.666 75.4703 5.03C75.153 5.394 74.9943 5.90733 74.9943 6.57V10H73.4263V3.168H74.9943V4.12H75.0083C75.5963 3.42 76.3616 3.07 77.3043 3.07Z" fill="#2D2D2D"/>
</svg>
