<svg width="74" height="74" viewBox="0 0 74 74" fill="none" xmlns="http://www.w3.org/2000/svg">
<g clip-path="url(#clip0)">
<path d="M36.5005 0C15.7901 0 -0.999512 16.5658 -0.999512 37C-0.999512 57.4342 15.7901 74 36.5005 74C57.2109 74 74.0005 57.4342 74.0005 37C73.9771 16.5757 57.2008 0.023125 36.5005 0ZM36.5005 71.5339C17.1712 71.5339 1.49993 56.0732 1.49993 37C1.49993 17.9268 17.1712 2.46612 36.5005 2.46612C55.8297 2.46612 71.501 17.9285 71.501 37C71.4793 56.0633 55.8214 71.5124 36.5005 71.5339Z" fill="#B7A57A"/>
<path d="M53.2144 41.511L42.7453 39.661C42.2151 39.5669 41.6865 39.8279 41.4371 40.3052L38.8983 45.1697C34.4071 43.181 30.8178 39.59 28.8307 35.0971L33.6902 32.5584C34.1676 32.3089 34.4269 31.7804 34.3344 31.2501L32.4844 20.7828C32.4266 20.4541 32.2383 20.1617 31.9608 19.975C29.3147 18.1895 25.8988 18.0111 23.0792 19.5092C20.2596 21.0074 18.4988 23.941 18.4988 27.1322C18.5169 42.7912 31.206 55.4818 46.8649 55.4984C50.0578 55.4984 52.9897 53.7359 54.4879 50.9163C55.986 48.0967 55.8043 44.6792 54.0171 42.033C53.8338 41.7588 53.5431 41.5688 53.2144 41.511ZM46.8665 53.0339C32.5687 53.0174 20.9831 41.4317 20.9665 27.1339C20.9665 24.9436 22.1278 22.9169 24.019 21.8102C25.9103 20.7035 28.246 20.6837 30.1554 21.759L31.7494 30.7942L26.6933 33.4338C26.1399 33.7229 25.8889 34.3803 26.1102 34.965C28.3649 40.9296 33.0725 45.6388 39.0354 47.8968C39.6202 48.1182 40.2776 47.8671 40.5666 47.3138L43.2078 42.2576L52.2431 43.8533C53.3151 45.7627 53.2936 48.0967 52.1869 49.9863C51.0819 51.871 49.0568 53.0322 46.8665 53.0339Z" fill="#B7A57A"/>
</g>
<defs>
<clipPath id="clip0">
<rect width="74" height="74" fill="white" transform="translate(0.000488281)"/>
</clipPath>
</defs>
</svg>
