<svg width="74" height="74" viewBox="0 0 74 74" fill="none" xmlns="http://www.w3.org/2000/svg">
<g clip-path="url(#clip0)">
<path d="M43.2078 42.2543L40.5666 47.3104C40.2776 47.8637 39.6202 48.1148 39.0354 47.8935C33.0725 45.6371 28.3649 40.9262 26.1102 34.9616C25.8889 34.3769 26.1399 33.7195 26.6933 33.4304L31.7494 30.7909L30.1554 21.7556C28.246 20.682 25.9087 20.7018 24.0191 21.8068C22.1278 22.9135 20.9666 24.9403 20.9666 27.1305C20.9831 41.4284 32.5687 53.014 46.8666 53.0305C49.0568 53.0305 51.0803 51.8677 52.1869 49.9797C53.292 48.09 53.3151 45.7561 52.2431 43.8466L43.2078 42.2543Z" fill="#B7A57A"/>
<path d="M37.0005 0C16.5662 0 0.000488281 16.5658 0.000488281 37C0.000488281 57.4342 16.5662 74 37.0005 74C57.4347 74 74.0005 57.4342 74.0005 37C73.9774 16.5757 57.4248 0.023125 37.0005 0ZM54.4912 50.9179C52.9931 53.7375 50.0612 55.5 46.8683 55.5C31.2093 55.4818 18.5187 42.7928 18.5021 27.1339C18.5021 23.941 20.2629 21.0091 23.0825 19.5109C25.9021 18.0127 29.318 18.1928 31.9642 19.9767C32.2417 20.1633 32.43 20.4557 32.4878 20.7844L34.3378 31.2518C34.432 31.782 34.171 32.3106 33.6936 32.56L28.8341 35.0988C30.8212 39.5917 34.4105 43.1826 38.9017 45.1714L41.4405 40.3069C41.6899 39.8295 42.2185 39.5702 42.7487 39.6627L53.2177 41.5127C53.5464 41.5705 53.8355 41.7588 54.0221 42.0346C55.8077 44.6808 55.9878 48.0967 54.4912 50.9179Z" fill="#B7A57A"/>
</g>
<defs>
<clipPath id="clip0">
<rect width="74" height="74" fill="white" transform="translate(0.000488281)"/>
</clipPath>
</defs>
</svg>
