<svg width="300" height="240" viewBox="0 0 300 240" fill="none" xmlns="http://www.w3.org/2000/svg">
<rect width="300" height="240" fill="#1F2326"/>
<path d="M31.5345 183H34.3845C36.6245 183 38.1345 181.56 38.1345 179.5C38.1345 177.44 36.6245 176 34.3845 176H31.5345V183ZM32.2745 182.36V176.64H34.3445C36.2045 176.64 37.4045 177.82 37.4045 179.5C37.4045 181.18 36.2045 182.36 34.3445 182.36H32.2745ZM45.2363 180.37C45.2363 178.79 44.1663 177.7 42.6863 177.7C41.2063 177.7 40.1163 178.81 40.1163 180.37C40.1163 181.93 41.2363 183.05 42.8763 183.05C43.7063 183.05 44.4363 182.75 44.9063 182.19L44.5063 181.73C44.1063 182.19 43.5363 182.42 42.8963 182.42C41.7463 182.42 40.9062 181.69 40.8263 180.59H45.2263C45.2263 180.51 45.2363 180.43 45.2363 180.37ZM42.6863 178.31C43.7163 178.31 44.4663 179.03 44.5563 180.06H40.8263C40.9163 179.03 41.6663 178.31 42.6863 178.31ZM50.3914 177.7C49.5214 177.7 48.7914 178.08 48.3614 178.78V177.74H47.6814V184.94H48.3914V182.01C48.8314 182.69 49.5514 183.05 50.3914 183.05C51.8914 183.05 53.0114 181.97 53.0114 180.37C53.0114 178.78 51.8914 177.7 50.3914 177.7ZM50.3414 182.42C49.2214 182.42 48.3814 181.6 48.3814 180.37C48.3814 179.15 49.2214 178.32 50.3414 178.32C51.4514 178.32 52.3014 179.15 52.3014 180.37C52.3014 181.6 51.4514 182.42 50.3414 182.42ZM55.4588 183H56.1688V175.58H55.4588V183ZM61.2943 183.05C62.8343 183.05 63.9643 181.93 63.9643 180.37C63.9643 178.81 62.8343 177.7 61.2943 177.7C59.7543 177.7 58.6143 178.81 58.6143 180.37C58.6143 181.93 59.7543 183.05 61.2943 183.05ZM61.2943 182.42C60.1743 182.42 59.3343 181.6 59.3343 180.37C59.3343 179.14 60.1743 178.32 61.2943 178.32C62.4143 178.32 63.2443 179.14 63.2443 180.37C63.2443 181.6 62.4143 182.42 61.2943 182.42ZM69.9873 177.74L68.0073 182.21L66.0273 177.74H65.2873L67.6373 182.99L67.4073 183.5C67.1073 184.16 66.7873 184.38 66.3173 184.38C65.9373 184.38 65.6173 184.24 65.3573 183.98L65.0273 184.51C65.3473 184.83 65.8173 184.99 66.3073 184.99C67.0573 184.99 67.6173 184.66 68.0573 183.63L70.6873 177.74H69.9873ZM74.0387 183.05C75.4087 183.05 76.2087 182.46 76.2087 181.55C76.2087 179.53 72.7987 180.6 72.7987 179.18C72.7987 178.68 73.2187 178.31 74.1687 178.31C74.7087 178.31 75.2587 178.44 75.7187 178.76L76.0287 178.19C75.5887 177.89 74.8487 177.7 74.1687 177.7C72.8287 177.7 72.0887 178.34 72.0887 179.2C72.0887 181.28 75.4987 180.2 75.4987 181.57C75.4987 182.09 75.0887 182.43 74.0887 182.43C73.3487 182.43 72.6387 182.17 72.2187 181.84L71.8987 182.4C72.3287 182.77 73.1687 183.05 74.0387 183.05ZM83.9784 177.7C83.1484 177.7 82.3684 177.96 81.8384 178.41L82.1584 178.94C82.5884 178.56 83.2284 178.32 83.9084 178.32C84.8884 178.32 85.3984 178.81 85.3984 179.71V180.03H83.7284C82.2184 180.03 81.6984 180.71 81.6984 181.52C81.6984 182.43 82.4284 183.05 83.6184 183.05C84.4884 183.05 85.1084 182.72 85.4284 182.18V183H86.1084V179.74C86.1084 178.38 85.3384 177.7 83.9784 177.7ZM83.7284 182.49C82.8884 182.49 82.3984 182.11 82.3984 181.5C82.3984 180.96 82.7284 180.56 83.7484 180.56H85.3984V181.42C85.1184 182.11 84.5284 182.49 83.7284 182.49ZM94.8341 183.05C95.7241 183.05 96.4741 182.69 96.8941 182.01L96.3641 181.65C96.0041 182.18 95.4441 182.42 94.8341 182.42C93.6841 182.42 92.8441 181.61 92.8441 180.37C92.8441 179.14 93.6841 178.32 94.8341 178.32C95.4441 178.32 96.0041 178.57 96.3641 179.1L96.8941 178.74C96.4741 178.05 95.7241 177.7 94.8341 177.7C93.2641 177.7 92.1241 178.8 92.1241 180.37C92.1241 181.94 93.2641 183.05 94.8341 183.05ZM99.2107 183H99.9207V175.58H99.2107V183ZM105.046 183.05C106.586 183.05 107.716 181.93 107.716 180.37C107.716 178.81 106.586 177.7 105.046 177.7C103.506 177.7 102.366 178.81 102.366 180.37C102.366 181.93 103.506 183.05 105.046 183.05ZM105.046 182.42C103.926 182.42 103.086 181.6 103.086 180.37C103.086 179.14 103.926 178.32 105.046 178.32C106.166 178.32 106.996 179.14 106.996 180.37C106.996 181.6 106.166 182.42 105.046 182.42ZM114.196 177.74V180.5C114.196 181.7 113.506 182.41 112.406 182.41C111.406 182.41 110.826 181.84 110.826 180.72V177.74H110.116V180.79C110.116 182.3 110.996 183.05 112.336 183.05C113.176 183.05 113.856 182.68 114.226 182.04V183H114.906V177.74H114.196ZM121.984 175.58V178.74C121.544 178.06 120.824 177.7 119.984 177.7C118.484 177.7 117.364 178.78 117.364 180.37C117.364 181.96 118.484 183.05 119.984 183.05C120.854 183.05 121.584 182.67 122.014 181.96V183H122.694V175.58H121.984ZM120.044 182.42C118.924 182.42 118.084 181.6 118.084 180.37C118.084 179.14 118.924 178.32 120.044 178.32C121.154 178.32 121.994 179.14 121.994 180.37C121.994 181.6 121.154 182.42 120.044 182.42ZM131.439 183.05C132.979 183.05 134.109 181.93 134.109 180.37C134.109 178.81 132.979 177.7 131.439 177.7C129.899 177.7 128.759 178.81 128.759 180.37C128.759 181.93 129.899 183.05 131.439 183.05ZM131.439 182.42C130.319 182.42 129.479 181.6 129.479 180.37C129.479 179.14 130.319 178.32 131.439 178.32C132.559 178.32 133.389 179.14 133.389 180.37C133.389 181.6 132.559 182.42 131.439 182.42ZM138.298 176.13C138.598 176.13 138.878 176.22 139.078 176.39L139.318 175.86C139.058 175.64 138.658 175.53 138.268 175.53C137.238 175.53 136.678 176.15 136.678 177.09V177.74H135.738V178.34H136.678V183H137.388V178.34H138.988V177.74H137.368V177.12C137.368 176.47 137.688 176.13 138.298 176.13ZM145.974 183.05C147.344 183.05 148.144 182.46 148.144 181.55C148.144 179.53 144.734 180.6 144.734 179.18C144.734 178.68 145.154 178.31 146.104 178.31C146.644 178.31 147.194 178.44 147.654 178.76L147.964 178.19C147.524 177.89 146.784 177.7 146.104 177.7C144.764 177.7 144.024 178.34 144.024 179.2C144.024 181.28 147.434 180.2 147.434 181.57C147.434 182.09 147.024 182.43 146.024 182.43C145.284 182.43 144.574 182.17 144.154 181.84L143.834 182.4C144.264 182.77 145.104 183.05 145.974 183.05ZM157.017 177.7C156.067 177.7 155.317 178.13 154.937 178.81C154.617 178.07 153.937 177.7 153.067 177.7C152.187 177.7 151.507 178.07 151.137 178.7V177.74H150.457V183H151.167V180.24C151.167 179.04 151.857 178.34 152.927 178.34C153.887 178.34 154.447 178.91 154.447 180.02V183H155.157V180.24C155.157 179.04 155.837 178.34 156.917 178.34C157.867 178.34 158.427 178.91 158.427 180.02V183H159.137V179.95C159.137 178.44 158.297 177.7 157.017 177.7ZM164.232 183.05C165.772 183.05 166.902 181.93 166.902 180.37C166.902 178.81 165.772 177.7 164.232 177.7C162.692 177.7 161.552 178.81 161.552 180.37C161.552 181.93 162.692 183.05 164.232 183.05ZM164.232 182.42C163.112 182.42 162.272 181.6 162.272 180.37C162.272 179.14 163.112 178.32 164.232 178.32C165.352 178.32 166.182 179.14 166.182 180.37C166.182 181.6 165.352 182.42 164.232 182.42ZM173.421 183H174.291L171.831 179.89L174.081 177.74H173.201L170.061 180.61V175.58H169.351V183H170.061V181.5L171.301 180.36L173.421 183ZM180.732 180.37C180.732 178.79 179.662 177.7 178.182 177.7C176.702 177.7 175.612 178.81 175.612 180.37C175.612 181.93 176.732 183.05 178.372 183.05C179.202 183.05 179.932 182.75 180.402 182.19L180.002 181.73C179.602 182.19 179.032 182.42 178.392 182.42C177.242 182.42 176.402 181.69 176.322 180.59H180.722C180.722 180.51 180.732 180.43 180.732 180.37ZM178.182 178.31C179.212 178.31 179.962 179.03 180.052 180.06H176.322C176.412 179.03 177.162 178.31 178.182 178.31ZM189.315 182.17C189.115 182.35 188.825 182.44 188.535 182.44C187.945 182.44 187.625 182.1 187.625 181.48V178.34H189.225V177.74H187.625V176.59H186.915V177.74H185.975V178.34H186.915V181.52C186.915 182.49 187.465 183.05 188.455 183.05C188.865 183.05 189.285 182.93 189.565 182.68L189.315 182.17ZM194.537 177.7C193.647 177.7 192.957 178.05 192.567 178.66V175.58H191.857V183H192.567V180.24C192.567 179.04 193.277 178.34 194.407 178.34C195.407 178.34 195.987 178.91 195.987 180.02V183H196.697V179.95C196.697 178.44 195.817 177.7 194.537 177.7ZM201.465 177.7C200.635 177.7 199.855 177.96 199.325 178.41L199.645 178.94C200.075 178.56 200.715 178.32 201.395 178.32C202.375 178.32 202.885 178.81 202.885 179.71V180.03H201.215C199.705 180.03 199.185 180.71 199.185 181.52C199.185 182.43 199.915 183.05 201.105 183.05C201.975 183.05 202.595 182.72 202.915 182.18V183H203.595V179.74C203.595 178.38 202.825 177.7 201.465 177.7ZM201.215 182.49C200.375 182.49 199.885 182.11 199.885 181.5C199.885 180.96 200.215 180.56 201.235 180.56H202.885V181.42C202.605 182.11 202.015 182.49 201.215 182.49ZM209.043 182.17C208.843 182.35 208.553 182.44 208.263 182.44C207.673 182.44 207.353 182.1 207.353 181.48V178.34H208.953V177.74H207.353V176.59H206.643V177.74H205.703V178.34H206.643V181.52C206.643 182.49 207.193 183.05 208.183 183.05C208.593 183.05 209.013 182.93 209.293 182.68L209.043 182.17ZM217.353 183.05C218.893 183.05 220.023 181.93 220.023 180.37C220.023 178.81 218.893 177.7 217.353 177.7C215.813 177.7 214.673 178.81 214.673 180.37C214.673 181.93 215.813 183.05 217.353 183.05ZM217.353 182.42C216.233 182.42 215.393 181.6 215.393 180.37C215.393 179.14 216.233 178.32 217.353 178.32C218.473 178.32 219.303 179.14 219.303 180.37C219.303 181.6 218.473 182.42 217.353 182.42ZM225.182 177.7C224.342 177.7 223.622 178.06 223.182 178.74V175.58H222.472V183H223.152V181.96C223.582 182.67 224.312 183.05 225.182 183.05C226.682 183.05 227.802 181.96 227.802 180.37C227.802 178.78 226.682 177.7 225.182 177.7ZM225.132 182.42C224.012 182.42 223.172 181.6 223.172 180.37C223.172 179.14 224.012 178.32 225.132 178.32C226.242 178.32 227.092 179.14 227.092 180.37C227.092 181.6 226.242 182.42 225.132 182.42ZM231.66 183.05C233.03 183.05 233.83 182.46 233.83 181.55C233.83 179.53 230.42 180.6 230.42 179.18C230.42 178.68 230.84 178.31 231.79 178.31C232.33 178.31 232.88 178.44 233.34 178.76L233.65 178.19C233.21 177.89 232.47 177.7 231.79 177.7C230.45 177.7 229.71 178.34 229.71 179.2C229.71 181.28 233.12 180.2 233.12 181.57C233.12 182.09 232.71 182.43 231.71 182.43C230.97 182.43 230.26 182.17 229.84 181.84L229.52 182.4C229.95 182.77 230.79 183.05 231.66 183.05ZM238.662 182.17C238.462 182.35 238.172 182.44 237.882 182.44C237.292 182.44 236.972 182.1 236.972 181.48V178.34H238.572V177.74H236.972V176.59H236.262V177.74H235.322V178.34H236.262V181.52C236.262 182.49 236.812 183.05 237.802 183.05C238.212 183.05 238.632 182.93 238.912 182.68L238.662 182.17ZM241.885 178.77V177.74H241.205V183H241.915V180.32C241.915 179.08 242.585 178.38 243.685 178.38C243.735 178.38 243.795 178.39 243.855 178.39V177.7C242.885 177.7 242.215 178.07 241.885 178.77ZM250.249 177.74V180.5C250.249 181.7 249.559 182.41 248.459 182.41C247.459 182.41 246.879 181.84 246.879 180.72V177.74H246.169V180.79C246.169 182.3 247.049 183.05 248.389 183.05C249.229 183.05 249.909 182.68 250.279 182.04V183H250.959V177.74H250.249ZM256.127 183.05C257.017 183.05 257.767 182.69 258.187 182.01L257.657 181.65C257.297 182.18 256.737 182.42 256.127 182.42C254.977 182.42 254.137 181.61 254.137 180.37C254.137 179.14 254.977 178.32 256.127 178.32C256.737 178.32 257.297 178.57 257.657 179.1L258.187 178.74C257.767 178.05 257.017 177.7 256.127 177.7C254.557 177.7 253.417 178.8 253.417 180.37C253.417 181.94 254.557 183.05 256.127 183.05ZM263.16 182.17C262.96 182.35 262.67 182.44 262.38 182.44C261.79 182.44 261.47 182.1 261.47 181.48V178.34H263.07V177.74H261.47V176.59H260.76V177.74H259.82V178.34H260.76V181.52C260.76 182.49 261.31 183.05 262.3 183.05C262.71 183.05 263.13 182.93 263.41 182.68L263.16 182.17ZM267.113 183.05C268.483 183.05 269.283 182.46 269.283 181.55C269.283 179.53 265.873 180.6 265.873 179.18C265.873 178.68 266.293 178.31 267.243 178.31C267.783 178.31 268.333 178.44 268.793 178.76L269.103 178.19C268.663 177.89 267.923 177.7 267.243 177.7C265.903 177.7 265.163 178.34 265.163 179.2C265.163 181.28 268.573 180.2 268.573 181.57C268.573 182.09 268.163 182.43 267.163 182.43C266.423 182.43 265.713 182.17 265.293 181.84L264.973 182.4C265.403 182.77 266.243 183.05 267.113 183.05ZM32.0676 194.17C31.8676 194.35 31.5776 194.44 31.2876 194.44C30.6976 194.44 30.3776 194.1 30.3776 193.48V190.34H31.9776V189.74H30.3776V188.59H29.6676V189.74H28.7276V190.34H29.6676V193.52C29.6676 194.49 30.2176 195.05 31.2076 195.05C31.6176 195.05 32.0376 194.93 32.3176 194.68L32.0676 194.17ZM37.2901 189.7C36.4001 189.7 35.7101 190.05 35.3201 190.66V187.58H34.6101V195H35.3201V192.24C35.3201 191.04 36.0301 190.34 37.1601 190.34C38.1601 190.34 38.7401 190.91 38.7401 192.02V195H39.4501V191.95C39.4501 190.44 38.5701 189.7 37.2901 189.7ZM46.9872 192.37C46.9872 190.79 45.9172 189.7 44.4372 189.7C42.9572 189.7 41.8672 190.81 41.8672 192.37C41.8672 193.93 42.9872 195.05 44.6272 195.05C45.4572 195.05 46.1872 194.75 46.6572 194.19L46.2572 193.73C45.8572 194.19 45.2872 194.42 44.6472 194.42C43.4972 194.42 42.6572 193.69 42.5772 192.59H46.9772C46.9772 192.51 46.9872 192.43 46.9872 192.37ZM44.4372 190.31C45.4672 190.31 46.2172 191.03 46.3072 192.06H42.5772C42.6672 191.03 43.4172 190.31 44.4372 190.31ZM57.6396 192.37C57.6396 190.79 56.5696 189.7 55.0896 189.7C53.6096 189.7 52.5196 190.81 52.5196 192.37C52.5196 193.93 53.6396 195.05 55.2796 195.05C56.1096 195.05 56.8396 194.75 57.3096 194.19L56.9096 193.73C56.5096 194.19 55.9396 194.42 55.2996 194.42C54.1496 194.42 53.3096 193.69 53.2296 192.59H57.6296C57.6296 192.51 57.6396 192.43 57.6396 192.37ZM55.0896 190.31C56.1196 190.31 56.8696 191.03 56.9596 192.06H53.2296C53.3196 191.03 54.0696 190.31 55.0896 190.31ZM62.7647 189.7C61.8547 189.7 61.1447 190.07 60.7647 190.71V189.74H60.0847V195H60.7947V192.24C60.7947 191.04 61.5047 190.34 62.6347 190.34C63.6347 190.34 64.2147 190.91 64.2147 192.02V195H64.9247V191.95C64.9247 190.44 64.0447 189.7 62.7647 189.7ZM72.4618 192.37C72.4618 190.79 71.3918 189.7 69.9118 189.7C68.4318 189.7 67.3418 190.81 67.3418 192.37C67.3418 193.93 68.4618 195.05 70.1018 195.05C70.9318 195.05 71.6618 194.75 72.1318 194.19L71.7318 193.73C71.3318 194.19 70.7618 194.42 70.1218 194.42C68.9718 194.42 68.1318 193.69 68.0518 192.59H72.4518C72.4518 192.51 72.4618 192.43 72.4618 192.37ZM69.9118 190.31C70.9418 190.31 71.6918 191.03 71.7818 192.06H68.0518C68.1418 191.03 68.8918 190.31 69.9118 190.31ZM81.467 189.7C80.517 189.7 79.767 190.13 79.387 190.81C79.067 190.07 78.387 189.7 77.517 189.7C76.637 189.7 75.957 190.07 75.587 190.7V189.74H74.907V195H75.617V192.24C75.617 191.04 76.307 190.34 77.377 190.34C78.337 190.34 78.897 190.91 78.897 192.02V195H79.607V192.24C79.607 191.04 80.287 190.34 81.367 190.34C82.317 190.34 82.877 190.91 82.877 192.02V195H83.587V191.95C83.587 190.44 82.747 189.7 81.467 189.7ZM90.1348 189.74L88.1548 194.21L86.1748 189.74H85.4348L87.7848 194.99L87.5548 195.5C87.2548 196.16 86.9348 196.38 86.4648 196.38C86.0848 196.38 85.7648 196.24 85.5048 195.98L85.1748 196.51C85.4948 196.83 85.9648 196.99 86.4548 196.99C87.2048 196.99 87.7648 196.66 88.2048 195.63L90.8348 189.74H90.1348ZM92.5847 190.64H93.1147L93.1647 188H92.5347L92.5847 190.64ZM97.2662 195.05C98.6362 195.05 99.4362 194.46 99.4362 193.55C99.4362 191.53 96.0262 192.6 96.0262 191.18C96.0262 190.68 96.4462 190.31 97.3962 190.31C97.9362 190.31 98.4862 190.44 98.9462 190.76L99.2562 190.19C98.8162 189.89 98.0762 189.7 97.3962 189.7C96.0562 189.7 95.3162 190.34 95.3162 191.2C95.3162 193.28 98.7262 192.2 98.7262 193.57C98.7262 194.09 98.3162 194.43 97.3162 194.43C96.5762 194.43 95.8662 194.17 95.4462 193.84L95.1262 194.4C95.5562 194.77 96.3962 195.05 97.2662 195.05ZM109.086 189.74L107.096 194.22L105.126 189.74H104.386L106.716 195H107.446L109.786 189.74H109.086ZM112.146 188.59C112.446 188.59 112.666 188.36 112.666 188.07C112.666 187.8 112.436 187.58 112.146 187.58C111.856 187.58 111.626 187.81 111.626 188.08C111.626 188.36 111.856 188.59 112.146 188.59ZM111.786 195H112.496V189.74H111.786V195ZM116.881 195.05C118.251 195.05 119.051 194.46 119.051 193.55C119.051 191.53 115.641 192.6 115.641 191.18C115.641 190.68 116.061 190.31 117.011 190.31C117.551 190.31 118.101 190.44 118.561 190.76L118.871 190.19C118.431 189.89 117.691 189.7 117.011 189.7C115.671 189.7 114.931 190.34 114.931 191.2C114.931 193.28 118.341 192.2 118.341 193.57C118.341 194.09 117.931 194.43 116.931 194.43C116.191 194.43 115.481 194.17 115.061 193.84L114.741 194.4C115.171 194.77 116.011 195.05 116.881 195.05ZM121.724 188.59C122.024 188.59 122.244 188.36 122.244 188.07C122.244 187.8 122.014 187.58 121.724 187.58C121.434 187.58 121.204 187.81 121.204 188.08C121.204 188.36 121.434 188.59 121.724 188.59ZM121.364 195H122.074V189.74H121.364V195ZM127.2 195.05C128.74 195.05 129.87 193.93 129.87 192.37C129.87 190.81 128.74 189.7 127.2 189.7C125.66 189.7 124.52 190.81 124.52 192.37C124.52 193.93 125.66 195.05 127.2 195.05ZM127.2 194.42C126.08 194.42 125.24 193.6 125.24 192.37C125.24 191.14 126.08 190.32 127.2 190.32C128.32 190.32 129.15 191.14 129.15 192.37C129.15 193.6 128.32 194.42 127.2 194.42ZM134.999 189.7C134.089 189.7 133.379 190.07 132.999 190.71V189.74H132.319V195H133.029V192.24C133.029 191.04 133.739 190.34 134.869 190.34C135.869 190.34 136.449 190.91 136.449 192.02V195H137.159V191.95C137.159 190.44 136.279 189.7 134.999 189.7ZM140.157 195.05C140.447 195.05 140.697 194.81 140.697 194.5C140.697 194.19 140.447 193.96 140.157 193.96C139.867 193.96 139.627 194.19 139.627 194.5C139.627 194.81 139.867 195.05 140.157 195.05ZM149.593 188H146.973V195H147.713V192.79H149.593C151.373 192.79 152.453 191.89 152.453 190.4C152.453 188.9 151.373 188 149.593 188ZM149.573 192.14H147.713V188.64H149.573C150.973 188.64 151.713 189.28 151.713 190.4C151.713 191.5 150.973 192.14 149.573 192.14ZM155.446 190.77V189.74H154.766V195H155.476V192.32C155.476 191.08 156.146 190.38 157.246 190.38C157.296 190.38 157.356 190.39 157.416 190.39V189.7C156.446 189.7 155.776 190.07 155.446 190.77ZM164.243 192.37C164.243 190.79 163.173 189.7 161.693 189.7C160.213 189.7 159.123 190.81 159.123 192.37C159.123 193.93 160.243 195.05 161.883 195.05C162.713 195.05 163.443 194.75 163.913 194.19L163.513 193.73C163.113 194.19 162.543 194.42 161.903 194.42C160.753 194.42 159.913 193.69 159.833 192.59H164.233C164.233 192.51 164.243 192.43 164.243 192.37ZM161.693 190.31C162.723 190.31 163.473 191.03 163.563 192.06H159.833C159.923 191.03 160.673 190.31 161.693 190.31ZM168.098 195.05C169.468 195.05 170.268 194.46 170.268 193.55C170.268 191.53 166.858 192.6 166.858 191.18C166.858 190.68 167.278 190.31 168.228 190.31C168.768 190.31 169.318 190.44 169.778 190.76L170.088 190.19C169.648 189.89 168.908 189.7 168.228 189.7C166.888 189.7 166.148 190.34 166.148 191.2C166.148 193.28 169.558 192.2 169.558 193.57C169.558 194.09 169.148 194.43 168.148 194.43C167.408 194.43 166.698 194.17 166.278 193.84L165.958 194.4C166.388 194.77 167.228 195.05 168.098 195.05ZM173.991 195.05C175.361 195.05 176.161 194.46 176.161 193.55C176.161 191.53 172.751 192.6 172.751 191.18C172.751 190.68 173.171 190.31 174.121 190.31C174.661 190.31 175.211 190.44 175.671 190.76L175.981 190.19C175.541 189.89 174.801 189.7 174.121 189.7C172.781 189.7 172.041 190.34 172.041 191.2C172.041 193.28 175.451 192.2 175.451 193.57C175.451 194.09 175.041 194.43 174.041 194.43C173.301 194.43 172.591 194.17 172.171 193.84L171.851 194.4C172.281 194.77 173.121 195.05 173.991 195.05ZM184.611 194.17C184.411 194.35 184.121 194.44 183.831 194.44C183.241 194.44 182.921 194.1 182.921 193.48V190.34H184.521V189.74H182.921V188.59H182.211V189.74H181.271V190.34H182.211V193.52C182.211 194.49 182.761 195.05 183.751 195.05C184.161 195.05 184.581 194.93 184.861 194.68L184.611 194.17ZM189.833 189.7C188.943 189.7 188.253 190.05 187.863 190.66V187.58H187.153V195H187.863V192.24C187.863 191.04 188.573 190.34 189.703 190.34C190.703 190.34 191.283 190.91 191.283 192.02V195H191.993V191.95C191.993 190.44 191.113 189.7 189.833 189.7ZM199.53 192.37C199.53 190.79 198.46 189.7 196.98 189.7C195.5 189.7 194.41 190.81 194.41 192.37C194.41 193.93 195.53 195.05 197.17 195.05C198 195.05 198.73 194.75 199.2 194.19L198.8 193.73C198.4 194.19 197.83 194.42 197.19 194.42C196.04 194.42 195.2 193.69 195.12 192.59H199.52C199.52 192.51 199.53 192.43 199.53 192.37ZM196.98 190.31C198.01 190.31 198.76 191.03 198.85 192.06H195.12C195.21 191.03 195.96 190.31 196.98 190.31ZM207.003 195.05C208.373 195.05 209.173 194.46 209.173 193.55C209.173 191.53 205.763 192.6 205.763 191.18C205.763 190.68 206.183 190.31 207.133 190.31C207.673 190.31 208.223 190.44 208.683 190.76L208.993 190.19C208.553 189.89 207.813 189.7 207.133 189.7C205.793 189.7 205.053 190.34 205.053 191.2C205.053 193.28 208.463 192.2 208.463 193.57C208.463 194.09 208.053 194.43 207.053 194.43C206.313 194.43 205.603 194.17 205.183 193.84L204.863 194.4C205.293 194.77 206.133 195.05 207.003 195.05ZM215.555 195H216.425L213.965 191.89L216.215 189.74H215.335L212.195 192.61V187.58H211.485V195H212.195V193.5L213.435 192.36L215.555 195ZM218.773 188.59C219.073 188.59 219.293 188.36 219.293 188.07C219.293 187.8 219.063 187.58 218.773 187.58C218.483 187.58 218.253 187.81 218.253 188.08C218.253 188.36 218.483 188.59 218.773 188.59ZM218.413 195H219.123V189.74H218.413V195ZM222.098 195H222.808V187.58H222.098V195ZM225.784 195H226.494V187.58H225.784V195ZM235.797 189.7C234.957 189.7 234.237 190.06 233.797 190.74V187.58H233.087V195H233.767V193.96C234.197 194.67 234.927 195.05 235.797 195.05C237.297 195.05 238.417 193.96 238.417 192.37C238.417 190.78 237.297 189.7 235.797 189.7ZM235.747 194.42C234.627 194.42 233.787 193.6 233.787 192.37C233.787 191.14 234.627 190.32 235.747 190.32C236.857 190.32 237.707 191.14 237.707 192.37C237.707 193.6 236.857 194.42 235.747 194.42ZM244.894 189.74V192.5C244.894 193.7 244.204 194.41 243.104 194.41C242.104 194.41 241.524 193.84 241.524 192.72V189.74H240.814V192.79C240.814 194.3 241.694 195.05 243.034 195.05C243.874 195.05 244.554 194.68 244.924 194.04V195H245.604V189.74H244.894ZM251.113 194.17C250.913 194.35 250.623 194.44 250.333 194.44C249.743 194.44 249.423 194.1 249.423 193.48V190.34H251.023V189.74H249.423V188.59H248.713V189.74H247.773V190.34H248.713V193.52C248.713 194.49 249.263 195.05 250.253 195.05C250.663 195.05 251.083 194.93 251.363 194.68L251.113 194.17ZM256.038 194.17C255.838 194.35 255.548 194.44 255.258 194.44C254.668 194.44 254.348 194.1 254.348 193.48V190.34H255.948V189.74H254.348V188.59H253.638V189.74H252.698V190.34H253.638V193.52C253.638 194.49 254.188 195.05 255.178 195.05C255.588 195.05 256.008 194.93 256.288 194.68L256.038 194.17ZM260.545 195.05C262.085 195.05 263.215 193.93 263.215 192.37C263.215 190.81 262.085 189.7 260.545 189.7C259.005 189.7 257.865 190.81 257.865 192.37C257.865 193.93 259.005 195.05 260.545 195.05ZM260.545 194.42C259.425 194.42 258.585 193.6 258.585 192.37C258.585 191.14 259.425 190.32 260.545 190.32C261.665 190.32 262.495 191.14 262.495 192.37C262.495 193.6 261.665 194.42 260.545 194.42ZM268.345 189.7C267.435 189.7 266.725 190.07 266.345 190.71V189.74H265.665V195H266.375V192.24C266.375 191.04 267.085 190.34 268.215 190.34C269.215 190.34 269.795 190.91 269.795 192.02V195H270.505V191.95C270.505 190.44 269.625 189.7 268.345 189.7ZM62.1757 201.7C61.3457 201.7 60.5657 201.96 60.0357 202.41L60.3557 202.94C60.7857 202.56 61.4257 202.32 62.1057 202.32C63.0857 202.32 63.5957 202.81 63.5957 203.71V204.03H61.9257C60.4157 204.03 59.8957 204.71 59.8957 205.52C59.8957 206.43 60.6257 207.05 61.8157 207.05C62.6857 207.05 63.3057 206.72 63.6257 206.18V207H64.3057V203.74C64.3057 202.38 63.5357 201.7 62.1757 201.7ZM61.9257 206.49C61.0857 206.49 60.5957 206.11 60.5957 205.5C60.5957 204.96 60.9257 204.56 61.9457 204.56H63.5957V205.42C63.3157 206.11 62.7257 206.49 61.9257 206.49ZM72.2613 207.05C73.6313 207.05 74.4313 206.46 74.4313 205.55C74.4313 203.53 71.0213 204.6 71.0213 203.18C71.0213 202.68 71.4413 202.31 72.3913 202.31C72.9313 202.31 73.4813 202.44 73.9413 202.76L74.2513 202.19C73.8113 201.89 73.0713 201.7 72.3913 201.7C71.0513 201.7 70.3113 202.34 70.3113 203.2C70.3113 205.28 73.7213 204.2 73.7213 205.57C73.7213 206.09 73.3113 206.43 72.3113 206.43C71.5713 206.43 70.8613 206.17 70.4413 205.84L70.1213 206.4C70.5513 206.77 71.3913 207.05 72.2613 207.05ZM81.3339 204.37C81.3339 202.79 80.2639 201.7 78.7839 201.7C77.3039 201.7 76.2139 202.81 76.2139 204.37C76.2139 205.93 77.3339 207.05 78.9739 207.05C79.8039 207.05 80.5339 206.75 81.0039 206.19L80.6039 205.73C80.2039 206.19 79.6339 206.42 78.9939 206.42C77.8439 206.42 77.0039 205.69 76.9239 204.59H81.3239C81.3239 204.51 81.3339 204.43 81.3339 204.37ZM78.7839 202.31C79.8139 202.31 80.5639 203.03 80.6539 204.06H76.9239C77.0139 203.03 77.7639 202.31 78.7839 202.31ZM85.9591 207.05C86.8491 207.05 87.5991 206.69 88.0191 206.01L87.4891 205.65C87.1291 206.18 86.5691 206.42 85.9591 206.42C84.8091 206.42 83.9691 205.61 83.9691 204.37C83.9691 203.14 84.8091 202.32 85.9591 202.32C86.5691 202.32 87.1291 202.57 87.4891 203.1L88.0191 202.74C87.5991 202.05 86.8491 201.7 85.9591 201.7C84.3891 201.7 83.2491 202.8 83.2491 204.37C83.2491 205.94 84.3891 207.05 85.9591 207.05ZM92.4759 207.05C94.0159 207.05 95.1459 205.93 95.1459 204.37C95.1459 202.81 94.0159 201.7 92.4759 201.7C90.9359 201.7 89.7959 202.81 89.7959 204.37C89.7959 205.93 90.9359 207.05 92.4759 207.05ZM92.4759 206.42C91.3559 206.42 90.5159 205.6 90.5159 204.37C90.5159 203.14 91.3559 202.32 92.4759 202.32C93.5959 202.32 94.4259 203.14 94.4259 204.37C94.4259 205.6 93.5959 206.42 92.4759 206.42ZM100.275 201.7C99.3655 201.7 98.6555 202.07 98.2755 202.71V201.74H97.5955V207H98.3055V204.24C98.3055 203.04 99.0155 202.34 100.145 202.34C101.145 202.34 101.725 202.91 101.725 204.02V207H102.435V203.95C102.435 202.44 101.555 201.7 100.275 201.7ZM109.473 199.58V202.74C109.033 202.06 108.313 201.7 107.473 201.7C105.973 201.7 104.853 202.78 104.853 204.37C104.853 205.96 105.973 207.05 107.473 207.05C108.343 207.05 109.073 206.67 109.503 205.96V207H110.183V199.58H109.473ZM107.533 206.42C106.413 206.42 105.573 205.6 105.573 204.37C105.573 203.14 106.413 202.32 107.533 202.32C108.643 202.32 109.483 203.14 109.483 204.37C109.483 205.6 108.643 206.42 107.533 206.42ZM119.297 206.17C119.097 206.35 118.807 206.44 118.517 206.44C117.927 206.44 117.607 206.1 117.607 205.48V202.34H119.207V201.74H117.607V200.59H116.897V201.74H115.957V202.34H116.897V205.52C116.897 206.49 117.447 207.05 118.437 207.05C118.847 207.05 119.267 206.93 119.547 206.68L119.297 206.17ZM122.2 200.59C122.5 200.59 122.72 200.36 122.72 200.07C122.72 199.8 122.49 199.58 122.2 199.58C121.91 199.58 121.68 199.81 121.68 200.08C121.68 200.36 121.91 200.59 122.2 200.59ZM121.84 207H122.55V201.74H121.84V207ZM132.085 201.7C131.135 201.7 130.385 202.13 130.005 202.81C129.685 202.07 129.005 201.7 128.135 201.7C127.255 201.7 126.575 202.07 126.205 202.7V201.74H125.525V207H126.235V204.24C126.235 203.04 126.925 202.34 127.995 202.34C128.955 202.34 129.515 202.91 129.515 204.02V207H130.225V204.24C130.225 203.04 130.905 202.34 131.985 202.34C132.935 202.34 133.495 202.91 133.495 204.02V207H134.205V203.95C134.205 202.44 133.365 201.7 132.085 201.7ZM141.74 204.37C141.74 202.79 140.67 201.7 139.19 201.7C137.71 201.7 136.62 202.81 136.62 204.37C136.62 205.93 137.74 207.05 139.38 207.05C140.21 207.05 140.94 206.75 141.41 206.19L141.01 205.73C140.61 206.19 140.04 206.42 139.4 206.42C138.25 206.42 137.41 205.69 137.33 204.59H141.73C141.73 204.51 141.74 204.43 141.74 204.37ZM139.19 202.31C140.22 202.31 140.97 203.03 141.06 204.06H137.33C137.42 203.03 138.17 202.31 139.19 202.31ZM150.323 206.17C150.123 206.35 149.833 206.44 149.543 206.44C148.953 206.44 148.633 206.1 148.633 205.48V202.34H150.233V201.74H148.633V200.59H147.923V201.74H146.983V202.34H147.923V205.52C147.923 206.49 148.473 207.05 149.463 207.05C149.873 207.05 150.293 206.93 150.573 206.68L150.323 206.17ZM154.829 207.05C156.369 207.05 157.499 205.93 157.499 204.37C157.499 202.81 156.369 201.7 154.829 201.7C153.289 201.7 152.149 202.81 152.149 204.37C152.149 205.93 153.289 207.05 154.829 207.05ZM154.829 206.42C153.709 206.42 152.869 205.6 152.869 204.37C152.869 203.14 153.709 202.32 154.829 202.32C155.949 202.32 156.779 203.14 156.779 204.37C156.779 205.6 155.949 206.42 154.829 206.42ZM163.566 207H164.276V199.58H163.566V207ZM167.612 200.59C167.912 200.59 168.132 200.36 168.132 200.07C168.132 199.8 167.902 199.58 167.612 199.58C167.322 199.58 167.092 199.81 167.092 200.08C167.092 200.36 167.322 200.59 167.612 200.59ZM167.252 207H167.962V201.74H167.252V207ZM172.677 200.13C172.977 200.13 173.257 200.22 173.457 200.39L173.697 199.86C173.437 199.64 173.037 199.53 172.647 199.53C171.617 199.53 171.057 200.15 171.057 201.09V201.74H170.117V202.34H171.057V207H171.767V202.34H173.367V201.74H171.747V201.12C171.747 200.47 172.067 200.13 172.677 200.13ZM177.846 206.17C177.646 206.35 177.356 206.44 177.066 206.44C176.476 206.44 176.156 206.1 176.156 205.48V202.34H177.756V201.74H176.156V200.59H175.446V201.74H174.506V202.34H175.446V205.52C175.446 206.49 175.996 207.05 176.986 207.05C177.396 207.05 177.816 206.93 178.096 206.68L177.846 206.17ZM186.526 206.17C186.326 206.35 186.036 206.44 185.746 206.44C185.156 206.44 184.836 206.1 184.836 205.48V202.34H186.436V201.74H184.836V200.59H184.126V201.74H183.186V202.34H184.126V205.52C184.126 206.49 184.676 207.05 185.666 207.05C186.076 207.05 186.496 206.93 186.776 206.68L186.526 206.17ZM191.748 201.7C190.858 201.7 190.168 202.05 189.778 202.66V199.58H189.068V207H189.778V204.24C189.778 203.04 190.488 202.34 191.618 202.34C192.618 202.34 193.198 202.91 193.198 204.02V207H193.908V203.95C193.908 202.44 193.028 201.7 191.748 201.7ZM201.445 204.37C201.445 202.79 200.375 201.7 198.895 201.7C197.415 201.7 196.325 202.81 196.325 204.37C196.325 205.93 197.445 207.05 199.085 207.05C199.915 207.05 200.645 206.75 201.115 206.19L200.715 205.73C200.315 206.19 199.745 206.42 199.105 206.42C197.955 206.42 197.115 205.69 197.035 204.59H201.435C201.435 204.51 201.445 204.43 201.445 204.37ZM198.895 202.31C199.925 202.31 200.675 203.03 200.765 204.06H197.035C197.125 203.03 197.875 202.31 198.895 202.31ZM209.688 207.05C210.578 207.05 211.328 206.69 211.748 206.01L211.218 205.65C210.858 206.18 210.298 206.42 209.688 206.42C208.538 206.42 207.698 205.61 207.698 204.37C207.698 203.14 208.538 202.32 209.688 202.32C210.298 202.32 210.858 202.57 211.218 203.1L211.748 202.74C211.328 202.05 210.578 201.7 209.688 201.7C208.118 201.7 206.978 202.8 206.978 204.37C206.978 205.94 208.118 207.05 209.688 207.05ZM214.064 207H214.774V199.58H214.064V207ZM219.9 207.05C221.44 207.05 222.57 205.93 222.57 204.37C222.57 202.81 221.44 201.7 219.9 201.7C218.36 201.7 217.22 202.81 217.22 204.37C217.22 205.93 218.36 207.05 219.9 207.05ZM219.9 206.42C218.78 206.42 217.94 205.6 217.94 204.37C217.94 203.14 218.78 202.32 219.9 202.32C221.02 202.32 221.85 203.14 221.85 204.37C221.85 205.6 221.02 206.42 219.9 206.42ZM229.049 201.74V204.5C229.049 205.7 228.359 206.41 227.259 206.41C226.259 206.41 225.679 205.84 225.679 204.72V201.74H224.969V204.79C224.969 206.3 225.849 207.05 227.189 207.05C228.029 207.05 228.709 206.68 229.079 206.04V207H229.759V201.74H229.049ZM236.838 199.58V202.74C236.398 202.06 235.678 201.7 234.838 201.7C233.338 201.7 232.218 202.78 232.218 204.37C232.218 205.96 233.338 207.05 234.838 207.05C235.708 207.05 236.438 206.67 236.868 205.96V207H237.548V199.58H236.838ZM234.898 206.42C233.778 206.42 232.938 205.6 232.938 204.37C232.938 203.14 233.778 202.32 234.898 202.32C236.008 202.32 236.848 203.14 236.848 204.37C236.848 205.6 236.008 206.42 234.898 206.42ZM240.595 207.05C240.885 207.05 241.135 206.81 241.135 206.5C241.135 206.19 240.885 205.96 240.595 205.96C240.305 205.96 240.065 206.19 240.065 206.5C240.065 206.81 240.305 207.05 240.595 207.05Z" fill="white"/>
<path d="M63.5249 159.234C71.1749 159.234 72.5069 155.49 72.5069 153.798V153.6H68.0609C67.9529 153.906 67.5209 155.976 63.1829 155.976C59.2769 155.976 58.2149 153.888 58.2149 152.304V152.088C58.2149 150.414 59.1329 148.614 63.1469 148.614C67.3949 148.614 67.9349 150.486 68.0429 150.846H72.4889V150.648C72.4889 149.082 71.2829 145.374 63.5249 145.374H62.7869C54.8669 145.374 53.8229 149.568 53.8229 151.998V152.52C53.8229 154.896 55.0289 159.234 62.7869 159.234H63.5249ZM73.9625 145.608V159H87.4625V155.67H78.1565V145.608H73.9625ZM97.3565 145.374C88.8785 145.374 87.9245 149.604 87.9245 151.998V152.538C87.9245 154.896 88.8785 159.234 97.3565 159.234H98.1305C106.572 159.234 107.544 154.896 107.544 152.538V151.998C107.544 149.604 106.554 145.374 98.1305 145.374H97.3565ZM103.152 152.376C103.152 153.924 102.234 155.976 97.7345 155.976C93.1985 155.976 92.3165 153.87 92.3165 152.34V152.124C92.3165 150.594 93.1265 148.614 97.7345 148.614C102.27 148.614 103.152 150.594 103.152 152.124V152.376ZM117.886 159.198C124.744 159.198 126.112 154.626 126.112 152.106V145.608H121.918V151.854C121.918 153.582 121.126 155.724 117.526 155.724C113.872 155.724 113.098 153.582 113.098 151.854V145.608H108.886V152.106C108.886 154.626 110.056 159.198 117.238 159.198H117.886ZM127.998 159H136.89C144.72 159 146.322 155.364 146.322 152.484V151.944C146.322 148.938 144.63 145.608 136.872 145.608H127.998V159ZM132.192 148.776H136.548C141.372 148.776 141.93 150.846 141.93 152.214V152.322C141.93 153.69 141.3 155.778 136.548 155.778H132.192V148.776ZM147.755 159L159.329 159C163.667 159 164.873 157.254 164.873 155.148V154.896C164.873 152.538 162.911 151.764 161.993 151.53C162.641 151.332 164.117 150.666 164.117 148.92V148.668C164.117 147.084 163.055 145.608 159.221 145.608H147.755V159ZM158.501 148.434C159.671 148.434 159.959 148.938 159.959 149.496V149.532C159.959 150.072 159.671 150.612 158.501 150.612H151.949V148.434H158.501ZM158.861 153.456C160.247 153.456 160.517 154.122 160.517 154.698V154.77C160.517 155.31 160.247 156.084 158.861 156.084H151.949V153.456H158.861ZM175.051 159.198C181.909 159.198 183.277 154.626 183.277 152.106V145.608H179.083V151.854C179.083 153.582 178.291 155.724 174.691 155.724C171.037 155.724 170.263 153.582 170.263 151.854V145.608H166.051V152.106C166.051 154.626 167.221 159.198 174.403 159.198H175.051ZM189.356 148.65H195.71C196.934 148.65 197.402 149.244 197.402 149.946V149.964C197.402 150.702 196.916 151.278 195.71 151.278H189.356V148.65ZM189.356 154.248H194.828C196.898 154.248 197.618 154.968 197.618 156.606V158.154C197.618 158.64 197.69 158.838 197.816 159H202.082V158.91C201.956 158.694 201.83 158.352 201.83 157.272V155.31C201.83 153.582 200.66 152.628 199.292 152.232C200.174 151.944 201.776 151.224 201.776 149.298V149.082C201.776 147.156 200.426 145.608 195.962 145.608H185.162V159H189.356V154.248ZM211.866 159.234C218.598 159.234 219.714 156.966 219.714 154.752V154.5C219.714 151.836 217.68 150.612 212.64 150.522L210.39 150.486C207.654 150.432 207.294 149.91 207.294 149.334C207.294 148.758 207.528 148.182 210.768 148.182H211.056C214.566 148.182 214.836 149.28 214.926 149.784H219.282V149.604C219.282 147.588 217.842 145.374 211.506 145.374H210.264C204.162 145.374 202.974 147.462 202.974 149.46V149.622C202.974 151.71 204.504 153.402 209.508 153.546L211.812 153.6C214.908 153.69 215.322 154.176 215.322 154.95C215.322 155.67 214.926 156.372 211.398 156.372H211.146C207.69 156.372 207.222 155.058 207.168 154.248H202.794V154.446C202.794 156.21 203.604 159.234 210.624 159.234H211.866ZM225.978 159H230.208V148.776H235.986V145.608H220.218V148.776H225.978V159ZM247.007 150.288H242.669V153.438H247.007V150.288ZM247.007 155.85H242.669V159H247.007V155.85Z" fill="white"/>
<path fill-rule="evenodd" clip-rule="evenodd" d="M151.907 31C151.907 34.3878 151.947 36.9913 150.279 40.1062L150.5 40.1038C168.449 40.1038 183 54.504 183 72.2678C183 82.9198 177.768 92.3624 169.708 98.2158C167.072 100.725 161.032 104.987 151.586 111C152.18 108.466 151.862 106.276 150.632 104.429L150.5 104.432C132.551 104.432 118 90.0313 118 72.2678C118 59.822 125.143 49.0276 135.592 43.6796C144.069 37.8747 149.506 33.648 151.907 31ZM150.5 53.9742C140.243 53.9742 131.929 62.2029 131.929 72.3536C131.929 74.2656 132.224 76.1091 132.771 77.8424C138.331 81.7587 149.137 79.4316 150.189 67.7589C152.638 77.136 150.928 86.5213 139.132 86.8882C142.273 89.2982 146.217 90.7331 150.5 90.7331C160.757 90.7331 169.071 82.5042 169.071 72.3536C169.071 62.2029 160.757 53.9742 150.5 53.9742Z" fill="#FF4656"/>
</svg>
