<svg width="300" height="240" viewBox="0 0 300 240" fill="none" xmlns="http://www.w3.org/2000/svg">
<path d="M0 0H300V240H0V0Z" fill="#1F2326"/>
<path fill-rule="evenodd" clip-rule="evenodd" d="M151.442 89.0251L160.672 96.4269C161.22 96.866 161.538 97.5305 161.538 98.2331V111L150 101.748L138.462 111V98.2331C138.462 97.5305 138.78 96.866 139.328 96.4269L148.558 89.0251C149.401 88.3493 150.599 88.3493 151.442 89.0251ZM151.544 61.5047L172.313 80.2407C172.799 80.6793 173.077 81.3042 173.077 81.96V94.8084L151.544 75.3831C150.666 74.5916 149.334 74.5916 148.456 75.3831L126.923 94.8084V81.96C126.923 81.3042 127.201 80.6793 127.687 80.2407L148.456 61.5047C149.334 60.7129 150.666 60.7129 151.544 61.5047ZM151.632 31.6775L178.648 58.7571C179.514 59.6247 180 60.8013 180 62.0282V78.6167L170.769 71.6776V65.6964C170.769 65.0829 170.526 64.4944 170.093 64.0607L151.632 45.556C150.731 44.6527 149.269 44.6527 148.368 45.556L129.907 64.0607C129.474 64.4944 129.231 65.0829 129.231 65.6964V71.6776L120 78.6167V62.0282C120 60.8013 120.486 59.6247 121.352 58.7571L148.368 31.6775C149.269 30.7742 150.731 30.7742 151.632 31.6775Z" fill="white"/>
<path d="M71.2239 176H68.6039V183H69.3439V180.79H71.2239C73.0039 180.79 74.0839 179.89 74.0839 178.4C74.0839 176.9 73.0039 176 71.2239 176ZM71.2039 180.14H69.3439V176.64H71.2039C72.6039 176.64 73.3439 177.28 73.3439 178.4C73.3439 179.5 72.6039 180.14 71.2039 180.14ZM77.0772 178.77V177.74H76.3972V183H77.1072V180.32C77.1072 179.08 77.7772 178.38 78.8772 178.38C78.9272 178.38 78.9872 178.39 79.0472 178.39V177.7C78.0772 177.7 77.4072 178.07 77.0772 178.77ZM83.4339 183.05C84.9739 183.05 86.1039 181.93 86.1039 180.37C86.1039 178.81 84.9739 177.7 83.4339 177.7C81.8939 177.7 80.7539 178.81 80.7539 180.37C80.7539 181.93 81.8939 183.05 83.4339 183.05ZM83.4339 182.42C82.3139 182.42 81.4739 181.6 81.4739 180.37C81.4739 179.14 82.3139 178.32 83.4339 178.32C84.5539 178.32 85.3839 179.14 85.3839 180.37C85.3839 181.6 84.5539 182.42 83.4339 182.42ZM91.2635 177.7C90.3935 177.7 89.6635 178.08 89.2335 178.78V177.74H88.5535V184.94H89.2635V182.01C89.7035 182.69 90.4235 183.05 91.2635 183.05C92.7635 183.05 93.8835 181.97 93.8835 180.37C93.8835 178.78 92.7635 177.7 91.2635 177.7ZM91.2135 182.42C90.0935 182.42 89.2535 181.6 89.2535 180.37C89.2535 179.15 90.0935 178.32 91.2135 178.32C92.3235 178.32 93.1735 179.15 93.1735 180.37C93.1735 181.6 92.3235 182.42 91.2135 182.42ZM100.921 180.37C100.921 178.79 99.8508 177.7 98.3708 177.7C96.8908 177.7 95.8008 178.81 95.8008 180.37C95.8008 181.93 96.9208 183.05 98.5608 183.05C99.3908 183.05 100.121 182.75 100.591 182.19L100.191 181.73C99.7908 182.19 99.2208 182.42 98.5808 182.42C97.4308 182.42 96.5908 181.69 96.5108 180.59H100.911C100.911 180.51 100.921 180.43 100.921 180.37ZM98.3708 178.31C99.4008 178.31 100.151 179.03 100.241 180.06H96.5108C96.6008 179.03 97.3508 178.31 98.3708 178.31ZM103.366 183H104.076V175.58H103.366V183ZM108.462 183.05C109.832 183.05 110.632 182.46 110.632 181.55C110.632 179.53 107.222 180.6 107.222 179.18C107.222 178.68 107.642 178.31 108.592 178.31C109.132 178.31 109.682 178.44 110.142 178.76L110.452 178.19C110.012 177.89 109.272 177.7 108.592 177.7C107.252 177.7 106.512 178.34 106.512 179.2C106.512 181.28 109.922 180.2 109.922 181.57C109.922 182.09 109.512 182.43 108.512 182.43C107.772 182.43 107.062 182.17 106.642 181.84L106.322 182.4C106.752 182.77 107.592 183.05 108.462 183.05ZM120.281 177.74L118.301 182.21L116.321 177.74H115.581L117.931 182.99L117.701 183.5C117.401 184.16 117.081 184.38 116.611 184.38C116.231 184.38 115.911 184.24 115.651 183.98L115.321 184.51C115.641 184.83 116.111 184.99 116.601 184.99C117.351 184.99 117.911 184.66 118.351 183.63L120.981 177.74H120.281ZM124.985 183.05C126.525 183.05 127.655 181.93 127.655 180.37C127.655 178.81 126.525 177.7 124.985 177.7C123.445 177.7 122.305 178.81 122.305 180.37C122.305 181.93 123.445 183.05 124.985 183.05ZM124.985 182.42C123.865 182.42 123.025 181.6 123.025 180.37C123.025 179.14 123.865 178.32 124.985 178.32C126.105 178.32 126.935 179.14 126.935 180.37C126.935 181.6 126.105 182.42 124.985 182.42ZM134.134 177.74V180.5C134.134 181.7 133.444 182.41 132.344 182.41C131.344 182.41 130.764 181.84 130.764 180.72V177.74H130.054V180.79C130.054 182.3 130.934 183.05 132.274 183.05C133.114 183.05 133.794 182.68 134.164 182.04V183H134.844V177.74H134.134ZM143.97 182.17C143.77 182.35 143.48 182.44 143.19 182.44C142.6 182.44 142.28 182.1 142.28 181.48V178.34H143.88V177.74H142.28V176.59H141.57V177.74H140.63V178.34H141.57V181.52C141.57 182.49 142.12 183.05 143.11 183.05C143.52 183.05 143.94 182.93 144.22 182.68L143.97 182.17ZM149.192 177.7C148.302 177.7 147.612 178.05 147.222 178.66V175.58H146.512V183H147.222V180.24C147.222 179.04 147.932 178.34 149.062 178.34C150.062 178.34 150.642 178.91 150.642 180.02V183H151.352V179.95C151.352 178.44 150.472 177.7 149.192 177.7ZM154.96 178.77V177.74H154.28V183H154.99V180.32C154.99 179.08 155.66 178.38 156.76 178.38C156.81 178.38 156.87 178.39 156.93 178.39V177.7C155.96 177.7 155.29 178.07 154.96 178.77ZM161.317 183.05C162.857 183.05 163.987 181.93 163.987 180.37C163.987 178.81 162.857 177.7 161.317 177.7C159.777 177.7 158.637 178.81 158.637 180.37C158.637 181.93 159.777 183.05 161.317 183.05ZM161.317 182.42C160.197 182.42 159.357 181.6 159.357 180.37C159.357 179.14 160.197 178.32 161.317 178.32C162.437 178.32 163.267 179.14 163.267 180.37C163.267 181.6 162.437 182.42 161.317 182.42ZM170.466 177.74V180.5C170.466 181.7 169.776 182.41 168.676 182.41C167.676 182.41 167.096 181.84 167.096 180.72V177.74H166.386V180.79C166.386 182.3 167.266 183.05 168.606 183.05C169.446 183.05 170.126 182.68 170.496 182.04V183H171.176V177.74H170.466ZM178.355 177.74V178.75C177.915 178.06 177.155 177.7 176.275 177.7C174.775 177.7 173.635 178.73 173.635 180.24C173.635 181.75 174.775 182.8 176.275 182.8C177.135 182.8 177.885 182.45 178.325 181.78V182.45C178.325 183.75 177.715 184.36 176.385 184.36C175.575 184.36 174.815 184.09 174.315 183.64L173.955 184.18C174.505 184.7 175.445 184.99 176.405 184.99C178.145 184.99 179.035 184.17 179.035 182.36V177.74H178.355ZM176.345 182.17C175.185 182.17 174.355 181.38 174.355 180.24C174.355 179.1 175.185 178.32 176.345 178.32C177.505 178.32 178.345 179.1 178.345 180.24C178.345 181.38 177.505 182.17 176.345 182.17ZM184.7 177.7C183.81 177.7 183.12 178.05 182.73 178.66V175.58H182.02V183H182.73V180.24C182.73 179.04 183.44 178.34 184.57 178.34C185.57 178.34 186.15 178.91 186.15 180.02V183H186.86V179.95C186.86 178.44 185.98 177.7 184.7 177.7ZM195.925 182.17C195.725 182.35 195.435 182.44 195.145 182.44C194.555 182.44 194.235 182.1 194.235 181.48V178.34H195.835V177.74H194.235V176.59H193.525V177.74H192.585V178.34H193.525V181.52C193.525 182.49 194.075 183.05 195.065 183.05C195.475 183.05 195.895 182.93 196.175 182.68L195.925 182.17ZM201.148 177.7C200.258 177.7 199.568 178.05 199.178 178.66V175.58H198.468V183H199.178V180.24C199.178 179.04 199.888 178.34 201.018 178.34C202.018 178.34 202.598 178.91 202.598 180.02V183H203.308V179.95C203.308 178.44 202.428 177.7 201.148 177.7ZM210.845 180.37C210.845 178.79 209.775 177.7 208.295 177.7C206.815 177.7 205.725 178.81 205.725 180.37C205.725 181.93 206.845 183.05 208.485 183.05C209.315 183.05 210.045 182.75 210.515 182.19L210.115 181.73C209.715 182.19 209.145 182.42 208.505 182.42C207.355 182.42 206.515 181.69 206.435 180.59H210.835C210.835 180.51 210.845 180.43 210.845 180.37ZM208.295 178.31C209.325 178.31 210.075 179.03 210.165 180.06H206.435C206.525 179.03 207.275 178.31 208.295 178.31ZM218.747 177.7C217.917 177.7 217.137 177.96 216.607 178.41L216.927 178.94C217.357 178.56 217.997 178.32 218.677 178.32C219.657 178.32 220.167 178.81 220.167 179.71V180.03H218.497C216.987 180.03 216.467 180.71 216.467 181.52C216.467 182.43 217.197 183.05 218.387 183.05C219.257 183.05 219.877 182.72 220.197 182.18V183H220.877V179.74C220.877 178.38 220.107 177.7 218.747 177.7ZM218.497 182.49C217.657 182.49 217.167 182.11 217.167 181.5C217.167 180.96 217.497 180.56 218.517 180.56H220.167V181.42C219.887 182.11 219.297 182.49 218.497 182.49ZM224.165 176.59C224.465 176.59 224.685 176.36 224.685 176.07C224.685 175.8 224.455 175.58 224.165 175.58C223.875 175.58 223.645 175.81 223.645 176.08C223.645 176.36 223.875 176.59 224.165 176.59ZM223.805 183H224.515V177.74H223.805V183ZM228.171 178.77V177.74H227.491V183H228.201V180.32C228.201 179.08 228.871 178.38 229.971 178.38C230.021 178.38 230.081 178.39 230.141 178.39V177.7C229.171 177.7 228.501 178.07 228.171 178.77ZM232.477 183.05C232.767 183.05 233.017 182.81 233.017 182.5C233.017 182.19 232.767 181.96 232.477 181.96C232.187 181.96 231.947 182.19 231.947 182.5C231.947 182.81 232.187 183.05 232.477 183.05Z" fill="white"/>
<path d="M91.2478 159.198C98.1058 159.198 99.4738 154.626 99.4738 152.106V145.608H95.2798V151.854C95.2798 153.582 94.4878 155.724 90.8878 155.724C87.2338 155.724 86.4598 153.582 86.4598 151.854V145.608H82.2478V152.106C82.2478 154.626 83.4178 159.198 90.5998 159.198H91.2478ZM111.403 154.536C116.191 154.536 117.649 152.538 117.649 150.144V149.964C117.649 147.516 116.227 145.608 111.403 145.608H101.359V159H105.553V154.536H111.403ZM105.553 148.65H111.331C112.681 148.65 113.275 149.154 113.275 150.072V150.126C113.275 151.044 112.645 151.53 111.331 151.53H105.553V148.65ZM119.043 159H127.935C135.765 159 137.367 155.364 137.367 152.484V151.944C137.367 148.938 135.675 145.608 127.917 145.608H119.043V159ZM123.237 148.776H127.593C132.417 148.776 132.975 150.846 132.975 152.214V152.322C132.975 153.69 132.345 155.778 127.593 155.778H123.237V148.776ZM142.994 148.65H149.348C150.572 148.65 151.04 149.244 151.04 149.946V149.964C151.04 150.702 150.554 151.278 149.348 151.278H142.994V148.65ZM142.994 154.248H148.466C150.536 154.248 151.256 154.968 151.256 156.606V158.154C151.256 158.64 151.328 158.838 151.454 159H155.72V158.91C155.594 158.694 155.468 158.352 155.468 157.272V155.31C155.468 153.582 154.298 152.628 152.93 152.232C153.812 151.944 155.414 151.224 155.414 149.298V149.082C155.414 147.156 154.064 145.608 149.6 145.608H138.8V159H142.994V154.248ZM168.021 153.528H162.945L165.429 148.506L168.021 153.528ZM170.829 159H175.347L168.183 145.608H162.747L155.979 159H160.245L161.451 156.552H169.569L170.829 159ZM176.084 145.608V159H180.26V153.69H189.692V150.63H180.26V148.65H189.926V145.608H176.084ZM196.931 159H201.161V148.776H206.939V145.608H191.171V148.776H196.931V159ZM217.96 150.288H213.622V153.438H217.96V150.288ZM217.96 155.85H213.622V159H217.96V155.85Z" fill="white"/>
</svg>
