<svg width="300" height="240" viewBox="0 0 300 240" fill="none" xmlns="http://www.w3.org/2000/svg">
<rect width="300" height="240" fill="#1F2326"/>
<path fill-rule="evenodd" clip-rule="evenodd" d="M158.647 57C157.103 63.0953 153.242 66.1429 147.064 66.1429H110C111.544 61.5714 113.861 59.2857 116.949 59.2857H144.748C141.659 56.2382 138.571 54.7143 135.482 54.7143H123.899C125.373 51.8053 128.255 50.2846 132.543 50.1522L134.052 50.1303C140.69 49.9401 146.966 47.5653 144.748 41H156.331L189.264 71.3289C190.199 72.1904 190.25 73.6368 189.377 74.5595C189.341 74.5979 189.303 74.6352 189.264 74.6711L156.331 105H144.748C147.064 98.1429 140.115 95.8571 133.165 95.8571C128.743 95.8571 125.728 94.4688 124.119 91.6919L123.899 91.2857H135.482C138.389 91.2857 141.296 89.936 144.203 87.2363L144.748 86.7143H116.949C113.995 86.7143 111.747 84.6231 110.206 80.4405L110 79.8571H147.064C153.036 79.8571 156.843 82.7049 158.485 88.4007L158.647 89L174.863 73L158.647 57Z" fill="white"/>
<path d="M61.1664 183H64.0164C66.2564 183 67.7664 181.56 67.7664 179.5C67.7664 177.44 66.2564 176 64.0164 176H61.1664V183ZM61.9064 182.36V176.64H63.9764C65.8364 176.64 67.0364 177.82 67.0364 179.5C67.0364 181.18 65.8364 182.36 63.9764 182.36H61.9064ZM72.1181 177.7C71.2881 177.7 70.5081 177.96 69.9781 178.41L70.2981 178.94C70.7281 178.56 71.3681 178.32 72.0481 178.32C73.0281 178.32 73.5381 178.81 73.5381 179.71V180.03H71.8681C70.3581 180.03 69.8381 180.71 69.8381 181.52C69.8381 182.43 70.5681 183.05 71.7581 183.05C72.6281 183.05 73.2481 182.72 73.5681 182.18V183H74.2481V179.74C74.2481 178.38 73.4781 177.7 72.1181 177.7ZM71.8681 182.49C71.0281 182.49 70.5381 182.11 70.5381 181.5C70.5381 180.96 70.8681 180.56 71.8881 180.56H73.5381V181.42C73.2581 182.11 72.6681 182.49 71.8681 182.49ZM78.5865 183.05C79.9565 183.05 80.7565 182.46 80.7565 181.55C80.7565 179.53 77.3465 180.6 77.3465 179.18C77.3465 178.68 77.7665 178.31 78.7165 178.31C79.2565 178.31 79.8065 178.44 80.2665 178.76L80.5765 178.19C80.1365 177.89 79.3965 177.7 78.7165 177.7C77.3765 177.7 76.6365 178.34 76.6365 179.2C76.6365 181.28 80.0465 180.2 80.0465 181.57C80.0465 182.09 79.6365 182.43 78.6365 182.43C77.8965 182.43 77.1865 182.17 76.7665 181.84L76.4465 182.4C76.8765 182.77 77.7165 183.05 78.5865 183.05ZM85.7491 177.7C84.8591 177.7 84.1691 178.05 83.7791 178.66V175.58H83.0691V183H83.7791V180.24C83.7791 179.04 84.4891 178.34 85.6191 178.34C86.6191 178.34 87.1991 178.91 87.1991 180.02V183H87.9091V179.95C87.9091 178.44 87.0291 177.7 85.7491 177.7ZM95.4462 180.37C95.4462 178.79 94.3762 177.7 92.8962 177.7C91.4162 177.7 90.3262 178.81 90.3262 180.37C90.3262 181.93 91.4462 183.05 93.0862 183.05C93.9162 183.05 94.6462 182.75 95.1162 182.19L94.7162 181.73C94.3162 182.19 93.7462 182.42 93.1062 182.42C91.9562 182.42 91.1162 181.69 91.0362 180.59H95.4362C95.4362 180.51 95.4462 180.43 95.4462 180.37ZM92.8962 178.31C93.9262 178.31 94.6762 179.03 94.7662 180.06H91.0362C91.1262 179.03 91.8762 178.31 92.8962 178.31ZM99.3014 183.05C100.671 183.05 101.471 182.46 101.471 181.55C101.471 179.53 98.0614 180.6 98.0614 179.18C98.0614 178.68 98.4814 178.31 99.4314 178.31C99.9714 178.31 100.521 178.44 100.981 178.76L101.291 178.19C100.851 177.89 100.111 177.7 99.4314 177.7C98.0914 177.7 97.3514 178.34 97.3514 179.2C97.3514 181.28 100.761 180.2 100.761 181.57C100.761 182.09 100.351 182.43 99.3514 182.43C98.6114 182.43 97.9014 182.17 97.4814 181.84L97.1614 182.4C97.5914 182.77 98.4314 183.05 99.3014 183.05ZM109.241 177.7C108.411 177.7 107.631 177.96 107.101 178.41L107.421 178.94C107.851 178.56 108.491 178.32 109.171 178.32C110.151 178.32 110.661 178.81 110.661 179.71V180.03H108.991C107.481 180.03 106.961 180.71 106.961 181.52C106.961 182.43 107.691 183.05 108.881 183.05C109.751 183.05 110.371 182.72 110.691 182.18V183H111.371V179.74C111.371 178.38 110.601 177.7 109.241 177.7ZM108.991 182.49C108.151 182.49 107.661 182.11 107.661 181.5C107.661 180.96 107.991 180.56 109.011 180.56H110.661V181.42C110.381 182.11 109.791 182.49 108.991 182.49ZM119.327 183.05C120.697 183.05 121.497 182.46 121.497 181.55C121.497 179.53 118.087 180.6 118.087 179.18C118.087 178.68 118.507 178.31 119.457 178.31C119.997 178.31 120.547 178.44 121.007 178.76L121.317 178.19C120.877 177.89 120.137 177.7 119.457 177.7C118.117 177.7 117.377 178.34 117.377 179.2C117.377 181.28 120.787 180.2 120.787 181.57C120.787 182.09 120.377 182.43 119.377 182.43C118.637 182.43 117.927 182.17 117.507 181.84L117.187 182.4C117.617 182.77 118.457 183.05 119.327 183.05ZM126.489 177.7C125.599 177.7 124.909 178.05 124.519 178.66V175.58H123.809V183H124.519V180.24C124.519 179.04 125.229 178.34 126.359 178.34C127.359 178.34 127.939 178.91 127.939 180.02V183H128.649V179.95C128.649 178.44 127.769 177.7 126.489 177.7ZM133.746 183.05C135.286 183.05 136.416 181.93 136.416 180.37C136.416 178.81 135.286 177.7 133.746 177.7C132.206 177.7 131.066 178.81 131.066 180.37C131.066 181.93 132.206 183.05 133.746 183.05ZM133.746 182.42C132.626 182.42 131.786 181.6 131.786 180.37C131.786 179.14 132.626 178.32 133.746 178.32C134.866 178.32 135.696 179.14 135.696 180.37C135.696 181.6 134.866 182.42 133.746 182.42ZM139.546 178.77V177.74H138.866V183H139.576V180.32C139.576 179.08 140.246 178.38 141.346 178.38C141.396 178.38 141.456 178.39 141.516 178.39V177.7C140.546 177.7 139.876 178.07 139.546 178.77ZM146.546 182.17C146.346 182.35 146.056 182.44 145.766 182.44C145.176 182.44 144.856 182.1 144.856 181.48V178.34H146.456V177.74H144.856V176.59H144.146V177.74H143.206V178.34H144.146V181.52C144.146 182.49 144.696 183.05 145.686 183.05C146.096 183.05 146.516 182.93 146.796 182.68L146.546 182.17ZM156.796 175.58V178.74C156.356 178.06 155.636 177.7 154.796 177.7C153.296 177.7 152.176 178.78 152.176 180.37C152.176 181.96 153.296 183.05 154.796 183.05C155.666 183.05 156.396 182.67 156.826 181.96V183H157.506V175.58H156.796ZM154.856 182.42C153.736 182.42 152.896 181.6 152.896 180.37C152.896 179.14 153.736 178.32 154.856 178.32C155.966 178.32 156.806 179.14 156.806 180.37C156.806 181.6 155.966 182.42 154.856 182.42ZM160.843 176.59C161.143 176.59 161.363 176.36 161.363 176.07C161.363 175.8 161.133 175.58 160.843 175.58C160.553 175.58 160.323 175.81 160.323 176.08C160.323 176.36 160.553 176.59 160.843 176.59ZM160.483 183H161.193V177.74H160.483V183ZM165.579 183.05C166.949 183.05 167.749 182.46 167.749 181.55C167.749 179.53 164.339 180.6 164.339 179.18C164.339 178.68 164.759 178.31 165.709 178.31C166.249 178.31 166.799 178.44 167.259 178.76L167.569 178.19C167.129 177.89 166.389 177.7 165.709 177.7C164.369 177.7 163.629 178.34 163.629 179.2C163.629 181.28 167.039 180.2 167.039 181.57C167.039 182.09 166.629 182.43 165.629 182.43C164.889 182.43 164.179 182.17 163.759 181.84L163.439 182.4C163.869 182.77 164.709 183.05 165.579 183.05ZM172.581 182.17C172.381 182.35 172.091 182.44 171.801 182.44C171.211 182.44 170.891 182.1 170.891 181.48V178.34H172.491V177.74H170.891V176.59H170.181V177.74H169.241V178.34H170.181V181.52C170.181 182.49 170.731 183.05 171.721 183.05C172.131 183.05 172.551 182.93 172.831 182.68L172.581 182.17ZM176.964 177.7C176.134 177.7 175.354 177.96 174.824 178.41L175.144 178.94C175.574 178.56 176.214 178.32 176.894 178.32C177.874 178.32 178.384 178.81 178.384 179.71V180.03H176.714C175.204 180.03 174.684 180.71 174.684 181.52C174.684 182.43 175.414 183.05 176.604 183.05C177.474 183.05 178.094 182.72 178.414 182.18V183H179.094V179.74C179.094 178.38 178.324 177.7 176.964 177.7ZM176.714 182.49C175.874 182.49 175.384 182.11 175.384 181.5C175.384 180.96 175.714 180.56 176.734 180.56H178.384V181.42C178.104 182.11 177.514 182.49 176.714 182.49ZM184.702 177.7C183.792 177.7 183.082 178.07 182.702 178.71V177.74H182.022V183H182.732V180.24C182.732 179.04 183.442 178.34 184.572 178.34C185.572 178.34 186.152 178.91 186.152 180.02V183H186.862V179.95C186.862 178.44 185.982 177.7 184.702 177.7ZM191.989 183.05C192.879 183.05 193.629 182.69 194.049 182.01L193.519 181.65C193.159 182.18 192.599 182.42 191.989 182.42C190.839 182.42 189.999 181.61 189.999 180.37C189.999 179.14 190.839 178.32 191.989 178.32C192.599 178.32 193.159 178.57 193.519 179.1L194.049 178.74C193.629 178.05 192.879 177.7 191.989 177.7C190.419 177.7 189.279 178.8 189.279 180.37C189.279 181.94 190.419 183.05 191.989 183.05ZM200.946 180.37C200.946 178.79 199.876 177.7 198.396 177.7C196.916 177.7 195.826 178.81 195.826 180.37C195.826 181.93 196.946 183.05 198.586 183.05C199.416 183.05 200.146 182.75 200.616 182.19L200.216 181.73C199.816 182.19 199.246 182.42 198.606 182.42C197.456 182.42 196.616 181.69 196.536 180.59H200.936C200.936 180.51 200.946 180.43 200.946 180.37ZM198.396 178.31C199.426 178.31 200.176 179.03 200.266 180.06H196.536C196.626 179.03 197.376 178.31 198.396 178.31ZM207.369 176.59C207.669 176.59 207.889 176.36 207.889 176.07C207.889 175.8 207.659 175.58 207.369 175.58C207.079 175.58 206.849 175.81 206.849 176.08C206.849 176.36 207.079 176.59 207.369 176.59ZM207.009 183H207.719V177.74H207.009V183ZM213.374 177.7C212.464 177.7 211.754 178.07 211.374 178.71V177.74H210.694V183H211.404V180.24C211.404 179.04 212.114 178.34 213.244 178.34C214.244 178.34 214.824 178.91 214.824 180.02V183H215.534V179.95C215.534 178.44 214.654 177.7 213.374 177.7ZM224.599 182.17C224.399 182.35 224.109 182.44 223.819 182.44C223.229 182.44 222.909 182.1 222.909 181.48V178.34H224.509V177.74H222.909V176.59H222.199V177.74H221.259V178.34H222.199V181.52C222.199 182.49 222.749 183.05 223.739 183.05C224.149 183.05 224.569 182.93 224.849 182.68L224.599 182.17ZM229.821 177.7C228.931 177.7 228.241 178.05 227.851 178.66V175.58H227.141V183H227.851V180.24C227.851 179.04 228.561 178.34 229.691 178.34C230.691 178.34 231.271 178.91 231.271 180.02V183H231.981V179.95C231.981 178.44 231.101 177.7 229.821 177.7ZM239.518 180.37C239.518 178.79 238.448 177.7 236.968 177.7C235.488 177.7 234.398 178.81 234.398 180.37C234.398 181.93 235.518 183.05 237.158 183.05C237.988 183.05 238.718 182.75 239.188 182.19L238.788 181.73C238.388 182.19 237.818 182.42 237.178 182.42C236.028 182.42 235.188 181.69 235.108 180.59H239.508C239.508 180.51 239.518 180.43 239.518 180.37ZM236.968 178.31C237.998 178.31 238.748 179.03 238.838 180.06H235.108C235.198 179.03 235.948 178.31 236.968 178.31ZM81.4755 187.58V190.74C81.0355 190.06 80.3155 189.7 79.4755 189.7C77.9755 189.7 76.8555 190.78 76.8555 192.37C76.8555 193.96 77.9755 195.05 79.4755 195.05C80.3455 195.05 81.0755 194.67 81.5055 193.96V195H82.1855V187.58H81.4755ZM79.5355 194.42C78.4155 194.42 77.5755 193.6 77.5755 192.37C77.5755 191.14 78.4155 190.32 79.5355 190.32C80.6455 190.32 81.4855 191.14 81.4855 192.37C81.4855 193.6 80.6455 194.42 79.5355 194.42ZM85.5229 188.59C85.8229 188.59 86.0429 188.36 86.0429 188.07C86.0429 187.8 85.8129 187.58 85.5229 187.58C85.2329 187.58 85.0029 187.81 85.0029 188.08C85.0029 188.36 85.2329 188.59 85.5229 188.59ZM85.1629 195H85.8729V189.74H85.1629V195ZM89.5284 190.77V189.74H88.8484V195H89.5584V192.32C89.5584 191.08 90.2284 190.38 91.3284 190.38C91.3784 190.38 91.4384 190.39 91.4984 190.39V189.7C90.5284 189.7 89.8584 190.07 89.5284 190.77ZM98.3251 192.37C98.3251 190.79 97.2551 189.7 95.7751 189.7C94.2951 189.7 93.2051 190.81 93.2051 192.37C93.2051 193.93 94.3251 195.05 95.9651 195.05C96.7951 195.05 97.5251 194.75 97.9951 194.19L97.5951 193.73C97.1951 194.19 96.6251 194.42 95.9851 194.42C94.8351 194.42 93.9951 193.69 93.9151 192.59H98.3151C98.3151 192.51 98.3251 192.43 98.3251 192.37ZM95.7751 190.31C96.8051 190.31 97.5551 191.03 97.6451 192.06H93.9151C94.0051 191.03 94.7551 190.31 95.7751 190.31ZM102.95 195.05C103.84 195.05 104.59 194.69 105.01 194.01L104.48 193.65C104.12 194.18 103.56 194.42 102.95 194.42C101.8 194.42 100.96 193.61 100.96 192.37C100.96 191.14 101.8 190.32 102.95 190.32C103.56 190.32 104.12 190.57 104.48 191.1L105.01 190.74C104.59 190.05 103.84 189.7 102.95 189.7C101.38 189.7 100.24 190.8 100.24 192.37C100.24 193.94 101.38 195.05 102.95 195.05ZM109.984 194.17C109.784 194.35 109.494 194.44 109.204 194.44C108.614 194.44 108.294 194.1 108.294 193.48V190.34H109.894V189.74H108.294V188.59H107.584V189.74H106.644V190.34H107.584V193.52C107.584 194.49 108.134 195.05 109.124 195.05C109.534 195.05 109.954 194.93 110.234 194.68L109.984 194.17ZM112.886 188.59C113.186 188.59 113.406 188.36 113.406 188.07C113.406 187.8 113.176 187.58 112.886 187.58C112.596 187.58 112.366 187.81 112.366 188.08C112.366 188.36 112.596 188.59 112.886 188.59ZM112.526 195H113.236V189.74H112.526V195ZM118.362 195.05C119.902 195.05 121.032 193.93 121.032 192.37C121.032 190.81 119.902 189.7 118.362 189.7C116.822 189.7 115.682 190.81 115.682 192.37C115.682 193.93 116.822 195.05 118.362 195.05ZM118.362 194.42C117.242 194.42 116.402 193.6 116.402 192.37C116.402 191.14 117.242 190.32 118.362 190.32C119.482 190.32 120.312 191.14 120.312 192.37C120.312 193.6 119.482 194.42 118.362 194.42ZM126.161 189.7C125.251 189.7 124.541 190.07 124.161 190.71V189.74H123.481V195H124.191V192.24C124.191 191.04 124.901 190.34 126.031 190.34C127.031 190.34 127.611 190.91 127.611 192.02V195H128.321V191.95C128.321 190.44 127.441 189.7 126.161 189.7ZM138.586 189.74L136.606 194.21L134.626 189.74H133.886L136.236 194.99L136.006 195.5C135.706 196.16 135.386 196.38 134.916 196.38C134.536 196.38 134.216 196.24 133.956 195.98L133.626 196.51C133.946 196.83 134.416 196.99 134.906 196.99C135.656 196.99 136.216 196.66 136.656 195.63L139.286 189.74H138.586ZM143.289 195.05C144.829 195.05 145.959 193.93 145.959 192.37C145.959 190.81 144.829 189.7 143.289 189.7C141.749 189.7 140.609 190.81 140.609 192.37C140.609 193.93 141.749 195.05 143.289 195.05ZM143.289 194.42C142.169 194.42 141.329 193.6 141.329 192.37C141.329 191.14 142.169 190.32 143.289 190.32C144.409 190.32 145.239 191.14 145.239 192.37C145.239 193.6 144.409 194.42 143.289 194.42ZM152.439 189.74V192.5C152.439 193.7 151.749 194.41 150.649 194.41C149.649 194.41 149.069 193.84 149.069 192.72V189.74H148.359V192.79C148.359 194.3 149.239 195.05 150.579 195.05C151.419 195.05 152.099 194.68 152.469 194.04V195H153.149V189.74H152.439ZM166.825 189.74L165.155 194.21L163.475 189.74H162.865L161.175 194.21L159.525 189.74H158.845L160.825 195H161.495L163.155 190.69L164.815 195H165.485L167.475 189.74H166.825ZM171.227 189.7C170.397 189.7 169.617 189.96 169.087 190.41L169.407 190.94C169.837 190.56 170.477 190.32 171.157 190.32C172.137 190.32 172.647 190.81 172.647 191.71V192.03H170.977C169.467 192.03 168.947 192.71 168.947 193.52C168.947 194.43 169.677 195.05 170.867 195.05C171.737 195.05 172.357 194.72 172.677 194.18V195H173.357V191.74C173.357 190.38 172.587 189.7 171.227 189.7ZM170.977 194.49C170.137 194.49 169.647 194.11 169.647 193.5C169.647 192.96 169.977 192.56 170.997 192.56H172.647V193.42C172.367 194.11 171.777 194.49 170.977 194.49ZM178.966 189.7C178.056 189.7 177.346 190.07 176.966 190.71V189.74H176.286V195H176.996V192.24C176.996 191.04 177.706 190.34 178.836 190.34C179.836 190.34 180.416 190.91 180.416 192.02V195H181.126V191.95C181.126 190.44 180.246 189.7 178.966 189.7ZM186.573 194.17C186.373 194.35 186.083 194.44 185.793 194.44C185.203 194.44 184.883 194.1 184.883 193.48V190.34H186.483V189.74H184.883V188.59H184.173V189.74H183.233V190.34H184.173V193.52C184.173 194.49 184.723 195.05 185.713 195.05C186.123 195.05 186.543 194.93 186.823 194.68L186.573 194.17ZM195.253 194.17C195.053 194.35 194.763 194.44 194.473 194.44C193.883 194.44 193.563 194.1 193.563 193.48V190.34H195.163V189.74H193.563V188.59H192.853V189.74H191.913V190.34H192.853V193.52C192.853 194.49 193.403 195.05 194.393 195.05C194.803 195.05 195.223 194.93 195.503 194.68L195.253 194.17ZM199.76 195.05C201.3 195.05 202.43 193.93 202.43 192.37C202.43 190.81 201.3 189.7 199.76 189.7C198.22 189.7 197.08 190.81 197.08 192.37C197.08 193.93 198.22 195.05 199.76 195.05ZM199.76 194.42C198.64 194.42 197.8 193.6 197.8 192.37C197.8 191.14 198.64 190.32 199.76 190.32C200.88 190.32 201.71 191.14 201.71 192.37C201.71 193.6 200.88 194.42 199.76 194.42ZM212.687 189.74V190.75C212.247 190.06 211.487 189.7 210.607 189.7C209.107 189.7 207.967 190.73 207.967 192.24C207.967 193.75 209.107 194.8 210.607 194.8C211.467 194.8 212.217 194.45 212.657 193.78V194.45C212.657 195.75 212.047 196.36 210.717 196.36C209.907 196.36 209.147 196.09 208.647 195.64L208.287 196.18C208.837 196.7 209.777 196.99 210.737 196.99C212.477 196.99 213.367 196.17 213.367 194.36V189.74H212.687ZM210.677 194.17C209.517 194.17 208.687 193.38 208.687 192.24C208.687 191.1 209.517 190.32 210.677 190.32C211.837 190.32 212.677 191.1 212.677 192.24C212.677 193.38 211.837 194.17 210.677 194.17ZM218.502 195.05C220.042 195.05 221.172 193.93 221.172 192.37C221.172 190.81 220.042 189.7 218.502 189.7C216.962 189.7 215.822 190.81 215.822 192.37C215.822 193.93 216.962 195.05 218.502 195.05ZM218.502 194.42C217.382 194.42 216.542 193.6 216.542 192.37C216.542 191.14 217.382 190.32 218.502 190.32C219.622 190.32 220.452 191.14 220.452 192.37C220.452 193.6 219.622 194.42 218.502 194.42ZM223.545 195.05C223.835 195.05 224.085 194.81 224.085 194.5C224.085 194.19 223.835 193.96 223.545 193.96C223.255 193.96 223.015 194.19 223.015 194.5C223.015 194.81 223.255 195.05 223.545 195.05Z" fill="white"/>
<path d="M89.2738 159H93.5038V148.776H99.2818V145.608H83.5138V148.776H89.2738V159ZM108.967 153.528H103.891L106.375 148.506L108.967 153.528ZM111.775 159H116.293L109.129 145.608H103.693L96.9249 159H101.191L102.397 156.552H110.515L111.775 159ZM121.224 145.608H117.03V159H121.224V145.608ZM123.27 145.608V159H136.77V155.67H127.464V145.608H123.27ZM144.695 159L147.737 150.036L150.959 159H155.189L160.607 145.608H156.485L153.101 154.554L150.041 145.608H145.577L142.589 154.824L139.133 145.608H134.561L140.069 159H144.695ZM165.609 145.608H161.415V159H165.609V145.608ZM167.655 145.608V159H171.795V150.126L180.885 159L185.025 159V145.608H180.885V154.032L172.335 145.608H167.655ZM187.079 159H195.971C203.801 159 205.403 155.364 205.403 152.484V151.944C205.403 148.938 203.711 145.608 195.953 145.608H187.079V159ZM191.273 148.776H195.629C200.453 148.776 201.011 150.846 201.011 152.214V152.322C201.011 153.69 200.381 155.778 195.629 155.778H191.273V148.776ZM216.334 150.288H211.996V153.438H216.334V150.288ZM216.334 155.85H211.996V159H216.334V155.85Z" fill="white"/>
</svg>
