<svg width="300" height="240" viewBox="0 0 300 240" fill="none" xmlns="http://www.w3.org/2000/svg">
<rect width="300" height="240" fill="#1F2326"/>
<path fill-rule="evenodd" clip-rule="evenodd" d="M150 31L150.334 31.8023C153.755 40.239 156.108 52.9673 157.392 69.9869L157.51 71.5952L152.152 78.3634V81.2589C153.471 81.2589 157.51 84.0657 157.51 88.3913C157.51 92.5287 154.845 94.585 153.876 94.7559L153.755 94.7675V109.101C153.755 110.196 152.664 110.821 150.484 110.974L150 111C147.497 110.908 146.245 110.275 146.245 109.101V94.7675C145.403 94.7675 142.49 92.7169 142.49 88.3913C142.49 84.0657 146.529 81.2589 147.848 81.2589V78.3634L142.49 71.5952C143.786 53.2099 146.289 39.6781 150 31ZM114.029 43.3665L114.574 43.8979C119.675 48.9789 125.212 57.4766 131.186 69.3908L131.828 70.6802L129.689 77.295L130.545 79.4102C131.563 78.999 135.514 79.7901 136.792 82.9501C138.07 86.1098 136.426 88.5161 135.775 88.7787C138.745 96.1198 140.403 100.219 140.75 101.076C141.072 101.872 140.422 102.664 138.801 103.452L138.41 103.633C136.448 104.346 135.294 104.274 134.947 103.417L129.973 91.12C129.322 91.3825 126.466 90.7925 125.187 87.6327C123.909 84.4727 126.2 81.1634 127.219 80.7522L126.363 78.6368L120.223 75.3629C115.791 61.5285 113.726 50.863 114.029 43.3665ZM185.971 43.3665C186.274 50.863 184.209 61.5285 179.777 75.3629L173.637 78.6368L172.781 80.7522C173.8 81.1634 176.091 84.4727 174.813 87.6327C173.534 90.7925 170.678 91.3825 170.027 91.12L165.053 103.417C164.706 104.274 163.552 104.346 161.59 103.633L161.199 103.452C159.578 102.664 158.928 101.872 159.25 101.076C159.597 100.219 161.255 96.1198 164.225 88.7787C163.574 88.5161 161.93 86.1098 163.208 82.9501C164.486 79.7901 168.437 78.999 169.455 79.4102L170.311 77.295L168.172 70.6802L168.814 69.3908C174.788 57.4766 180.325 48.9789 185.426 43.8979L185.971 43.3665ZM150 84.7501C147.926 84.7501 146.245 86.4291 146.245 88.5001C146.245 90.5712 147.926 92.2502 150 92.2502C152.074 92.2502 153.755 90.5712 153.755 88.5001C153.755 86.4291 152.074 84.7501 150 84.7501ZM129.913 82.6315C128.311 83.2781 127.508 85.0286 128.121 86.5416C128.733 88.0545 130.528 88.7569 132.13 88.1103C133.732 87.4638 134.535 85.7132 133.923 84.2002C133.311 82.6873 131.516 81.985 129.913 82.6315ZM170.087 82.6315C168.484 81.985 166.689 82.6873 166.077 84.2002C165.465 85.7132 166.268 87.4638 167.87 88.1103C169.472 88.7569 171.267 88.0545 171.879 86.5416C172.492 85.0286 171.689 83.2781 170.087 82.6315Z" fill="white"/>
<path d="M47.5126 183H48.2926L45.0926 176H44.3626L41.1626 183H41.9326L42.7726 181.13H46.6726L47.5126 183ZM43.0426 180.53L44.7226 176.77L46.4026 180.53H43.0426ZM54.2329 177.74V180.5C54.2329 181.7 53.5429 182.41 52.4429 182.41C51.4429 182.41 50.8629 181.84 50.8629 180.72V177.74H50.1529V180.79C50.1529 182.3 51.0329 183.05 52.3729 183.05C53.2129 183.05 53.8929 182.68 54.2629 182.04V183H54.9429V177.74H54.2329ZM60.4514 182.17C60.2514 182.35 59.9614 182.44 59.6714 182.44C59.0814 182.44 58.7614 182.1 58.7614 181.48V178.34H60.3614V177.74H58.7614V176.59H58.0514V177.74H57.1114V178.34H58.0514V181.52C58.0514 182.49 58.6014 183.05 59.5914 183.05C60.0014 183.05 60.4214 182.93 60.7014 182.68L60.4514 182.17ZM64.9584 183.05C66.4984 183.05 67.6284 181.93 67.6284 180.37C67.6284 178.81 66.4984 177.7 64.9584 177.7C63.4184 177.7 62.2784 178.81 62.2784 180.37C62.2784 181.93 63.4184 183.05 64.9584 183.05ZM64.9584 182.42C63.8384 182.42 62.9984 181.6 62.9984 180.37C62.9984 179.14 63.8384 178.32 64.9584 178.32C66.0784 178.32 66.9084 179.14 66.9084 180.37C66.9084 181.6 66.0784 182.42 64.9584 182.42ZM76.6379 177.7C75.6879 177.7 74.9379 178.13 74.5579 178.81C74.2379 178.07 73.5579 177.7 72.6879 177.7C71.8079 177.7 71.1279 178.07 70.7579 178.7V177.74H70.0779V183H70.7879V180.24C70.7879 179.04 71.4779 178.34 72.5479 178.34C73.5079 178.34 74.0679 178.91 74.0679 180.02V183H74.7779V180.24C74.7779 179.04 75.4579 178.34 76.5379 178.34C77.4879 178.34 78.0479 178.91 78.0479 180.02V183H78.7579V179.95C78.7579 178.44 77.9179 177.7 76.6379 177.7ZM83.5234 177.7C82.6934 177.7 81.9134 177.96 81.3834 178.41L81.7034 178.94C82.1334 178.56 82.7734 178.32 83.4534 178.32C84.4334 178.32 84.9434 178.81 84.9434 179.71V180.03H83.2734C81.7634 180.03 81.2434 180.71 81.2434 181.52C81.2434 182.43 81.9734 183.05 83.1634 183.05C84.0334 183.05 84.6534 182.72 84.9734 182.18V183H85.6534V179.74C85.6534 178.38 84.8834 177.7 83.5234 177.7ZM83.2734 182.49C82.4334 182.49 81.9434 182.11 81.9434 181.5C81.9434 180.96 82.2734 180.56 83.2934 180.56H84.9434V181.42C84.6634 182.11 84.0734 182.49 83.2734 182.49ZM91.1018 182.17C90.9018 182.35 90.6118 182.44 90.3218 182.44C89.7318 182.44 89.4118 182.1 89.4118 181.48V178.34H91.0118V177.74H89.4118V176.59H88.7018V177.74H87.7618V178.34H88.7018V181.52C88.7018 182.49 89.2518 183.05 90.2418 183.05C90.6518 183.05 91.0718 182.93 91.3518 182.68L91.1018 182.17ZM94.0043 176.59C94.3043 176.59 94.5243 176.36 94.5243 176.07C94.5243 175.8 94.2943 175.58 94.0043 175.58C93.7143 175.58 93.4843 175.81 93.4843 176.08C93.4843 176.36 93.7143 176.59 94.0043 176.59ZM93.6443 183H94.3543V177.74H93.6443V183ZM99.5098 183.05C100.4 183.05 101.15 182.69 101.57 182.01L101.04 181.65C100.68 182.18 100.12 182.42 99.5098 182.42C98.3598 182.42 97.5198 181.61 97.5198 180.37C97.5198 179.14 98.3598 178.32 99.5098 178.32C100.12 178.32 100.68 178.57 101.04 179.1L101.57 178.74C101.15 178.05 100.4 177.7 99.5098 177.7C97.9398 177.7 96.7998 178.8 96.7998 180.37C96.7998 181.94 97.9398 183.05 99.5098 183.05ZM105.805 177.7C104.975 177.7 104.195 177.96 103.665 178.41L103.985 178.94C104.415 178.56 105.055 178.32 105.735 178.32C106.715 178.32 107.225 178.81 107.225 179.71V180.03H105.555C104.045 180.03 103.525 180.71 103.525 181.52C103.525 182.43 104.255 183.05 105.445 183.05C106.315 183.05 106.935 182.72 107.255 182.18V183H107.935V179.74C107.935 178.38 107.165 177.7 105.805 177.7ZM105.555 182.49C104.715 182.49 104.225 182.11 104.225 181.5C104.225 180.96 104.555 180.56 105.575 180.56H107.225V181.42C106.945 182.11 106.355 182.49 105.555 182.49ZM110.863 183H111.573V175.58H110.863V183ZM114.549 183H115.259V175.58H114.549V183ZM121.954 177.74L119.974 182.21L117.994 177.74H117.254L119.604 182.99L119.374 183.5C119.074 184.16 118.754 184.38 118.284 184.38C117.904 184.38 117.584 184.24 117.324 183.98L116.994 184.51C117.314 184.83 117.784 184.99 118.274 184.99C119.024 184.99 119.584 184.66 120.024 183.63L122.654 177.74H121.954ZM132.861 180.37C132.861 178.79 131.791 177.7 130.311 177.7C128.831 177.7 127.741 178.81 127.741 180.37C127.741 181.93 128.861 183.05 130.501 183.05C131.331 183.05 132.061 182.75 132.531 182.19L132.131 181.73C131.731 182.19 131.161 182.42 130.521 182.42C129.371 182.42 128.531 181.69 128.451 180.59H132.851C132.851 180.51 132.861 180.43 132.861 180.37ZM130.311 178.31C131.341 178.31 132.091 179.03 132.181 180.06H128.451C128.541 179.03 129.291 178.31 130.311 178.31ZM139.426 177.74V178.78C138.996 178.08 138.266 177.7 137.396 177.7C135.896 177.7 134.776 178.78 134.776 180.37C134.776 181.97 135.896 183.05 137.396 183.05C138.236 183.05 138.956 182.69 139.396 182.01V184.94H140.106V177.74H139.426ZM137.456 182.42C136.336 182.42 135.496 181.6 135.496 180.37C135.496 179.15 136.336 178.32 137.456 178.32C138.566 178.32 139.406 179.15 139.406 180.37C139.406 181.6 138.566 182.42 137.456 182.42ZM147.114 177.74V180.5C147.114 181.7 146.424 182.41 145.324 182.41C144.324 182.41 143.744 181.84 143.744 180.72V177.74H143.034V180.79C143.034 182.3 143.914 183.05 145.254 183.05C146.094 183.05 146.774 182.68 147.144 182.04V183H147.824V177.74H147.114ZM151.172 176.59C151.472 176.59 151.692 176.36 151.692 176.07C151.692 175.8 151.462 175.58 151.172 175.58C150.882 175.58 150.652 175.81 150.652 176.08C150.652 176.36 150.882 176.59 151.172 176.59ZM150.812 183H151.522V177.74H150.812V183ZM157.208 177.7C156.338 177.7 155.608 178.08 155.178 178.78V177.74H154.498V184.94H155.208V182.01C155.648 182.69 156.368 183.05 157.208 183.05C158.708 183.05 159.828 181.97 159.828 180.37C159.828 178.78 158.708 177.7 157.208 177.7ZM157.158 182.42C156.038 182.42 155.198 181.6 155.198 180.37C155.198 179.15 156.038 178.32 157.158 178.32C158.268 178.32 159.118 179.15 159.118 180.37C159.118 181.6 158.268 182.42 157.158 182.42ZM163.685 183.05C165.055 183.05 165.855 182.46 165.855 181.55C165.855 179.53 162.445 180.6 162.445 179.18C162.445 178.68 162.865 178.31 163.815 178.31C164.355 178.31 164.905 178.44 165.365 178.76L165.675 178.19C165.235 177.89 164.495 177.7 163.815 177.7C162.475 177.7 161.735 178.34 161.735 179.2C161.735 181.28 165.145 180.2 165.145 181.57C165.145 182.09 164.735 182.43 163.735 182.43C162.995 182.43 162.285 182.17 161.865 181.84L161.545 182.4C161.975 182.77 162.815 183.05 163.685 183.05ZM174.305 182.17C174.105 182.35 173.815 182.44 173.525 182.44C172.935 182.44 172.615 182.1 172.615 181.48V178.34H174.215V177.74H172.615V176.59H171.905V177.74H170.965V178.34H171.905V181.52C171.905 182.49 172.455 183.05 173.445 183.05C173.855 183.05 174.275 182.93 174.555 182.68L174.305 182.17ZM179.527 177.7C178.637 177.7 177.947 178.05 177.557 178.66V175.58H176.847V183H177.557V180.24C177.557 179.04 178.267 178.34 179.397 178.34C180.397 178.34 180.977 178.91 180.977 180.02V183H181.687V179.95C181.687 178.44 180.807 177.7 179.527 177.7ZM189.225 180.37C189.225 178.79 188.155 177.7 186.675 177.7C185.195 177.7 184.105 178.81 184.105 180.37C184.105 181.93 185.225 183.05 186.865 183.05C187.695 183.05 188.425 182.75 188.895 182.19L188.495 181.73C188.095 182.19 187.525 182.42 186.885 182.42C185.735 182.42 184.895 181.69 184.815 180.59H189.215C189.215 180.51 189.225 180.43 189.225 180.37ZM186.675 178.31C187.705 178.31 188.455 179.03 188.545 180.06H184.815C184.905 179.03 185.655 178.31 186.675 178.31ZM197.127 177.7C196.297 177.7 195.517 177.96 194.987 178.41L195.307 178.94C195.737 178.56 196.377 178.32 197.057 178.32C198.037 178.32 198.547 178.81 198.547 179.71V180.03H196.877C195.367 180.03 194.847 180.71 194.847 181.52C194.847 182.43 195.577 183.05 196.767 183.05C197.637 183.05 198.257 182.72 198.577 182.18V183H199.257V179.74C199.257 178.38 198.487 177.7 197.127 177.7ZM196.877 182.49C196.037 182.49 195.547 182.11 195.547 181.5C195.547 180.96 195.877 180.56 196.897 180.56H198.547V181.42C198.267 182.11 197.677 182.49 196.877 182.49ZM206.395 177.74V178.75C205.955 178.06 205.195 177.7 204.315 177.7C202.815 177.7 201.675 178.73 201.675 180.24C201.675 181.75 202.815 182.8 204.315 182.8C205.175 182.8 205.925 182.45 206.365 181.78V182.45C206.365 183.75 205.755 184.36 204.425 184.36C203.615 184.36 202.855 184.09 202.355 183.64L201.995 184.18C202.545 184.7 203.485 184.99 204.445 184.99C206.185 184.99 207.075 184.17 207.075 182.36V177.74H206.395ZM204.385 182.17C203.225 182.17 202.395 181.38 202.395 180.24C202.395 179.1 203.225 178.32 204.385 178.32C205.545 178.32 206.385 179.1 206.385 180.24C206.385 181.38 205.545 182.17 204.385 182.17ZM214.65 180.37C214.65 178.79 213.58 177.7 212.1 177.7C210.62 177.7 209.53 178.81 209.53 180.37C209.53 181.93 210.65 183.05 212.29 183.05C213.12 183.05 213.85 182.75 214.32 182.19L213.92 181.73C213.52 182.19 212.95 182.42 212.31 182.42C211.16 182.42 210.32 181.69 210.24 180.59H214.64C214.64 180.51 214.65 180.43 214.65 180.37ZM212.1 178.31C213.13 178.31 213.88 179.03 213.97 180.06H210.24C210.33 179.03 211.08 178.31 212.1 178.31ZM219.775 177.7C218.865 177.7 218.155 178.07 217.775 178.71V177.74H217.095V183H217.805V180.24C217.805 179.04 218.515 178.34 219.645 178.34C220.645 178.34 221.225 178.91 221.225 180.02V183H221.935V179.95C221.935 178.44 221.055 177.7 219.775 177.7ZM227.383 182.17C227.183 182.35 226.893 182.44 226.603 182.44C226.013 182.44 225.693 182.1 225.693 181.48V178.34H227.293V177.74H225.693V176.59H224.983V177.74H224.043V178.34H224.983V181.52C224.983 182.49 225.533 183.05 226.523 183.05C226.933 183.05 227.353 182.93 227.633 182.68L227.383 182.17ZM240.613 177.74L238.943 182.21L237.263 177.74H236.653L234.963 182.21L233.313 177.74H232.633L234.613 183H235.283L236.943 178.69L238.603 183H239.273L241.263 177.74H240.613ZM243.692 176.59C243.992 176.59 244.212 176.36 244.212 176.07C244.212 175.8 243.982 175.58 243.692 175.58C243.402 175.58 243.172 175.81 243.172 176.08C243.172 176.36 243.402 176.59 243.692 176.59ZM243.332 183H244.042V177.74H243.332V183ZM249.537 182.17C249.337 182.35 249.047 182.44 248.757 182.44C248.167 182.44 247.847 182.1 247.847 181.48V178.34H249.447V177.74H247.847V176.59H247.137V177.74H246.197V178.34H247.137V181.52C247.137 182.49 247.687 183.05 248.677 183.05C249.087 183.05 249.507 182.93 249.787 182.68L249.537 182.17ZM254.76 177.7C253.87 177.7 253.18 178.05 252.79 178.66V175.58H252.08V183H252.79V180.24C252.79 179.04 253.5 178.34 254.63 178.34C255.63 178.34 256.21 178.91 256.21 180.02V183H256.92V179.95C256.92 178.44 256.04 177.7 254.76 177.7ZM36.2676 189.74L34.2776 194.22L32.3076 189.74H31.5676L33.8976 195H34.6276L36.9676 189.74H36.2676ZM40.6513 189.7C39.8213 189.7 39.0413 189.96 38.5113 190.41L38.8313 190.94C39.2613 190.56 39.9013 190.32 40.5813 190.32C41.5613 190.32 42.0713 190.81 42.0713 191.71V192.03H40.4013C38.8913 192.03 38.3713 192.71 38.3713 193.52C38.3713 194.43 39.1013 195.05 40.2913 195.05C41.1613 195.05 41.7813 194.72 42.1013 194.18V195H42.7813V191.74C42.7813 190.38 42.0113 189.7 40.6513 189.7ZM40.4013 194.49C39.5613 194.49 39.0713 194.11 39.0713 193.5C39.0713 192.96 39.4013 192.56 40.4213 192.56H42.0713V193.42C41.7913 194.11 41.2013 194.49 40.4013 194.49ZM46.3897 190.77V189.74H45.7097V195H46.4197V192.32C46.4197 191.08 47.0897 190.38 48.1897 190.38C48.2397 190.38 48.2997 190.39 48.3597 190.39V189.7C47.3897 189.7 46.7197 190.07 46.3897 190.77ZM51.0053 188.59C51.3053 188.59 51.5253 188.36 51.5253 188.07C51.5253 187.8 51.2953 187.58 51.0053 187.58C50.7153 187.58 50.4853 187.81 50.4853 188.08C50.4853 188.36 50.7153 188.59 51.0053 188.59ZM50.6453 195H51.3553V189.74H50.6453V195ZM56.4808 195.05C58.0208 195.05 59.1508 193.93 59.1508 192.37C59.1508 190.81 58.0208 189.7 56.4808 189.7C54.9408 189.7 53.8008 190.81 53.8008 192.37C53.8008 193.93 54.9408 195.05 56.4808 195.05ZM56.4808 194.42C55.3608 194.42 54.5208 193.6 54.5208 192.37C54.5208 191.14 55.3608 190.32 56.4808 190.32C57.6008 190.32 58.4308 191.14 58.4308 192.37C58.4308 193.6 57.6008 194.42 56.4808 194.42ZM65.6304 189.74V192.5C65.6304 193.7 64.9404 194.41 63.8404 194.41C62.8404 194.41 62.2604 193.84 62.2604 192.72V189.74H61.5504V192.79C61.5504 194.3 62.4304 195.05 63.7704 195.05C64.6104 195.05 65.2904 194.68 65.6604 194.04V195H66.3404V189.74H65.6304ZM70.7389 195.05C72.1089 195.05 72.9089 194.46 72.9089 193.55C72.9089 191.53 69.4989 192.6 69.4989 191.18C69.4989 190.68 69.9189 190.31 70.8689 190.31C71.4089 190.31 71.9589 190.44 72.4189 190.76L72.7289 190.19C72.2889 189.89 71.5489 189.7 70.8689 189.7C69.5289 189.7 68.7889 190.34 68.7889 191.2C68.7889 193.28 72.1989 192.2 72.1989 193.57C72.1989 194.09 71.7889 194.43 70.7889 194.43C70.0489 194.43 69.3389 194.17 68.9189 193.84L68.5989 194.4C69.0289 194.77 69.8689 195.05 70.7389 195.05ZM81.3586 194.17C81.1586 194.35 80.8686 194.44 80.5786 194.44C79.9886 194.44 79.6686 194.1 79.6686 193.48V190.34H81.2686V189.74H79.6686V188.59H78.9586V189.74H78.0186V190.34H78.9586V193.52C78.9586 194.49 79.5086 195.05 80.4986 195.05C80.9086 195.05 81.3286 194.93 81.6086 194.68L81.3586 194.17ZM86.5811 189.7C85.6911 189.7 85.0011 190.05 84.6111 190.66V187.58H83.9011V195H84.6111V192.24C84.6111 191.04 85.3211 190.34 86.4511 190.34C87.4511 190.34 88.0311 190.91 88.0311 192.02V195H88.7411V191.95C88.7411 190.44 87.8611 189.7 86.5811 189.7ZM92.3487 190.77V189.74H91.6687V195H92.3787V192.32C92.3787 191.08 93.0487 190.38 94.1487 190.38C94.1987 190.38 94.2587 190.39 94.3187 190.39V189.7C93.3487 189.7 92.6787 190.07 92.3487 190.77ZM98.7054 195.05C100.245 195.05 101.375 193.93 101.375 192.37C101.375 190.81 100.245 189.7 98.7054 189.7C97.1654 189.7 96.0254 190.81 96.0254 192.37C96.0254 193.93 97.1654 195.05 98.7054 195.05ZM98.7054 194.42C97.5854 194.42 96.7454 193.6 96.7454 192.37C96.7454 191.14 97.5854 190.32 98.7054 190.32C99.8254 190.32 100.655 191.14 100.655 192.37C100.655 193.6 99.8254 194.42 98.7054 194.42ZM110.748 189.74L109.078 194.21L107.398 189.74H106.788L105.098 194.21L103.448 189.74H102.768L104.748 195H105.418L107.078 190.69L108.738 195H109.408L111.398 189.74H110.748ZM113.828 188.59C114.128 188.59 114.348 188.36 114.348 188.07C114.348 187.8 114.118 187.58 113.828 187.58C113.538 187.58 113.308 187.81 113.308 188.08C113.308 188.36 113.538 188.59 113.828 188.59ZM113.468 195H114.178V189.74H113.468V195ZM119.833 189.7C118.923 189.7 118.213 190.07 117.833 190.71V189.74H117.153V195H117.863V192.24C117.863 191.04 118.573 190.34 119.703 190.34C120.703 190.34 121.283 190.91 121.283 192.02V195H121.993V191.95C121.993 190.44 121.113 189.7 119.833 189.7ZM129.13 189.74V190.75C128.69 190.06 127.93 189.7 127.05 189.7C125.55 189.7 124.41 190.73 124.41 192.24C124.41 193.75 125.55 194.8 127.05 194.8C127.91 194.8 128.66 194.45 129.1 193.78V194.45C129.1 195.75 128.49 196.36 127.16 196.36C126.35 196.36 125.59 196.09 125.09 195.64L124.73 196.18C125.28 196.7 126.22 196.99 127.18 196.99C128.92 196.99 129.81 196.17 129.81 194.36V189.74H129.13ZM127.12 194.17C125.96 194.17 125.13 193.38 125.13 192.24C125.13 191.1 125.96 190.32 127.12 190.32C128.28 190.32 129.12 191.1 129.12 192.24C129.12 193.38 128.28 194.17 127.12 194.17ZM140.483 195H141.353L138.893 191.89L141.143 189.74H140.263L137.123 192.61V187.58H136.413V195H137.123V193.5L138.363 192.36L140.483 195ZM146.021 189.7C145.111 189.7 144.401 190.07 144.021 190.71V189.74H143.341V195H144.051V192.24C144.051 191.04 144.761 190.34 145.891 190.34C146.891 190.34 147.471 190.91 147.471 192.02V195H148.181V191.95C148.181 190.44 147.301 189.7 146.021 189.7ZM151.468 188.59C151.768 188.59 151.988 188.36 151.988 188.07C151.988 187.8 151.758 187.58 151.468 187.58C151.178 187.58 150.948 187.81 150.948 188.08C150.948 188.36 151.178 188.59 151.468 188.59ZM151.108 195H151.818V189.74H151.108V195ZM158.514 189.74L156.524 194.22L154.554 189.74H153.814L156.144 195H156.874L159.214 189.74H158.514ZM165.657 192.37C165.657 190.79 164.587 189.7 163.107 189.7C161.627 189.7 160.537 190.81 160.537 192.37C160.537 193.93 161.657 195.05 163.297 195.05C164.127 195.05 164.857 194.75 165.327 194.19L164.927 193.73C164.527 194.19 163.957 194.42 163.317 194.42C162.167 194.42 161.327 193.69 161.247 192.59H165.647C165.647 192.51 165.657 192.43 165.657 192.37ZM163.107 190.31C164.137 190.31 164.887 191.03 164.977 192.06H161.247C161.337 191.03 162.087 190.31 163.107 190.31ZM169.512 195.05C170.882 195.05 171.682 194.46 171.682 193.55C171.682 191.53 168.272 192.6 168.272 191.18C168.272 190.68 168.692 190.31 169.642 190.31C170.182 190.31 170.732 190.44 171.192 190.76L171.502 190.19C171.062 189.89 170.322 189.7 169.642 189.7C168.302 189.7 167.562 190.34 167.562 191.2C167.562 193.28 170.972 192.2 170.972 193.57C170.972 194.09 170.562 194.43 169.562 194.43C168.822 194.43 168.112 194.17 167.692 193.84L167.372 194.4C167.802 194.77 168.642 195.05 169.512 195.05ZM180.132 194.17C179.932 194.35 179.642 194.44 179.352 194.44C178.762 194.44 178.442 194.1 178.442 193.48V190.34H180.042V189.74H178.442V188.59H177.732V189.74H176.792V190.34H177.732V193.52C177.732 194.49 178.282 195.05 179.272 195.05C179.682 195.05 180.102 194.93 180.382 194.68L180.132 194.17ZM185.355 189.7C184.465 189.7 183.775 190.05 183.385 190.66V187.58H182.675V195H183.385V192.24C183.385 191.04 184.095 190.34 185.225 190.34C186.225 190.34 186.805 190.91 186.805 192.02V195H187.515V191.95C187.515 190.44 186.635 189.7 185.355 189.7ZM192.282 189.7C191.452 189.7 190.672 189.96 190.142 190.41L190.462 190.94C190.892 190.56 191.532 190.32 192.212 190.32C193.192 190.32 193.702 190.81 193.702 191.71V192.03H192.032C190.522 192.03 190.002 192.71 190.002 193.52C190.002 194.43 190.732 195.05 191.922 195.05C192.792 195.05 193.412 194.72 193.732 194.18V195H194.412V191.74C194.412 190.38 193.642 189.7 192.282 189.7ZM192.032 194.49C191.192 194.49 190.702 194.11 190.702 193.5C190.702 192.96 191.032 192.56 192.052 192.56H193.702V193.42C193.422 194.11 192.832 194.49 192.032 194.49ZM199.861 194.17C199.661 194.35 199.371 194.44 199.081 194.44C198.491 194.44 198.171 194.1 198.171 193.48V190.34H199.771V189.74H198.171V188.59H197.461V189.74H196.521V190.34H197.461V193.52C197.461 194.49 198.011 195.05 199.001 195.05C199.411 195.05 199.831 194.93 200.111 194.68L199.861 194.17ZM208.17 195.05C209.71 195.05 210.84 193.93 210.84 192.37C210.84 190.81 209.71 189.7 208.17 189.7C206.63 189.7 205.49 190.81 205.49 192.37C205.49 193.93 206.63 195.05 208.17 195.05ZM208.17 194.42C207.05 194.42 206.21 193.6 206.21 192.37C206.21 191.14 207.05 190.32 208.17 190.32C209.29 190.32 210.12 191.14 210.12 192.37C210.12 193.6 209.29 194.42 208.17 194.42ZM215.97 189.7C215.06 189.7 214.35 190.07 213.97 190.71V189.74H213.29V195H214V192.24C214 191.04 214.71 190.34 215.84 190.34C216.84 190.34 217.42 190.91 217.42 192.02V195H218.13V191.95C218.13 190.44 217.25 189.7 215.97 189.7ZM225.667 192.37C225.667 190.79 224.597 189.7 223.117 189.7C221.637 189.7 220.547 190.81 220.547 192.37C220.547 193.93 221.667 195.05 223.307 195.05C224.137 195.05 224.867 194.75 225.337 194.19L224.937 193.73C224.537 194.19 223.967 194.42 223.327 194.42C222.177 194.42 221.337 193.69 221.257 192.59H225.657C225.657 192.51 225.667 192.43 225.667 192.37ZM223.117 190.31C224.147 190.31 224.897 191.03 224.987 192.06H221.257C221.347 191.03 222.097 190.31 223.117 190.31ZM233.139 195.05C234.509 195.05 235.309 194.46 235.309 193.55C235.309 191.53 231.899 192.6 231.899 191.18C231.899 190.68 232.319 190.31 233.269 190.31C233.809 190.31 234.359 190.44 234.819 190.76L235.129 190.19C234.689 189.89 233.949 189.7 233.269 189.7C231.929 189.7 231.189 190.34 231.189 191.2C231.189 193.28 234.599 192.2 234.599 193.57C234.599 194.09 234.189 194.43 233.189 194.43C232.449 194.43 231.739 194.17 231.319 193.84L230.999 194.4C231.429 194.77 232.269 195.05 233.139 195.05ZM240.302 189.7C239.412 189.7 238.722 190.05 238.332 190.66V187.58H237.622V195H238.332V192.24C238.332 191.04 239.042 190.34 240.172 190.34C241.172 190.34 241.752 190.91 241.752 192.02V195H242.462V191.95C242.462 190.44 241.582 189.7 240.302 189.7ZM247.559 195.05C249.099 195.05 250.229 193.93 250.229 192.37C250.229 190.81 249.099 189.7 247.559 189.7C246.019 189.7 244.879 190.81 244.879 192.37C244.879 193.93 246.019 195.05 247.559 195.05ZM247.559 194.42C246.439 194.42 245.599 193.6 245.599 192.37C245.599 191.14 246.439 190.32 247.559 190.32C248.679 190.32 249.509 191.14 249.509 192.37C249.509 193.6 248.679 194.42 247.559 194.42ZM255.198 194.17C254.998 194.35 254.708 194.44 254.418 194.44C253.828 194.44 253.508 194.1 253.508 193.48V190.34H255.108V189.74H253.508V188.59H252.798V189.74H251.858V190.34H252.798V193.52C252.798 194.49 253.348 195.05 254.338 195.05C254.748 195.05 255.168 194.93 255.448 194.68L255.198 194.17ZM261.718 188.59C262.018 188.59 262.238 188.36 262.238 188.07C262.238 187.8 262.008 187.58 261.718 187.58C261.428 187.58 261.198 187.81 261.198 188.08C261.198 188.36 261.428 188.59 261.718 188.59ZM261.358 195H262.068V189.74H261.358V195ZM266.784 188.13C267.084 188.13 267.364 188.22 267.564 188.39L267.804 187.86C267.544 187.64 267.144 187.53 266.754 187.53C265.724 187.53 265.164 188.15 265.164 189.09V189.74H264.224V190.34H265.164V195H265.874V190.34H267.474V189.74H265.854V189.12C265.854 188.47 266.174 188.13 266.784 188.13ZM52.5664 201.74L50.5864 206.21L48.6064 201.74H47.8664L50.2164 206.99L49.9864 207.5C49.6864 208.16 49.3664 208.38 48.8964 208.38C48.5164 208.38 48.1964 208.24 47.9364 207.98L47.6064 208.51C47.9264 208.83 48.3964 208.99 48.8864 208.99C49.6364 208.99 50.1964 208.66 50.6364 207.63L53.2664 201.74H52.5664ZM57.2699 207.05C58.8099 207.05 59.9399 205.93 59.9399 204.37C59.9399 202.81 58.8099 201.7 57.2699 201.7C55.7299 201.7 54.5899 202.81 54.5899 204.37C54.5899 205.93 55.7299 207.05 57.2699 207.05ZM57.2699 206.42C56.1499 206.42 55.3099 205.6 55.3099 204.37C55.3099 203.14 56.1499 202.32 57.2699 202.32C58.3899 202.32 59.2199 203.14 59.2199 204.37C59.2199 205.6 58.3899 206.42 57.2699 206.42ZM66.4194 201.74V204.5C66.4194 205.7 65.7294 206.41 64.6294 206.41C63.6294 206.41 63.0494 205.84 63.0494 204.72V201.74H62.3394V204.79C62.3394 206.3 63.2194 207.05 64.5594 207.05C65.3994 207.05 66.0794 206.68 66.4494 206.04V207H67.1294V201.74H66.4194ZM76.4151 201.7C75.5251 201.7 74.8351 202.05 74.4451 202.66V199.58H73.7351V207H74.4451V204.24C74.4451 203.04 75.1551 202.34 76.2851 202.34C77.2851 202.34 77.8651 202.91 77.8651 204.02V207H78.5751V203.95C78.5751 202.44 77.6951 201.7 76.4151 201.7ZM81.8627 200.59C82.1627 200.59 82.3827 200.36 82.3827 200.07C82.3827 199.8 82.1527 199.58 81.8627 199.58C81.5727 199.58 81.3427 199.81 81.3427 200.08C81.3427 200.36 81.5727 200.59 81.8627 200.59ZM81.5027 207H82.2127V201.74H81.5027V207ZM87.7082 206.17C87.5082 206.35 87.2182 206.44 86.9282 206.44C86.3382 206.44 86.0182 206.1 86.0182 205.48V202.34H87.6182V201.74H86.0182V200.59H85.3082V201.74H84.3682V202.34H85.3082V205.52C85.3082 206.49 85.8582 207.05 86.8482 207.05C87.2582 207.05 87.6782 206.93 87.9582 206.68L87.7082 206.17ZM96.3879 206.17C96.1879 206.35 95.8979 206.44 95.6079 206.44C95.0179 206.44 94.6979 206.1 94.6979 205.48V202.34H96.2979V201.74H94.6979V200.59H93.9879V201.74H93.0479V202.34H93.9879V205.52C93.9879 206.49 94.5379 207.05 95.5279 207.05C95.9379 207.05 96.3579 206.93 96.6379 206.68L96.3879 206.17ZM101.61 201.7C100.72 201.7 100.03 202.05 99.6404 202.66V199.58H98.9304V207H99.6404V204.24C99.6404 203.04 100.35 202.34 101.48 202.34C102.48 202.34 103.06 202.91 103.06 204.02V207H103.77V203.95C103.77 202.44 102.89 201.7 101.61 201.7ZM111.308 204.37C111.308 202.79 110.238 201.7 108.758 201.7C107.278 201.7 106.188 202.81 106.188 204.37C106.188 205.93 107.308 207.05 108.948 207.05C109.778 207.05 110.508 206.75 110.978 206.19L110.578 205.73C110.178 206.19 109.608 206.42 108.968 206.42C107.818 206.42 106.978 205.69 106.898 204.59H111.298C111.298 204.51 111.308 204.43 111.308 204.37ZM108.758 202.31C109.788 202.31 110.538 203.03 110.628 204.06H106.898C106.988 203.03 107.738 202.31 108.758 202.31ZM120.05 201.7C119.16 201.7 118.47 202.05 118.08 202.66V199.58H117.37V207H118.08V204.24C118.08 203.04 118.79 202.34 119.92 202.34C120.92 202.34 121.5 202.91 121.5 204.02V207H122.21V203.95C122.21 202.44 121.33 201.7 120.05 201.7ZM129.747 204.37C129.747 202.79 128.677 201.7 127.197 201.7C125.717 201.7 124.627 202.81 124.627 204.37C124.627 205.93 125.747 207.05 127.387 207.05C128.217 207.05 128.947 206.75 129.417 206.19L129.017 205.73C128.617 206.19 128.047 206.42 127.407 206.42C126.257 206.42 125.417 205.69 125.337 204.59H129.737C129.737 204.51 129.747 204.43 129.747 204.37ZM127.197 202.31C128.227 202.31 128.977 203.03 129.067 204.06H125.337C125.427 203.03 126.177 202.31 127.197 202.31ZM133.886 201.7C133.056 201.7 132.276 201.96 131.746 202.41L132.066 202.94C132.496 202.56 133.136 202.32 133.816 202.32C134.796 202.32 135.306 202.81 135.306 203.71V204.03H133.636C132.126 204.03 131.606 204.71 131.606 205.52C131.606 206.43 132.336 207.05 133.526 207.05C134.396 207.05 135.016 206.72 135.336 206.18V207H136.016V203.74C136.016 202.38 135.246 201.7 133.886 201.7ZM133.636 206.49C132.796 206.49 132.306 206.11 132.306 205.5C132.306 204.96 132.636 204.56 133.656 204.56H135.306V205.42C135.026 206.11 134.436 206.49 133.636 206.49ZM143.054 199.58V202.74C142.614 202.06 141.894 201.7 141.054 201.7C139.554 201.7 138.434 202.78 138.434 204.37C138.434 205.96 139.554 207.05 141.054 207.05C141.924 207.05 142.654 206.67 143.084 205.96V207H143.764V199.58H143.054ZM141.114 206.42C139.994 206.42 139.154 205.6 139.154 204.37C139.154 203.14 139.994 202.32 141.114 202.32C142.224 202.32 143.064 203.14 143.064 204.37C143.064 205.6 142.224 206.42 141.114 206.42ZM146.811 207.05C147.101 207.05 147.351 206.81 147.351 206.5C147.351 206.19 147.101 205.96 146.811 205.96C146.521 205.96 146.281 206.19 146.281 206.5C146.281 206.81 146.521 207.05 146.811 207.05ZM156.247 200H153.627V207H154.367V204.79H156.247C158.027 204.79 159.107 203.89 159.107 202.4C159.107 200.9 158.027 200 156.247 200ZM156.227 204.14H154.367V200.64H156.227C157.627 200.64 158.367 201.28 158.367 202.4C158.367 203.5 157.627 204.14 156.227 204.14ZM166.118 204.37C166.118 202.79 165.048 201.7 163.568 201.7C162.088 201.7 160.998 202.81 160.998 204.37C160.998 205.93 162.118 207.05 163.758 207.05C164.588 207.05 165.318 206.75 165.788 206.19L165.388 205.73C164.988 206.19 164.418 206.42 163.778 206.42C162.628 206.42 161.788 205.69 161.708 204.59H166.108C166.108 204.51 166.118 204.43 166.118 204.37ZM163.568 202.31C164.598 202.31 165.348 203.03 165.438 204.06H161.708C161.798 203.03 162.548 202.31 163.568 202.31ZM169.243 202.77V201.74H168.563V207H169.273V204.32C169.273 203.08 169.943 202.38 171.043 202.38C171.093 202.38 171.153 202.39 171.213 202.39V201.7C170.243 201.7 169.573 202.07 169.243 202.77ZM175.317 200.13C175.617 200.13 175.897 200.22 176.097 200.39L176.337 199.86C176.077 199.64 175.677 199.53 175.287 199.53C174.257 199.53 173.697 200.15 173.697 201.09V201.74H172.757V202.34H173.697V207H174.407V202.34H176.007V201.74H174.387V201.12C174.387 200.47 174.707 200.13 175.317 200.13ZM180.028 207.05C181.568 207.05 182.698 205.93 182.698 204.37C182.698 202.81 181.568 201.7 180.028 201.7C178.488 201.7 177.348 202.81 177.348 204.37C177.348 205.93 178.488 207.05 180.028 207.05ZM180.028 206.42C178.908 206.42 178.068 205.6 178.068 204.37C178.068 203.14 178.908 202.32 180.028 202.32C181.148 202.32 181.978 203.14 181.978 204.37C181.978 205.6 181.148 206.42 180.028 206.42ZM185.827 202.77V201.74H185.147V207H185.857V204.32C185.857 203.08 186.527 202.38 187.627 202.38C187.677 202.38 187.737 202.39 187.797 202.39V201.7C186.827 201.7 186.157 202.07 185.827 202.77ZM196.643 201.7C195.693 201.7 194.943 202.13 194.563 202.81C194.243 202.07 193.563 201.7 192.693 201.7C191.813 201.7 191.133 202.07 190.763 202.7V201.74H190.083V207H190.793V204.24C190.793 203.04 191.483 202.34 192.553 202.34C193.513 202.34 194.073 202.91 194.073 204.02V207H194.783V204.24C194.783 203.04 195.463 202.34 196.543 202.34C197.493 202.34 198.053 202.91 198.053 204.02V207H198.763V203.95C198.763 202.44 197.923 201.7 196.643 201.7ZM202.048 200.59C202.348 200.59 202.568 200.36 202.568 200.07C202.568 199.8 202.338 199.58 202.048 199.58C201.758 199.58 201.528 199.81 201.528 200.08C201.528 200.36 201.758 200.59 202.048 200.59ZM201.688 207H202.398V201.74H201.688V207ZM208.054 201.7C207.144 201.7 206.434 202.07 206.054 202.71V201.74H205.374V207H206.084V204.24C206.084 203.04 206.794 202.34 207.924 202.34C208.924 202.34 209.504 202.91 209.504 204.02V207H210.214V203.95C210.214 202.44 209.334 201.7 208.054 201.7ZM217.351 201.74V202.75C216.911 202.06 216.151 201.7 215.271 201.7C213.771 201.7 212.631 202.73 212.631 204.24C212.631 205.75 213.771 206.8 215.271 206.8C216.131 206.8 216.881 206.45 217.321 205.78V206.45C217.321 207.75 216.711 208.36 215.381 208.36C214.571 208.36 213.811 208.09 213.311 207.64L212.951 208.18C213.501 208.7 214.441 208.99 215.401 208.99C217.141 208.99 218.031 208.17 218.031 206.36V201.74H217.351ZM215.341 206.17C214.181 206.17 213.351 205.38 213.351 204.24C213.351 203.1 214.181 202.32 215.341 202.32C216.501 202.32 217.341 203.1 217.341 204.24C217.341 205.38 216.501 206.17 215.341 206.17ZM226.474 201.7C225.644 201.7 224.864 201.96 224.334 202.41L224.654 202.94C225.084 202.56 225.724 202.32 226.404 202.32C227.384 202.32 227.894 202.81 227.894 203.71V204.03H226.224C224.714 204.03 224.194 204.71 224.194 205.52C224.194 206.43 224.924 207.05 226.114 207.05C226.984 207.05 227.604 206.72 227.924 206.18V207H228.604V203.74C228.604 202.38 227.834 201.7 226.474 201.7ZM226.224 206.49C225.384 206.49 224.894 206.11 224.894 205.5C224.894 204.96 225.224 204.56 226.244 204.56H227.894V205.42C227.614 206.11 227.024 206.49 226.224 206.49ZM239.219 207H240.089L237.629 203.89L239.879 201.74H238.999L235.859 204.61V199.58H235.149V207H235.859V205.5L237.099 204.36L239.219 207ZM242.437 200.59C242.737 200.59 242.957 200.36 242.957 200.07C242.957 199.8 242.727 199.58 242.437 199.58C242.147 199.58 241.917 199.81 241.917 200.08C241.917 200.36 242.147 200.59 242.437 200.59ZM242.077 207H242.787V201.74H242.077V207ZM245.762 207H246.472V199.58H245.762V207ZM249.448 207H250.158V199.58H249.448V207ZM85.4288 214.77V213.74H84.7488V219H85.4588V216.32C85.4588 215.08 86.1288 214.38 87.2288 214.38C87.2788 214.38 87.3388 214.39 87.3988 214.39V213.7C86.4288 213.7 85.7588 214.07 85.4288 214.77ZM94.2255 216.37C94.2255 214.79 93.1555 213.7 91.6755 213.7C90.1955 213.7 89.1055 214.81 89.1055 216.37C89.1055 217.93 90.2255 219.05 91.8655 219.05C92.6955 219.05 93.4255 218.75 93.8955 218.19L93.4955 217.73C93.0955 218.19 92.5255 218.42 91.8855 218.42C90.7355 218.42 89.8955 217.69 89.8155 216.59H94.2155C94.2155 216.51 94.2255 216.43 94.2255 216.37ZM91.6755 214.31C92.7055 214.31 93.4555 215.03 93.5455 216.06H89.8155C89.9055 215.03 90.6555 214.31 91.6755 214.31ZM98.0807 219.05C99.4507 219.05 100.251 218.46 100.251 217.55C100.251 215.53 96.8407 216.6 96.8407 215.18C96.8407 214.68 97.2607 214.31 98.2107 214.31C98.7507 214.31 99.3007 214.44 99.7607 214.76L100.071 214.19C99.6307 213.89 98.8907 213.7 98.2107 213.7C96.8707 213.7 96.1307 214.34 96.1307 215.2C96.1307 217.28 99.5407 216.2 99.5407 217.57C99.5407 218.09 99.1307 218.43 98.1307 218.43C97.3907 218.43 96.6807 218.17 96.2607 217.84L95.9407 218.4C96.3707 218.77 97.2107 219.05 98.0807 219.05ZM105.083 218.17C104.883 218.35 104.593 218.44 104.303 218.44C103.713 218.44 103.393 218.1 103.393 217.48V214.34H104.993V213.74H103.393V212.59H102.683V213.74H101.743V214.34H102.683V217.52C102.683 218.49 103.233 219.05 104.223 219.05C104.633 219.05 105.053 218.93 105.333 218.68L105.083 218.17ZM109.59 219.05C111.13 219.05 112.26 217.93 112.26 216.37C112.26 214.81 111.13 213.7 109.59 213.7C108.05 213.7 106.91 214.81 106.91 216.37C106.91 217.93 108.05 219.05 109.59 219.05ZM109.59 218.42C108.47 218.42 107.63 217.6 107.63 216.37C107.63 215.14 108.47 214.32 109.59 214.32C110.71 214.32 111.54 215.14 111.54 216.37C111.54 217.6 110.71 218.42 109.59 218.42ZM115.39 214.77V213.74H114.71V219H115.42V216.32C115.42 215.08 116.09 214.38 117.19 214.38C117.24 214.38 117.3 214.39 117.36 214.39V213.7C116.39 213.7 115.72 214.07 115.39 214.77ZM124.186 216.37C124.186 214.79 123.116 213.7 121.636 213.7C120.156 213.7 119.066 214.81 119.066 216.37C119.066 217.93 120.186 219.05 121.826 219.05C122.656 219.05 123.386 218.75 123.856 218.19L123.456 217.73C123.056 218.19 122.486 218.42 121.846 218.42C120.696 218.42 119.856 217.69 119.776 216.59H124.176C124.176 216.51 124.186 216.43 124.186 216.37ZM121.636 214.31C122.666 214.31 123.416 215.03 123.506 216.06H119.776C119.866 215.03 120.616 214.31 121.636 214.31ZM128.042 219.05C129.412 219.05 130.212 218.46 130.212 217.55C130.212 215.53 126.802 216.6 126.802 215.18C126.802 214.68 127.222 214.31 128.172 214.31C128.712 214.31 129.262 214.44 129.722 214.76L130.032 214.19C129.592 213.89 128.852 213.7 128.172 213.7C126.832 213.7 126.092 214.34 126.092 215.2C126.092 217.28 129.502 216.2 129.502 217.57C129.502 218.09 129.092 218.43 128.092 218.43C127.352 218.43 126.642 218.17 126.222 217.84L125.902 218.4C126.332 218.77 127.172 219.05 128.042 219.05ZM137.981 213.7C137.151 213.7 136.371 213.96 135.841 214.41L136.161 214.94C136.591 214.56 137.231 214.32 137.911 214.32C138.891 214.32 139.401 214.81 139.401 215.71V216.03H137.731C136.221 216.03 135.701 216.71 135.701 217.52C135.701 218.43 136.431 219.05 137.621 219.05C138.491 219.05 139.111 218.72 139.431 218.18V219H140.111V215.74C140.111 214.38 139.341 213.7 137.981 213.7ZM137.731 218.49C136.891 218.49 136.401 218.11 136.401 217.5C136.401 216.96 136.731 216.56 137.751 216.56H139.401V217.42C139.121 218.11 138.531 218.49 137.731 218.49ZM143.04 219H143.75V211.58H143.04V219ZM146.725 219H147.435V211.58H146.725V219ZM156.548 218.17C156.348 218.35 156.058 218.44 155.768 218.44C155.178 218.44 154.858 218.1 154.858 217.48V214.34H156.458V213.74H154.858V212.59H154.148V213.74H153.208V214.34H154.148V217.52C154.148 218.49 154.698 219.05 155.688 219.05C156.098 219.05 156.518 218.93 156.798 218.68L156.548 218.17ZM161.771 213.7C160.881 213.7 160.191 214.05 159.801 214.66V211.58H159.091V219H159.801V216.24C159.801 215.04 160.511 214.34 161.641 214.34C162.641 214.34 163.221 214.91 163.221 216.02V219H163.931V215.95C163.931 214.44 163.051 213.7 161.771 213.7ZM171.468 216.37C171.468 214.79 170.398 213.7 168.918 213.7C167.438 213.7 166.348 214.81 166.348 216.37C166.348 217.93 167.468 219.05 169.108 219.05C169.938 219.05 170.668 218.75 171.138 218.19L170.738 217.73C170.338 218.19 169.768 218.42 169.128 218.42C167.978 218.42 167.138 217.69 167.058 216.59H171.458C171.458 216.51 171.468 216.43 171.468 216.37ZM168.918 214.31C169.948 214.31 170.698 215.03 170.788 216.06H167.058C167.148 215.03 167.898 214.31 168.918 214.31ZM181.6 219H182.47L180.01 215.89L182.26 213.74H181.38L178.24 216.61V211.58H177.53V219H178.24V217.5L179.48 216.36L181.6 219ZM187.138 213.7C186.228 213.7 185.518 214.07 185.138 214.71V213.74H184.458V219H185.168V216.24C185.168 215.04 185.878 214.34 187.008 214.34C188.008 214.34 188.588 214.91 188.588 216.02V219H189.298V215.95C189.298 214.44 188.418 213.7 187.138 213.7ZM192.585 212.59C192.885 212.59 193.105 212.36 193.105 212.07C193.105 211.8 192.875 211.58 192.585 211.58C192.295 211.58 192.065 211.81 192.065 212.08C192.065 212.36 192.295 212.59 192.585 212.59ZM192.225 219H192.935V213.74H192.225V219ZM199.631 213.74L197.641 218.22L195.671 213.74H194.931L197.261 219H197.991L200.331 213.74H199.631ZM206.774 216.37C206.774 214.79 205.704 213.7 204.224 213.7C202.744 213.7 201.654 214.81 201.654 216.37C201.654 217.93 202.774 219.05 204.414 219.05C205.244 219.05 205.974 218.75 206.444 218.19L206.044 217.73C205.644 218.19 205.074 218.42 204.434 218.42C203.284 218.42 202.444 217.69 202.364 216.59H206.764C206.764 216.51 206.774 216.43 206.774 216.37ZM204.224 214.31C205.254 214.31 206.004 215.03 206.094 216.06H202.364C202.454 215.03 203.204 214.31 204.224 214.31ZM210.629 219.05C211.999 219.05 212.799 218.46 212.799 217.55C212.799 215.53 209.389 216.6 209.389 215.18C209.389 214.68 209.809 214.31 210.759 214.31C211.299 214.31 211.849 214.44 212.309 214.76L212.619 214.19C212.179 213.89 211.439 213.7 210.759 213.7C209.419 213.7 208.679 214.34 208.679 215.2C208.679 217.28 212.089 216.2 212.089 217.57C212.089 218.09 211.679 218.43 210.679 218.43C209.939 218.43 209.229 218.17 208.809 217.84L208.489 218.4C208.919 218.77 209.759 219.05 210.629 219.05ZM215.182 219.05C215.472 219.05 215.722 218.81 215.722 218.5C215.722 218.19 215.472 217.96 215.182 217.96C214.892 217.96 214.652 218.19 214.652 218.5C214.652 218.81 214.892 219.05 215.182 219.05Z" fill="white"/>
<path d="M51.2867 159H62.8607C67.1987 159 68.4047 157.254 68.4047 155.148V154.896C68.4047 152.538 66.4427 151.764 65.5247 151.53C66.1727 151.332 67.6487 150.666 67.6487 148.92V148.668C67.6487 147.084 66.5867 145.608 62.7527 145.608H51.2867V159ZM62.0327 148.434C63.2027 148.434 63.4907 148.938 63.4907 149.496V149.532C63.4907 150.072 63.2027 150.612 62.0327 150.612H55.4807V148.434H62.0327ZM62.3927 153.456C63.7787 153.456 64.0487 154.122 64.0487 154.698V154.77C64.0487 155.31 63.7787 156.084 62.3927 156.084H55.4807V153.456H62.3927ZM69.7438 145.608V159H83.2438V155.67H73.9378V145.608H69.7438ZM95.7823 153.528H90.7063L93.1903 148.506L95.7823 153.528ZM98.5903 159H103.108L95.9443 145.608H90.5083L83.7403 159H88.0063L89.2123 156.552H97.3303L98.5903 159ZM103.845 159H112.737C120.567 159 122.169 155.364 122.169 152.484V151.944C122.169 148.938 120.477 145.608 112.719 145.608H103.845V159ZM108.039 148.776H112.395C117.219 148.776 117.777 150.846 117.777 152.214V152.322C117.777 153.69 117.147 155.778 112.395 155.778H108.039V148.776ZM123.603 145.608V159H137.895V155.886H127.743V153.69H137.481V150.63H127.743V148.65H137.715V145.608H123.603ZM153.56 159.234C160.292 159.234 161.408 156.966 161.408 154.752V154.5C161.408 151.836 159.374 150.612 154.334 150.522L152.084 150.486C149.348 150.432 148.988 149.91 148.988 149.334C148.988 148.758 149.222 148.182 152.462 148.182H152.75C156.26 148.182 156.53 149.28 156.62 149.784H160.976V149.604C160.976 147.588 159.536 145.374 153.2 145.374H151.958C145.856 145.374 144.668 147.462 144.668 149.46V149.622C144.668 151.71 146.198 153.402 151.202 153.546L153.506 153.6C156.602 153.69 157.016 154.176 157.016 154.95C157.016 155.67 156.62 156.372 153.092 156.372H152.84C149.384 156.372 148.916 155.058 148.862 154.248H144.488V154.446C144.488 156.21 145.298 159.234 152.318 159.234H153.56ZM167.671 159H171.901V148.776H177.679V145.608H161.911V148.776H167.671V159ZM187.55 145.374C179.072 145.374 178.118 149.604 178.118 151.998V152.538C178.118 154.896 179.072 159.234 187.55 159.234H188.324C196.766 159.234 197.738 154.896 197.738 152.538V151.998C197.738 149.604 196.748 145.374 188.324 145.374H187.55ZM193.346 152.376C193.346 153.924 192.428 155.976 187.928 155.976C183.392 155.976 182.51 153.87 182.51 152.34V152.124C182.51 150.594 183.32 148.614 187.928 148.614C192.464 148.614 193.346 150.594 193.346 152.124V152.376ZM203.436 148.65H209.79C211.014 148.65 211.482 149.244 211.482 149.946V149.964C211.482 150.702 210.996 151.278 209.79 151.278H203.436V148.65ZM203.436 154.248H208.908C210.978 154.248 211.698 154.968 211.698 156.606V158.154C211.698 158.64 211.77 158.838 211.896 159H216.162V158.91C216.036 158.694 215.91 158.352 215.91 157.272V155.31C215.91 153.582 214.74 152.628 213.372 152.232C214.254 151.944 215.856 151.224 215.856 149.298V149.082C215.856 147.156 214.506 145.608 210.042 145.608H199.242V159H203.436V154.248ZM217.558 159H221.59V149.73L226.864 159H229.114L234.388 149.73V159H238.528V145.608H232.786L228.142 153.942L223.516 145.608H217.558V159ZM250.083 150.288H245.745V153.438H250.083V150.288ZM250.083 155.85H245.745V159H250.083V155.85Z" fill="white"/>
</svg>
