<svg width="933" height="92" viewBox="0 0 933 92" fill="none" xmlns="http://www.w3.org/2000/svg">
<path d="M9.072 51.776V49.058L3.384 47.564L9.072 46.034V43.298L0.684 46.124V48.986L9.072 51.776ZM54.3601 53V48.104H50.2381V49.832H41.7601C41.7601 49.454 42.1201 48.734 45.2881 48.158L48.9601 47.546C53.3521 46.826 54.1261 45.548 54.1261 43.532V43.496C54.1261 41.372 52.8481 39.374 46.5481 39.374H45.8281C38.8981 39.374 38.2501 42.668 38.2501 44.198V44.342H42.6241C42.6781 43.676 42.9661 42.452 46.3321 42.452C49.2841 42.452 49.6981 42.938 49.6981 43.46C49.6981 43.874 49.5361 44.234 47.7181 44.576L44.5861 45.224C38.3761 46.52 38.0161 49.508 38.0161 51.488V53H54.3601Z" fill="white"/>
<path d="M387.415 44.702V53H391.573V39.608H388.297C387.685 41.012 386.605 42.038 384.301 42.182V44.702H387.415ZM412.028 45.998C412.028 43.622 410.93 39.374 402.992 39.374H402.2C394.28 39.374 393.164 43.622 393.164 45.998V46.538C393.164 48.896 394.28 53.234 402.2 53.234H402.992C410.948 53.234 412.028 48.878 412.028 46.538V45.998ZM407.636 46.376C407.636 47.906 406.682 49.958 402.596 49.958C398.51 49.958 397.556 47.852 397.556 46.34V46.124C397.556 44.612 398.42 42.632 402.596 42.632C406.7 42.632 407.636 44.612 407.636 46.124V46.376ZM440.929 51.776L449.317 48.986V46.124L440.929 43.298V46.034L446.617 47.564L440.929 49.058V51.776Z" fill="white"/>
<rect x="112" y="45" width="226" height="2" fill="white"/>
<rect x="112" y="45" width="140" height="2" fill="#A75B12"/>
<path d="M530.072 14H530.684V6.152H533.708V5.6H527.048V6.152H530.072V14ZM538.094 7.688C536.93 7.688 536.066 8.192 535.634 9.044V5.096H535.034V14H535.634V10.664C535.634 9.176 536.534 8.228 538.01 8.228C539.282 8.228 540.038 8.972 540.038 10.388V14H540.638V10.34C540.638 8.588 539.618 7.688 538.094 7.688ZM548.424 10.844C548.424 8.984 547.152 7.688 545.436 7.688C543.72 7.688 542.436 9.008 542.436 10.868C542.436 12.728 543.768 14.048 545.664 14.048C546.612 14.048 547.476 13.7 548.028 13.028L547.68 12.632C547.2 13.22 546.468 13.508 545.676 13.508C544.176 13.508 543.084 12.5 543.024 11.012H548.412C548.412 10.952 548.424 10.892 548.424 10.844ZM545.436 8.216C546.768 8.216 547.752 9.188 547.836 10.544H543.036C543.132 9.176 544.104 8.216 545.436 8.216ZM556.506 7.688C555.402 7.688 554.466 8.228 553.962 9.164V5.096H553.362V14H553.938V12.524C554.43 13.484 555.378 14.048 556.506 14.048C558.27 14.048 559.602 12.74 559.602 10.868C559.602 8.984 558.27 7.688 556.506 7.688ZM556.47 13.508C555.03 13.508 553.95 12.44 553.95 10.868C553.95 9.296 555.03 8.228 556.47 8.228C557.91 8.228 559.002 9.296 559.002 10.868C559.002 12.44 557.91 13.508 556.47 13.508ZM561.76 6.212C562.036 6.212 562.252 5.996 562.252 5.72C562.252 5.456 562.036 5.24 561.76 5.24C561.484 5.24 561.268 5.468 561.268 5.732C561.268 5.996 561.484 6.212 561.76 6.212ZM561.46 14H562.06V7.736H561.46V14ZM569.484 14H570.228L567.264 10.268L569.964 7.736H569.196L565.188 11.396V5.096H564.588V14H565.188V12.14L566.82 10.652L569.484 14ZM576.689 10.844C576.689 8.984 575.417 7.688 573.701 7.688C571.985 7.688 570.701 9.008 570.701 10.868C570.701 12.728 572.033 14.048 573.929 14.048C574.877 14.048 575.741 13.7 576.293 13.028L575.945 12.632C575.465 13.22 574.733 13.508 573.941 13.508C572.441 13.508 571.349 12.5 571.289 11.012H576.677C576.677 10.952 576.689 10.892 576.689 10.844ZM573.701 8.216C575.033 8.216 576.017 9.188 576.101 10.544H571.301C571.397 9.176 572.369 8.216 573.701 8.216ZM584.111 14.048C585.107 14.048 585.971 13.652 586.487 12.896L586.043 12.572C585.587 13.208 584.891 13.508 584.111 13.508C582.635 13.508 581.555 12.452 581.555 10.868C581.555 9.284 582.635 8.228 584.111 8.228C584.891 8.228 585.587 8.528 586.043 9.164L586.487 8.84C585.971 8.072 585.107 7.688 584.111 7.688C582.275 7.688 580.943 8.996 580.943 10.868C580.943 12.728 582.275 14.048 584.111 14.048ZM590.626 14.048C592.426 14.048 593.758 12.728 593.758 10.868C593.758 9.008 592.426 7.688 590.626 7.688C588.826 7.688 587.494 9.008 587.494 10.868C587.494 12.728 588.826 14.048 590.626 14.048ZM590.626 13.508C589.186 13.508 588.106 12.44 588.106 10.868C588.106 9.296 589.186 8.228 590.626 8.228C592.066 8.228 593.146 9.296 593.146 10.868C593.146 12.44 592.066 13.508 590.626 13.508ZM603.42 7.688C602.208 7.688 601.296 8.288 600.888 9.2C600.552 8.204 599.724 7.688 598.596 7.688C597.456 7.688 596.604 8.204 596.196 9.08V7.736H595.62V14H596.22V10.664C596.22 9.176 597.096 8.228 598.512 8.228C599.736 8.228 600.468 8.972 600.468 10.388V14H601.068V10.664C601.068 9.176 601.944 8.228 603.36 8.228C604.584 8.228 605.316 8.972 605.316 10.388V14H605.916V10.34C605.916 8.588 604.932 7.688 603.42 7.688ZM613.709 10.844C613.709 8.984 612.437 7.688 610.721 7.688C609.005 7.688 607.721 9.008 607.721 10.868C607.721 12.728 609.053 14.048 610.949 14.048C611.897 14.048 612.761 13.7 613.313 13.028L612.965 12.632C612.485 13.22 611.753 13.508 610.961 13.508C609.461 13.508 608.369 12.5 608.309 11.012H613.697C613.697 10.952 613.709 10.892 613.709 10.844ZM610.721 8.216C612.053 8.216 613.037 9.188 613.121 10.544H608.321C608.417 9.176 609.389 8.216 610.721 8.216ZM617.149 14.048C618.745 14.048 619.621 13.352 619.621 12.332C619.621 9.944 615.469 11.276 615.469 9.392C615.469 8.72 616.009 8.216 617.233 8.216C617.905 8.216 618.589 8.396 619.117 8.78L619.393 8.3C618.901 7.928 618.037 7.688 617.245 7.688C615.661 7.688 614.869 8.456 614.869 9.404C614.869 11.864 619.021 10.52 619.021 12.344C619.021 13.052 618.493 13.52 617.173 13.52C616.249 13.52 615.397 13.172 614.917 12.764L614.641 13.244C615.133 13.7 616.117 14.048 617.149 14.048ZM624.677 6.212C624.953 6.212 625.169 5.996 625.169 5.72C625.169 5.456 624.953 5.24 624.677 5.24C624.401 5.24 624.185 5.468 624.185 5.732C624.185 5.996 624.401 6.212 624.677 6.212ZM624.377 14H624.977V7.736H624.377V14ZM630.566 7.688C629.378 7.688 628.502 8.216 628.082 9.092V7.736H627.506V14H628.106V10.664C628.106 9.176 629.006 8.228 630.482 8.228C631.754 8.228 632.51 8.972 632.51 10.388V14H633.11V10.34C633.11 8.588 632.09 7.688 630.566 7.688ZM640.775 7.688C639.803 7.688 638.891 8.024 638.267 8.576L638.567 9.008C639.083 8.54 639.863 8.216 640.727 8.216C641.951 8.216 642.587 8.84 642.587 10.004V10.508H640.439C638.699 10.508 638.099 11.312 638.099 12.26C638.099 13.328 638.951 14.048 640.355 14.048C641.447 14.048 642.215 13.604 642.611 12.884V14H643.187V10.028C643.187 8.48 642.323 7.688 640.775 7.688ZM640.439 13.556C639.335 13.556 638.699 13.052 638.699 12.236C638.699 11.516 639.155 10.976 640.451 10.976H642.587V12.152C642.227 13.052 641.495 13.556 640.439 13.556ZM645.659 14H646.259V5.096H645.659V14ZM648.788 14H649.388V5.096H648.788V14ZM658.143 7.688C657.039 7.688 656.103 8.228 655.599 9.164V5.096H654.999V14H655.575V12.524C656.067 13.484 657.015 14.048 658.143 14.048C659.907 14.048 661.239 12.74 661.239 10.868C661.239 8.984 659.907 7.688 658.143 7.688ZM658.107 13.508C656.667 13.508 655.587 12.44 655.587 10.868C655.587 9.296 656.667 8.228 658.107 8.228C659.547 8.228 660.639 9.296 660.639 10.868C660.639 12.44 659.547 13.508 658.107 13.508ZM663.096 14H663.696V5.096H663.096V14ZM668.337 7.688C667.365 7.688 666.453 8.024 665.829 8.576L666.129 9.008C666.645 8.54 667.425 8.216 668.289 8.216C669.513 8.216 670.149 8.84 670.149 10.004V10.508H668.001C666.261 10.508 665.661 11.312 665.661 12.26C665.661 13.328 666.513 14.048 667.917 14.048C669.009 14.048 669.777 13.604 670.173 12.884V14H670.749V10.028C670.749 8.48 669.885 7.688 668.337 7.688ZM668.001 13.556C666.897 13.556 666.261 13.052 666.261 12.236C666.261 11.516 666.717 10.976 668.013 10.976H670.149V12.152C669.789 13.052 669.057 13.556 668.001 13.556ZM675.717 14.048C676.713 14.048 677.577 13.652 678.093 12.896L677.649 12.572C677.193 13.208 676.497 13.508 675.717 13.508C674.241 13.508 673.161 12.452 673.161 10.868C673.161 9.284 674.241 8.228 675.717 8.228C676.497 8.228 677.193 8.528 677.649 9.164L678.093 8.84C677.577 8.072 676.713 7.688 675.717 7.688C673.881 7.688 672.549 8.996 672.549 10.868C672.549 12.728 673.881 14.048 675.717 14.048ZM684.68 14H685.424L682.46 10.268L685.16 7.736H684.392L680.384 11.396V5.096H679.784V14H680.384V12.14L682.016 10.652L684.68 14ZM686.884 13.028C686.596 13.028 686.38 13.244 686.38 13.532C686.38 13.784 686.536 13.964 686.776 14.024L686.38 15.716H686.812L687.28 14.084C687.352 13.832 687.388 13.712 687.388 13.532C687.388 13.268 687.184 13.028 686.884 13.028ZM700.84 7.736L698.728 13.316L696.604 7.736H696.088L693.952 13.328L691.864 7.736H691.288L693.664 14H694.216L696.34 8.564L698.452 14H699.016L701.392 7.736H700.84ZM703.088 6.212C703.364 6.212 703.58 5.996 703.58 5.72C703.58 5.456 703.364 5.24 703.088 5.24C702.812 5.24 702.596 5.468 702.596 5.732C702.596 5.996 702.812 6.212 703.088 6.212ZM702.788 14H703.388V7.736H702.788V14ZM708.773 13.184C708.521 13.412 708.173 13.532 707.801 13.532C707.033 13.532 706.637 13.088 706.637 12.284V8.252H708.629V7.736H706.637V6.368H706.037V7.736H704.885V8.252H706.037V12.344C706.037 13.4 706.637 14.048 707.741 14.048C708.209 14.048 708.713 13.904 709.025 13.604L708.773 13.184ZM713.758 7.688C712.594 7.688 711.73 8.192 711.298 9.044V5.096H710.698V14H711.298V10.664C711.298 9.176 712.198 8.228 713.674 8.228C714.946 8.228 715.702 8.972 715.702 10.388V14H716.302V10.34C716.302 8.588 715.282 7.688 713.758 7.688ZM723.966 7.688C722.994 7.688 722.082 8.024 721.458 8.576L721.758 9.008C722.274 8.54 723.054 8.216 723.918 8.216C725.142 8.216 725.778 8.84 725.778 10.004V10.508H723.63C721.89 10.508 721.29 11.312 721.29 12.26C721.29 13.328 722.142 14.048 723.546 14.048C724.638 14.048 725.406 13.604 725.802 12.884V14H726.378V10.028C726.378 8.48 725.514 7.688 723.966 7.688ZM723.63 13.556C722.526 13.556 721.89 13.052 721.89 12.236C721.89 11.516 722.346 10.976 723.642 10.976H725.778V12.152C725.418 13.052 724.686 13.556 723.63 13.556ZM732.508 9.104V7.736H731.932V14H732.532V10.736C732.532 9.188 733.36 8.264 734.752 8.264C734.8 8.264 734.848 8.276 734.896 8.276V7.688C733.72 7.688 732.892 8.192 732.508 9.104ZM741.795 10.844C741.795 8.984 740.523 7.688 738.807 7.688C737.091 7.688 735.807 9.008 735.807 10.868C735.807 12.728 737.139 14.048 739.035 14.048C739.983 14.048 740.847 13.7 741.399 13.028L741.051 12.632C740.571 13.22 739.839 13.508 739.047 13.508C737.547 13.508 736.455 12.5 736.395 11.012H741.783C741.783 10.952 741.795 10.892 741.795 10.844ZM738.807 8.216C740.139 8.216 741.123 9.188 741.207 10.544H736.407C736.503 9.176 737.475 8.216 738.807 8.216ZM743.651 14H744.251V5.096H743.651V14ZM748.892 7.688C747.92 7.688 747.008 8.024 746.384 8.576L746.684 9.008C747.2 8.54 747.98 8.216 748.844 8.216C750.068 8.216 750.704 8.84 750.704 10.004V10.508H748.556C746.816 10.508 746.216 11.312 746.216 12.26C746.216 13.328 747.068 14.048 748.472 14.048C749.564 14.048 750.332 13.604 750.728 12.884V14H751.304V10.028C751.304 8.48 750.44 7.688 748.892 7.688ZM748.556 13.556C747.452 13.556 746.816 13.052 746.816 12.236C746.816 11.516 747.272 10.976 748.568 10.976H750.704V12.152C750.344 13.052 749.612 13.556 748.556 13.556ZM756.632 13.184C756.38 13.412 756.032 13.532 755.66 13.532C754.892 13.532 754.496 13.088 754.496 12.284V8.252H756.488V7.736H754.496V6.368H753.896V7.736H752.744V8.252H753.896V12.344C753.896 13.4 754.496 14.048 755.6 14.048C756.068 14.048 756.572 13.904 756.884 13.604L756.632 13.184ZM758.857 6.212C759.133 6.212 759.349 5.996 759.349 5.72C759.349 5.456 759.133 5.24 758.857 5.24C758.581 5.24 758.365 5.468 758.365 5.732C758.365 5.996 758.581 6.212 758.857 6.212ZM758.557 14H759.157V7.736H758.557V14ZM766.102 7.736L763.582 13.34L761.086 7.736H760.45L763.27 14H763.882L766.714 7.736H766.102ZM773.154 10.844C773.154 8.984 771.882 7.688 770.166 7.688C768.45 7.688 767.166 9.008 767.166 10.868C767.166 12.728 768.498 14.048 770.394 14.048C771.342 14.048 772.206 13.7 772.758 13.028L772.41 12.632C771.93 13.22 771.198 13.508 770.406 13.508C768.906 13.508 767.814 12.5 767.754 11.012H773.142C773.142 10.952 773.154 10.892 773.154 10.844ZM770.166 8.216C771.498 8.216 772.482 9.188 772.566 10.544H767.766C767.862 9.176 768.834 8.216 770.166 8.216ZM775.01 14H775.61V5.096H775.01V14ZM782.555 7.736L780.047 13.34L777.539 7.736H776.903L779.723 13.976L779.387 14.732C779.003 15.584 778.583 15.848 778.007 15.848C777.539 15.848 777.167 15.692 776.843 15.356L776.543 15.812C776.903 16.184 777.431 16.376 777.995 16.376C778.823 16.376 779.447 16.004 779.951 14.852L783.167 7.736H782.555ZM795.361 7.688C794.149 7.688 793.237 8.288 792.829 9.2C792.493 8.204 791.665 7.688 790.537 7.688C789.397 7.688 788.545 8.204 788.137 9.08V7.736H787.561V14H788.161V10.664C788.161 9.176 789.037 8.228 790.453 8.228C791.677 8.228 792.409 8.972 792.409 10.388V14H793.009V10.664C793.009 9.176 793.885 8.228 795.301 8.228C796.525 8.228 797.257 8.972 797.257 10.388V14H797.857V10.34C797.857 8.588 796.873 7.688 795.361 7.688ZM802.794 14.048C804.594 14.048 805.926 12.728 805.926 10.868C805.926 9.008 804.594 7.688 802.794 7.688C800.994 7.688 799.662 9.008 799.662 10.868C799.662 12.728 800.994 14.048 802.794 14.048ZM802.794 13.508C801.354 13.508 800.274 12.44 800.274 10.868C800.274 9.296 801.354 8.228 802.794 8.228C804.234 8.228 805.314 9.296 805.314 10.868C805.314 12.44 804.234 13.508 802.794 13.508ZM812.756 5.096V9.188C812.252 8.24 811.316 7.688 810.2 7.688C808.436 7.688 807.104 8.984 807.104 10.868C807.104 12.74 808.436 14.048 810.2 14.048C811.328 14.048 812.276 13.496 812.768 12.524V14H813.356V5.096H812.756ZM810.236 13.508C808.796 13.508 807.716 12.44 807.716 10.868C807.716 9.296 808.796 8.228 810.236 8.228C811.676 8.228 812.756 9.296 812.756 10.868C812.756 12.44 811.676 13.508 810.236 13.508ZM821.189 10.844C821.189 8.984 819.917 7.688 818.201 7.688C816.485 7.688 815.201 9.008 815.201 10.868C815.201 12.728 816.533 14.048 818.429 14.048C819.377 14.048 820.241 13.7 820.793 13.028L820.445 12.632C819.965 13.22 819.233 13.508 818.441 13.508C816.941 13.508 815.849 12.5 815.789 11.012H821.177C821.177 10.952 821.189 10.892 821.189 10.844ZM818.201 8.216C819.533 8.216 820.517 9.188 820.601 10.544H815.801C815.897 9.176 816.869 8.216 818.201 8.216ZM823.621 9.104V7.736H823.045V14H823.645V10.736C823.645 9.188 824.473 8.264 825.865 8.264C825.913 8.264 825.961 8.276 826.009 8.276V7.688C824.833 7.688 824.005 8.192 823.621 9.104ZM830.723 7.688C829.535 7.688 828.659 8.216 828.239 9.092V7.736H827.663V14H828.263V10.664C828.263 9.176 829.163 8.228 830.639 8.228C831.911 8.228 832.667 8.972 832.667 10.388V14H833.267V10.34C833.267 8.588 832.247 7.688 830.723 7.688ZM840.931 7.688C839.959 7.688 839.047 8.024 838.423 8.576L838.723 9.008C839.239 8.54 840.019 8.216 840.883 8.216C842.107 8.216 842.743 8.84 842.743 10.004V10.508H840.595C838.855 10.508 838.255 11.312 838.255 12.26C838.255 13.328 839.107 14.048 840.511 14.048C841.603 14.048 842.371 13.604 842.767 12.884V14H843.343V10.028C843.343 8.48 842.479 7.688 840.931 7.688ZM840.595 13.556C839.491 13.556 838.855 13.052 838.855 12.236C838.855 11.516 839.311 10.976 840.607 10.976H842.743V12.152C842.383 13.052 841.651 13.556 840.595 13.556ZM848.959 7.688C847.831 7.688 846.883 8.252 846.391 9.212V7.736H845.815V16.328H846.415V12.572C846.919 13.508 847.855 14.048 848.959 14.048C850.723 14.048 852.055 12.752 852.055 10.868C852.055 8.996 850.723 7.688 848.959 7.688ZM848.923 13.508C847.483 13.508 846.403 12.44 846.403 10.868C846.403 9.296 847.483 8.228 848.923 8.228C850.363 8.228 851.455 9.296 851.455 10.868C851.455 12.44 850.363 13.508 848.923 13.508ZM857.057 7.688C855.929 7.688 854.981 8.252 854.489 9.212V7.736H853.913V16.328H854.513V12.572C855.017 13.508 855.953 14.048 857.057 14.048C858.821 14.048 860.153 12.752 860.153 10.868C860.153 8.996 858.821 7.688 857.057 7.688ZM857.021 13.508C855.581 13.508 854.501 12.44 854.501 10.868C854.501 9.296 855.581 8.228 857.021 8.228C858.461 8.228 859.553 9.296 859.553 10.868C859.553 12.44 858.461 13.508 857.021 13.508ZM867.314 10.844C867.314 8.984 866.042 7.688 864.326 7.688C862.61 7.688 861.326 9.008 861.326 10.868C861.326 12.728 862.658 14.048 864.554 14.048C865.502 14.048 866.366 13.7 866.918 13.028L866.57 12.632C866.09 13.22 865.358 13.508 864.566 13.508C863.066 13.508 861.974 12.5 861.914 11.012H867.302C867.302 10.952 867.314 10.892 867.314 10.844ZM864.326 8.216C865.658 8.216 866.642 9.188 866.726 10.544H861.926C862.022 9.176 862.994 8.216 864.326 8.216ZM871.107 7.688C870.135 7.688 869.223 8.024 868.599 8.576L868.899 9.008C869.415 8.54 870.195 8.216 871.059 8.216C872.283 8.216 872.919 8.84 872.919 10.004V10.508H870.771C869.031 10.508 868.431 11.312 868.431 12.26C868.431 13.328 869.283 14.048 870.687 14.048C871.779 14.048 872.547 13.604 872.943 12.884V14H873.519V10.028C873.519 8.48 872.655 7.688 871.107 7.688ZM870.771 13.556C869.667 13.556 869.031 13.052 869.031 12.236C869.031 11.516 869.487 10.976 870.783 10.976H872.919V12.152C872.559 13.052 871.827 13.556 870.771 13.556ZM875.991 14H876.591V5.096H875.991V14ZM879.048 14.048C879.324 14.048 879.552 13.82 879.552 13.532C879.552 13.244 879.324 13.028 879.048 13.028C878.772 13.028 878.544 13.244 878.544 13.532C878.544 13.82 878.772 14.048 879.048 14.048ZM888.348 14.06C889.536 14.06 890.604 13.664 891.336 12.884L890.952 12.488C890.232 13.196 889.356 13.496 888.372 13.496C886.224 13.496 884.604 11.912 884.604 9.8C884.604 7.688 886.224 6.104 888.372 6.104C889.356 6.104 890.232 6.392 890.952 7.1L891.336 6.704C890.604 5.924 889.536 5.54 888.348 5.54C885.852 5.54 883.992 7.352 883.992 9.8C883.992 12.248 885.852 14.06 888.348 14.06ZM896.254 7.688C895.09 7.688 894.226 8.192 893.794 9.044V5.096H893.194V14H893.794V10.664C893.794 9.176 894.694 8.228 896.17 8.228C897.442 8.228 898.198 8.972 898.198 10.388V14H898.798V10.34C898.798 8.588 897.778 7.688 896.254 7.688ZM901.844 9.104V7.736H901.268V14H901.868V10.736C901.868 9.188 902.696 8.264 904.088 8.264C904.136 8.264 904.184 8.276 904.232 8.276V7.688C903.056 7.688 902.228 8.192 901.844 9.104ZM908.275 14.048C910.075 14.048 911.407 12.728 911.407 10.868C911.407 9.008 910.075 7.688 908.275 7.688C906.475 7.688 905.143 9.008 905.143 10.868C905.143 12.728 906.475 14.048 908.275 14.048ZM908.275 13.508C906.835 13.508 905.755 12.44 905.755 10.868C905.755 9.296 906.835 8.228 908.275 8.228C909.715 8.228 910.795 9.296 910.795 10.868C910.795 12.44 909.715 13.508 908.275 13.508ZM921.068 7.688C919.856 7.688 918.944 8.288 918.536 9.2C918.2 8.204 917.372 7.688 916.244 7.688C915.104 7.688 914.252 8.204 913.844 9.08V7.736H913.268V14H913.868V10.664C913.868 9.176 914.744 8.228 916.16 8.228C917.384 8.228 918.116 8.972 918.116 10.388V14H918.716V10.664C918.716 9.176 919.592 8.228 921.008 8.228C922.232 8.228 922.964 8.972 922.964 10.388V14H923.564V10.34C923.564 8.588 922.58 7.688 921.068 7.688ZM931.357 10.844C931.357 8.984 930.085 7.688 928.369 7.688C926.653 7.688 925.369 9.008 925.369 10.868C925.369 12.728 926.701 14.048 928.597 14.048C929.545 14.048 930.409 13.7 930.961 13.028L930.613 12.632C930.133 13.22 929.401 13.508 928.609 13.508C927.109 13.508 926.017 12.5 925.957 11.012H931.345C931.345 10.952 931.357 10.892 931.357 10.844ZM928.369 8.216C929.701 8.216 930.685 9.188 930.769 10.544H925.969C926.065 9.176 927.037 8.216 928.369 8.216ZM530.384 31.688C529.412 31.688 528.5 32.024 527.876 32.576L528.176 33.008C528.692 32.54 529.472 32.216 530.336 32.216C531.56 32.216 532.196 32.84 532.196 34.004V34.508H530.048C528.308 34.508 527.708 35.312 527.708 36.26C527.708 37.328 528.56 38.048 529.964 38.048C531.056 38.048 531.824 37.604 532.22 36.884V38H532.796V34.028C532.796 32.48 531.932 31.688 530.384 31.688ZM530.048 37.556C528.944 37.556 528.308 37.052 528.308 36.236C528.308 35.516 528.764 34.976 530.06 34.976H532.196V36.152C531.836 37.052 531.104 37.556 530.048 37.556ZM537.764 38.048C538.76 38.048 539.624 37.652 540.14 36.896L539.696 36.572C539.24 37.208 538.544 37.508 537.764 37.508C536.288 37.508 535.208 36.452 535.208 34.868C535.208 33.284 536.288 32.228 537.764 32.228C538.544 32.228 539.24 32.528 539.696 33.164L540.14 32.84C539.624 32.072 538.76 31.688 537.764 31.688C535.928 31.688 534.596 32.996 534.596 34.868C534.596 36.728 535.928 38.048 537.764 38.048ZM544.315 38.048C545.311 38.048 546.175 37.652 546.691 36.896L546.247 36.572C545.791 37.208 545.095 37.508 544.315 37.508C542.839 37.508 541.759 36.452 541.759 34.868C541.759 33.284 542.839 32.228 544.315 32.228C545.095 32.228 545.791 32.528 546.247 33.164L546.691 32.84C546.175 32.072 545.311 31.688 544.315 31.688C542.479 31.688 541.147 32.996 541.147 34.868C541.147 36.728 542.479 38.048 544.315 38.048ZM553.685 34.844C553.685 32.984 552.413 31.688 550.697 31.688C548.981 31.688 547.697 33.008 547.697 34.868C547.697 36.728 549.029 38.048 550.925 38.048C551.873 38.048 552.737 37.7 553.289 37.028L552.941 36.632C552.461 37.22 551.729 37.508 550.937 37.508C549.437 37.508 548.345 36.5 548.285 35.012H553.673C553.673 34.952 553.685 34.892 553.685 34.844ZM550.697 32.216C552.029 32.216 553.013 33.188 553.097 34.544H548.297C548.393 33.176 549.365 32.216 550.697 32.216ZM558.602 31.688C557.414 31.688 556.538 32.216 556.118 33.092V31.736H555.542V38H556.142V34.664C556.142 33.176 557.042 32.228 558.518 32.228C559.79 32.228 560.546 32.972 560.546 34.388V38H561.146V34.34C561.146 32.588 560.126 31.688 558.602 31.688ZM566.472 37.184C566.22 37.412 565.872 37.532 565.5 37.532C564.732 37.532 564.336 37.088 564.336 36.284V32.252H566.328V31.736H564.336V30.368H563.736V31.736H562.584V32.252H563.736V36.344C563.736 37.4 564.336 38.048 565.44 38.048C565.908 38.048 566.412 37.904 566.724 37.604L566.472 37.184ZM569.981 38.048C571.577 38.048 572.453 37.352 572.453 36.332C572.453 33.944 568.301 35.276 568.301 33.392C568.301 32.72 568.841 32.216 570.065 32.216C570.737 32.216 571.421 32.396 571.949 32.78L572.225 32.3C571.733 31.928 570.869 31.688 570.077 31.688C568.493 31.688 567.701 32.456 567.701 33.404C567.701 35.864 571.853 34.52 571.853 36.344C571.853 37.052 571.325 37.52 570.005 37.52C569.081 37.52 568.229 37.172 567.749 36.764L567.473 37.244C567.965 37.7 568.949 38.048 569.981 38.048ZM577.51 30.212C577.786 30.212 578.002 29.996 578.002 29.72C578.002 29.456 577.786 29.24 577.51 29.24C577.234 29.24 577.018 29.468 577.018 29.732C577.018 29.996 577.234 30.212 577.51 30.212ZM577.21 38H577.81V31.736H577.21V38ZM583.398 31.688C582.21 31.688 581.334 32.216 580.914 33.092V31.736H580.338V38H580.938V34.664C580.938 33.176 581.838 32.228 583.314 32.228C584.586 32.228 585.342 32.972 585.342 34.388V38H585.942V34.34C585.942 32.588 584.922 31.688 583.398 31.688ZM591.855 30.212C592.131 30.212 592.347 29.996 592.347 29.72C592.347 29.456 592.131 29.24 591.855 29.24C591.579 29.24 591.363 29.468 591.363 29.732C591.363 29.996 591.579 30.212 591.855 30.212ZM590.463 40.376C591.555 40.376 592.155 39.68 592.155 38.624V31.736H591.555V38.6C591.555 39.416 591.159 39.86 590.427 39.86C590.019 39.86 589.659 39.74 589.407 39.512L589.167 39.956C589.467 40.244 589.959 40.376 590.463 40.376ZM599.566 31.736V35.072C599.566 36.56 598.69 37.508 597.274 37.508C595.966 37.508 595.21 36.764 595.21 35.348V31.736H594.61V35.396C594.61 37.148 595.63 38.048 597.226 38.048C598.33 38.048 599.182 37.532 599.59 36.656V38H600.166V31.736H599.566ZM604.294 38.048C605.89 38.048 606.766 37.352 606.766 36.332C606.766 33.944 602.614 35.276 602.614 33.392C602.614 32.72 603.154 32.216 604.378 32.216C605.05 32.216 605.734 32.396 606.262 32.78L606.538 32.3C606.046 31.928 605.182 31.688 604.39 31.688C602.806 31.688 602.014 32.456 602.014 33.404C602.014 35.864 606.166 34.52 606.166 36.344C606.166 37.052 605.638 37.52 604.318 37.52C603.394 37.52 602.542 37.172 602.062 36.764L601.786 37.244C602.278 37.7 603.262 38.048 604.294 38.048ZM611.296 37.184C611.044 37.412 610.696 37.532 610.324 37.532C609.556 37.532 609.16 37.088 609.16 36.284V32.252H611.152V31.736H609.16V30.368H608.56V31.736H607.408V32.252H608.56V36.344C608.56 37.4 609.16 38.048 610.264 38.048C610.732 38.048 611.236 37.904 611.548 37.604L611.296 37.184ZM619.159 37.184C618.907 37.412 618.559 37.532 618.187 37.532C617.419 37.532 617.023 37.088 617.023 36.284V32.252H619.015V31.736H617.023V30.368H616.423V31.736H615.271V32.252H616.423V36.344C616.423 37.4 617.023 38.048 618.127 38.048C618.595 38.048 619.099 37.904 619.411 37.604L619.159 37.184ZM624.145 31.688C622.98 31.688 622.117 32.192 621.685 33.044V29.096H621.085V38H621.685V34.664C621.685 33.176 622.585 32.228 624.061 32.228C625.333 32.228 626.089 32.972 626.089 34.388V38H626.689V34.34C626.689 32.588 625.669 31.688 624.145 31.688ZM634.474 34.844C634.474 32.984 633.202 31.688 631.486 31.688C629.77 31.688 628.486 33.008 628.486 34.868C628.486 36.728 629.818 38.048 631.714 38.048C632.662 38.048 633.526 37.7 634.078 37.028L633.73 36.632C633.25 37.22 632.518 37.508 631.726 37.508C630.226 37.508 629.134 36.5 629.074 35.012H634.462C634.462 34.952 634.474 34.892 634.474 34.844ZM631.486 32.216C632.818 32.216 633.802 33.188 633.886 34.544H629.086C629.182 33.176 630.154 32.216 631.486 32.216ZM639.989 33.104V31.736H639.413V38H640.013V34.736C640.013 33.188 640.841 32.264 642.233 32.264C642.281 32.264 642.329 32.276 642.377 32.276V31.688C641.201 31.688 640.373 32.192 639.989 33.104ZM644.33 30.212C644.606 30.212 644.822 29.996 644.822 29.72C644.822 29.456 644.606 29.24 644.33 29.24C644.054 29.24 643.838 29.468 643.838 29.732C643.838 29.996 644.054 30.212 644.33 30.212ZM644.03 38H644.63V31.736H644.03V38ZM652.223 31.736V33.152C651.719 32.216 650.747 31.688 649.595 31.688C647.819 31.688 646.475 32.936 646.475 34.724C646.475 36.512 647.819 37.772 649.595 37.772C650.723 37.772 651.683 37.256 652.199 36.344V37.4C652.199 39.068 651.419 39.836 649.751 39.836C648.743 39.836 647.843 39.5 647.219 38.924L646.895 39.38C647.531 40.016 648.623 40.376 649.763 40.376C651.779 40.376 652.799 39.428 652.799 37.328V31.736H652.223ZM649.643 37.232C648.167 37.232 647.087 36.2 647.087 34.724C647.087 33.248 648.167 32.228 649.643 32.228C651.131 32.228 652.211 33.248 652.211 34.724C652.211 36.2 651.131 37.232 649.643 37.232ZM658.398 31.688C657.234 31.688 656.37 32.192 655.938 33.044V29.096H655.338V38H655.938V34.664C655.938 33.176 656.838 32.228 658.314 32.228C659.586 32.228 660.342 32.972 660.342 34.388V38H660.942V34.34C660.942 32.588 659.922 31.688 658.398 31.688ZM666.269 37.184C666.017 37.412 665.669 37.532 665.297 37.532C664.529 37.532 664.133 37.088 664.133 36.284V32.252H666.125V31.736H664.133V30.368H663.533V31.736H662.381V32.252H663.533V36.344C663.533 37.4 664.133 38.048 665.237 38.048C665.705 38.048 666.209 37.904 666.521 37.604L666.269 37.184ZM674.42 31.688C673.292 31.688 672.344 32.252 671.852 33.212V31.736H671.276V40.328H671.876V36.572C672.38 37.508 673.316 38.048 674.42 38.048C676.184 38.048 677.516 36.752 677.516 34.868C677.516 32.996 676.184 31.688 674.42 31.688ZM674.384 37.508C672.944 37.508 671.864 36.44 671.864 34.868C671.864 33.296 672.944 32.228 674.384 32.228C675.824 32.228 676.916 33.296 676.916 34.868C676.916 36.44 675.824 37.508 674.384 37.508ZM679.374 38H679.974V29.096H679.374V38ZM684.614 31.688C683.642 31.688 682.73 32.024 682.106 32.576L682.406 33.008C682.922 32.54 683.702 32.216 684.566 32.216C685.79 32.216 686.426 32.84 686.426 34.004V34.508H684.278C682.538 34.508 681.938 35.312 681.938 36.26C681.938 37.328 682.79 38.048 684.194 38.048C685.286 38.048 686.054 37.604 686.45 36.884V38H687.026V34.028C687.026 32.48 686.162 31.688 684.614 31.688ZM684.278 37.556C683.174 37.556 682.538 37.052 682.538 36.236C682.538 35.516 682.994 34.976 684.29 34.976H686.426V36.152C686.066 37.052 685.334 37.556 684.278 37.556ZM691.994 38.048C692.99 38.048 693.854 37.652 694.37 36.896L693.926 36.572C693.47 37.208 692.774 37.508 691.994 37.508C690.518 37.508 689.438 36.452 689.438 34.868C689.438 33.284 690.518 32.228 691.994 32.228C692.774 32.228 693.47 32.528 693.926 33.164L694.37 32.84C693.854 32.072 692.99 31.688 691.994 31.688C690.158 31.688 688.826 32.996 688.826 34.868C688.826 36.728 690.158 38.048 691.994 38.048ZM701.365 34.844C701.365 32.984 700.093 31.688 698.377 31.688C696.661 31.688 695.377 33.008 695.377 34.868C695.377 36.728 696.709 38.048 698.605 38.048C699.553 38.048 700.417 37.7 700.969 37.028L700.621 36.632C700.141 37.22 699.409 37.508 698.617 37.508C697.117 37.508 696.025 36.5 695.965 35.012H701.353C701.353 34.952 701.365 34.892 701.365 34.844ZM698.377 32.216C699.709 32.216 700.693 33.188 700.777 34.544H695.977C696.073 33.176 697.045 32.216 698.377 32.216ZM704.805 38.048C706.401 38.048 707.277 37.352 707.277 36.332C707.277 33.944 703.125 35.276 703.125 33.392C703.125 32.72 703.665 32.216 704.889 32.216C705.561 32.216 706.245 32.396 706.773 32.78L707.049 32.3C706.557 31.928 705.693 31.688 704.901 31.688C703.317 31.688 702.525 32.456 702.525 33.404C702.525 35.864 706.677 34.52 706.677 36.344C706.677 37.052 706.149 37.52 704.829 37.52C703.905 37.52 703.053 37.172 702.573 36.764L702.297 37.244C702.789 37.7 703.773 38.048 704.805 38.048ZM719.834 31.688C718.622 31.688 717.71 32.288 717.302 33.2C716.966 32.204 716.138 31.688 715.01 31.688C713.87 31.688 713.018 32.204 712.61 33.08V31.736H712.034V38H712.634V34.664C712.634 33.176 713.51 32.228 714.926 32.228C716.15 32.228 716.882 32.972 716.882 34.388V38H717.482V34.664C717.482 33.176 718.358 32.228 719.774 32.228C720.998 32.228 721.73 32.972 721.73 34.388V38H722.33V34.34C722.33 32.588 721.346 31.688 719.834 31.688ZM726.919 31.688C725.947 31.688 725.035 32.024 724.411 32.576L724.711 33.008C725.227 32.54 726.007 32.216 726.871 32.216C728.095 32.216 728.731 32.84 728.731 34.004V34.508H726.583C724.843 34.508 724.243 35.312 724.243 36.26C724.243 37.328 725.095 38.048 726.499 38.048C727.591 38.048 728.359 37.604 728.755 36.884V38H729.331V34.028C729.331 32.48 728.467 31.688 726.919 31.688ZM726.583 37.556C725.479 37.556 724.843 37.052 724.843 36.236C724.843 35.516 725.299 34.976 726.595 34.976H728.731V36.152C728.371 37.052 727.639 37.556 726.583 37.556ZM736.699 38H737.443L734.479 34.268L737.179 31.736H736.411L732.403 35.396V29.096H731.803V38H732.403V36.14L734.035 34.652L736.699 38ZM743.904 34.844C743.904 32.984 742.632 31.688 740.916 31.688C739.2 31.688 737.916 33.008 737.916 34.868C737.916 36.728 739.248 38.048 741.144 38.048C742.092 38.048 742.956 37.7 743.508 37.028L743.16 36.632C742.68 37.22 741.948 37.508 741.156 37.508C739.656 37.508 738.564 36.5 738.504 35.012H743.892C743.892 34.952 743.904 34.892 743.904 34.844ZM740.916 32.216C742.248 32.216 743.232 33.188 743.316 34.544H738.516C738.612 33.176 739.584 32.216 740.916 32.216ZM751.698 37.184C751.446 37.412 751.098 37.532 750.726 37.532C749.958 37.532 749.562 37.088 749.562 36.284V32.252H751.554V31.736H749.562V30.368H748.962V31.736H747.81V32.252H748.962V36.344C748.962 37.4 749.562 38.048 750.666 38.048C751.134 38.048 751.638 37.904 751.95 37.604L751.698 37.184ZM756.684 31.688C755.52 31.688 754.656 32.192 754.224 33.044V29.096H753.624V38H754.224V34.664C754.224 33.176 755.124 32.228 756.6 32.228C757.872 32.228 758.628 32.972 758.628 34.388V38H759.228V34.34C759.228 32.588 758.208 31.688 756.684 31.688ZM767.014 34.844C767.014 32.984 765.742 31.688 764.026 31.688C762.31 31.688 761.026 33.008 761.026 34.868C761.026 36.728 762.358 38.048 764.254 38.048C765.202 38.048 766.066 37.7 766.618 37.028L766.27 36.632C765.79 37.22 765.058 37.508 764.266 37.508C762.766 37.508 761.674 36.5 761.614 35.012H767.002C767.002 34.952 767.014 34.892 767.014 34.844ZM764.026 32.216C765.358 32.216 766.342 33.188 766.426 34.544H761.626C761.722 33.176 762.694 32.216 764.026 32.216ZM775.096 31.688C773.992 31.688 773.056 32.228 772.552 33.164V29.096H771.952V38H772.528V36.524C773.02 37.484 773.968 38.048 775.096 38.048C776.86 38.048 778.192 36.74 778.192 34.868C778.192 32.984 776.86 31.688 775.096 31.688ZM775.06 37.508C773.62 37.508 772.54 36.44 772.54 34.868C772.54 33.296 773.62 32.228 775.06 32.228C776.5 32.228 777.592 33.296 777.592 34.868C777.592 36.44 776.5 37.508 775.06 37.508ZM780.349 30.212C780.625 30.212 780.841 29.996 780.841 29.72C780.841 29.456 780.625 29.24 780.349 29.24C780.073 29.24 779.857 29.468 779.857 29.732C779.857 29.996 780.073 30.212 780.349 30.212ZM780.049 38H780.649V31.736H780.049V38ZM788.074 38H788.818L785.854 34.268L788.554 31.736H787.786L783.778 35.396V29.096H783.178V38H783.778V36.14L785.41 34.652L788.074 38ZM795.279 34.844C795.279 32.984 794.007 31.688 792.291 31.688C790.575 31.688 789.291 33.008 789.291 34.868C789.291 36.728 790.623 38.048 792.519 38.048C793.467 38.048 794.331 37.7 794.883 37.028L794.535 36.632C794.055 37.22 793.323 37.508 792.531 37.508C791.031 37.508 789.939 36.5 789.879 35.012H795.267C795.267 34.952 795.279 34.892 795.279 34.844ZM792.291 32.216C793.623 32.216 794.607 33.188 794.691 34.544H789.891C789.987 33.176 790.959 32.216 792.291 32.216ZM801.801 38.048C803.397 38.048 804.273 37.352 804.273 36.332C804.273 33.944 800.121 35.276 800.121 33.392C800.121 32.72 800.661 32.216 801.885 32.216C802.557 32.216 803.241 32.396 803.769 32.78L804.045 32.3C803.553 31.928 802.689 31.688 801.897 31.688C800.313 31.688 799.521 32.456 799.521 33.404C799.521 35.864 803.673 34.52 803.673 36.344C803.673 37.052 803.145 37.52 801.825 37.52C800.901 37.52 800.049 37.172 799.569 36.764L799.293 37.244C799.785 37.7 800.769 38.048 801.801 38.048ZM808.804 37.184C808.552 37.412 808.204 37.532 807.832 37.532C807.064 37.532 806.668 37.088 806.668 36.284V32.252H808.66V31.736H806.668V30.368H806.068V31.736H804.916V32.252H806.068V36.344C806.068 37.4 806.668 38.048 807.772 38.048C808.24 38.048 808.744 37.904 809.056 37.604L808.804 37.184ZM812.841 31.688C811.869 31.688 810.957 32.024 810.333 32.576L810.633 33.008C811.149 32.54 811.929 32.216 812.793 32.216C814.017 32.216 814.653 32.84 814.653 34.004V34.508H812.505C810.765 34.508 810.165 35.312 810.165 36.26C810.165 37.328 811.017 38.048 812.421 38.048C813.513 38.048 814.281 37.604 814.677 36.884V38H815.253V34.028C815.253 32.48 814.389 31.688 812.841 31.688ZM812.505 37.556C811.401 37.556 810.765 37.052 810.765 36.236C810.765 35.516 811.221 34.976 812.517 34.976H814.653V36.152C814.293 37.052 813.561 37.556 812.505 37.556ZM820.785 31.688C819.597 31.688 818.721 32.216 818.301 33.092V31.736H817.725V38H818.325V34.664C818.325 33.176 819.225 32.228 820.701 32.228C821.973 32.228 822.729 32.972 822.729 34.388V38H823.329V34.34C823.329 32.588 822.309 31.688 820.785 31.688ZM830.779 29.096V33.188C830.275 32.24 829.339 31.688 828.223 31.688C826.459 31.688 825.127 32.984 825.127 34.868C825.127 36.74 826.459 38.048 828.223 38.048C829.351 38.048 830.299 37.496 830.791 36.524V38H831.379V29.096H830.779ZM828.259 37.508C826.819 37.508 825.739 36.44 825.739 34.868C825.739 33.296 826.819 32.228 828.259 32.228C829.699 32.228 830.779 33.296 830.779 34.868C830.779 36.44 829.699 37.508 828.259 37.508ZM839.439 38.048C841.239 38.048 842.571 36.728 842.571 34.868C842.571 33.008 841.239 31.688 839.439 31.688C837.639 31.688 836.307 33.008 836.307 34.868C836.307 36.728 837.639 38.048 839.439 38.048ZM839.439 37.508C837.999 37.508 836.919 36.44 836.919 34.868C836.919 33.296 837.999 32.228 839.439 32.228C840.879 32.228 841.959 33.296 841.959 34.868C841.959 36.44 840.879 37.508 839.439 37.508ZM849.316 31.736V35.072C849.316 36.56 848.44 37.508 847.024 37.508C845.716 37.508 844.96 36.764 844.96 35.348V31.736H844.36V35.396C844.36 37.148 845.38 38.048 846.976 38.048C848.08 38.048 848.932 37.532 849.34 36.656V38H849.916V31.736H849.316ZM855.316 37.184C855.064 37.412 854.715 37.532 854.344 37.532C853.576 37.532 853.18 37.088 853.18 36.284V32.252H855.172V31.736H853.18V30.368H852.58V31.736H851.428V32.252H852.58V36.344C852.58 37.4 853.18 38.048 854.284 38.048C854.752 38.048 855.256 37.904 855.568 37.604L855.316 37.184ZM857.286 37.028C856.998 37.028 856.782 37.244 856.782 37.532C856.782 37.784 856.938 37.964 857.178 38.024L856.782 39.716H857.214L857.682 38.084C857.754 37.832 857.79 37.712 857.79 37.532C857.79 37.268 857.586 37.028 857.286 37.028ZM871.242 31.736L869.13 37.316L867.006 31.736H866.49L864.354 37.328L862.266 31.736H861.69L864.066 38H864.618L866.742 32.564L868.854 38H869.418L871.794 31.736H871.242ZM876.25 31.688C875.086 31.688 874.222 32.192 873.79 33.044V29.096H873.19V38H873.79V34.664C873.79 33.176 874.69 32.228 876.166 32.228C877.438 32.228 878.194 32.972 878.194 34.388V38H878.794V34.34C878.794 32.588 877.774 31.688 876.25 31.688ZM881.564 30.212C881.84 30.212 882.056 29.996 882.056 29.72C882.056 29.456 881.84 29.24 881.564 29.24C881.288 29.24 881.072 29.468 881.072 29.732C881.072 29.996 881.288 30.212 881.564 30.212ZM881.264 38H881.864V31.736H881.264V38ZM884.393 38H884.993V29.096H884.393V38ZM892.826 34.844C892.826 32.984 891.554 31.688 889.838 31.688C888.122 31.688 886.838 33.008 886.838 34.868C886.838 36.728 888.17 38.048 890.066 38.048C891.014 38.048 891.878 37.7 892.43 37.028L892.082 36.632C891.602 37.22 890.87 37.508 890.078 37.508C888.578 37.508 887.486 36.5 887.426 35.012H892.814C892.814 34.952 892.826 34.892 892.826 34.844ZM889.838 32.216C891.17 32.216 892.154 33.188 892.238 34.544H887.438C887.534 33.176 888.506 32.216 889.838 32.216ZM900.62 37.184C900.368 37.412 900.02 37.532 899.648 37.532C898.88 37.532 898.484 37.088 898.484 36.284V32.252H900.476V31.736H898.484V30.368H897.884V31.736H896.732V32.252H897.884V36.344C897.884 37.4 898.484 38.048 899.588 38.048C900.056 38.048 900.56 37.904 900.872 37.604L900.62 37.184ZM905.605 31.688C904.441 31.688 903.577 32.192 903.145 33.044V29.096H902.545V38H903.145V34.664C903.145 33.176 904.045 32.228 905.521 32.228C906.793 32.228 907.549 32.972 907.549 34.388V38H908.149V34.34C908.149 32.588 907.129 31.688 905.605 31.688ZM915.935 34.844C915.935 32.984 914.663 31.688 912.947 31.688C911.231 31.688 909.947 33.008 909.947 34.868C909.947 36.728 911.279 38.048 913.175 38.048C914.123 38.048 914.987 37.7 915.539 37.028L915.191 36.632C914.711 37.22 913.979 37.508 913.187 37.508C911.687 37.508 910.595 36.5 910.535 35.012H915.923C915.923 34.952 915.935 34.892 915.935 34.844ZM912.947 32.216C914.279 32.216 915.263 33.188 915.347 34.544H910.547C910.643 33.176 911.615 32.216 912.947 32.216ZM531.416 55.688C530.312 55.688 529.376 56.228 528.872 57.164V53.096H528.272V62H528.848V60.524C529.34 61.484 530.288 62.048 531.416 62.048C533.18 62.048 534.512 60.74 534.512 58.868C534.512 56.984 533.18 55.688 531.416 55.688ZM531.38 61.508C529.94 61.508 528.86 60.44 528.86 58.868C528.86 57.296 529.94 56.228 531.38 56.228C532.82 56.228 533.912 57.296 533.912 58.868C533.912 60.44 532.82 61.508 531.38 61.508ZM536.37 62H536.97V53.096H536.37V62ZM541.611 55.688C540.639 55.688 539.727 56.024 539.103 56.576L539.403 57.008C539.919 56.54 540.699 56.216 541.563 56.216C542.787 56.216 543.423 56.84 543.423 58.004V58.508H541.275C539.535 58.508 538.935 59.312 538.935 60.26C538.935 61.328 539.787 62.048 541.191 62.048C542.283 62.048 543.051 61.604 543.447 60.884V62H544.023V58.028C544.023 56.48 543.159 55.688 541.611 55.688ZM541.275 61.556C540.171 61.556 539.535 61.052 539.535 60.236C539.535 59.516 539.991 58.976 541.287 58.976H543.423V60.152C543.063 61.052 542.331 61.556 541.275 61.556ZM548.99 62.048C549.986 62.048 550.85 61.652 551.366 60.896L550.922 60.572C550.466 61.208 549.77 61.508 548.99 61.508C547.514 61.508 546.434 60.452 546.434 58.868C546.434 57.284 547.514 56.228 548.99 56.228C549.77 56.228 550.466 56.528 550.922 57.164L551.366 56.84C550.85 56.072 549.986 55.688 548.99 55.688C547.154 55.688 545.822 56.996 545.822 58.868C545.822 60.728 547.154 62.048 548.99 62.048ZM557.953 62H558.697L555.733 58.268L558.433 55.736H557.665L553.657 59.396V53.096H553.057V62H553.657V60.14L555.289 58.652L557.953 62ZM559.326 59.048H562.41V58.508H559.326V59.048ZM566.99 62.048C568.79 62.048 570.122 60.728 570.122 58.868C570.122 57.008 568.79 55.688 566.99 55.688C565.19 55.688 563.858 57.008 563.858 58.868C563.858 60.728 565.19 62.048 566.99 62.048ZM566.99 61.508C565.55 61.508 564.47 60.44 564.47 58.868C564.47 57.296 565.55 56.228 566.99 56.228C568.43 56.228 569.51 57.296 569.51 58.868C569.51 60.44 568.43 61.508 566.99 61.508ZM575.043 55.688C573.855 55.688 572.979 56.216 572.559 57.092V55.736H571.983V62H572.583V58.664C572.583 57.176 573.483 56.228 574.959 56.228C576.231 56.228 576.987 56.972 576.987 58.388V62H577.587V58.34C577.587 56.588 576.567 55.688 575.043 55.688ZM579.529 59.048H582.613V58.508H579.529V59.048ZM587.771 55.688C586.667 55.688 585.731 56.228 585.227 57.164V53.096H584.627V62H585.203V60.524C585.695 61.484 586.643 62.048 587.771 62.048C589.535 62.048 590.867 60.74 590.867 58.868C590.867 56.984 589.535 55.688 587.771 55.688ZM587.735 61.508C586.295 61.508 585.215 60.44 585.215 58.868C585.215 57.296 586.295 56.228 587.735 56.228C589.175 56.228 590.267 57.296 590.267 58.868C590.267 60.44 589.175 61.508 587.735 61.508ZM592.725 62H593.325V53.096H592.725V62ZM597.966 55.688C596.994 55.688 596.082 56.024 595.458 56.576L595.758 57.008C596.274 56.54 597.054 56.216 597.918 56.216C599.142 56.216 599.778 56.84 599.778 58.004V58.508H597.63C595.89 58.508 595.29 59.312 595.29 60.26C595.29 61.328 596.142 62.048 597.546 62.048C598.638 62.048 599.406 61.604 599.802 60.884V62H600.378V58.028C600.378 56.48 599.514 55.688 597.966 55.688ZM597.63 61.556C596.526 61.556 595.89 61.052 595.89 60.236C595.89 59.516 596.346 58.976 597.642 58.976H599.778V60.152C599.418 61.052 598.686 61.556 597.63 61.556ZM605.346 62.048C606.342 62.048 607.206 61.652 607.722 60.896L607.278 60.572C606.822 61.208 606.126 61.508 605.346 61.508C603.87 61.508 602.79 60.452 602.79 58.868C602.79 57.284 603.87 56.228 605.346 56.228C606.126 56.228 606.822 56.528 607.278 57.164L607.722 56.84C607.206 56.072 606.342 55.688 605.346 55.688C603.51 55.688 602.178 56.996 602.178 58.868C602.178 60.728 603.51 62.048 605.346 62.048ZM614.309 62H615.053L612.089 58.268L614.789 55.736H614.021L610.013 59.396V53.096H609.413V62H610.013V60.14L611.645 58.652L614.309 62ZM621.133 62.048C622.729 62.048 623.605 61.352 623.605 60.332C623.605 57.944 619.453 59.276 619.453 57.392C619.453 56.72 619.993 56.216 621.217 56.216C621.889 56.216 622.573 56.396 623.101 56.78L623.377 56.3C622.885 55.928 622.021 55.688 621.229 55.688C619.645 55.688 618.853 56.456 618.853 57.404C618.853 59.864 623.005 58.52 623.005 60.344C623.005 61.052 622.477 61.52 621.157 61.52C620.233 61.52 619.381 61.172 618.901 60.764L618.625 61.244C619.117 61.7 620.101 62.048 621.133 62.048ZM627.392 55.688C626.42 55.688 625.508 56.024 624.884 56.576L625.184 57.008C625.7 56.54 626.48 56.216 627.344 56.216C628.568 56.216 629.204 56.84 629.204 58.004V58.508H627.056C625.316 58.508 624.716 59.312 624.716 60.26C624.716 61.328 625.568 62.048 626.972 62.048C628.064 62.048 628.832 61.604 629.228 60.884V62H629.804V58.028C629.804 56.48 628.94 55.688 627.392 55.688ZM627.056 61.556C625.952 61.556 625.316 61.052 625.316 60.236C625.316 59.516 625.772 58.976 627.068 58.976H629.204V60.152C628.844 61.052 628.112 61.556 627.056 61.556ZM635.132 61.184C634.88 61.412 634.532 61.532 634.16 61.532C633.392 61.532 632.996 61.088 632.996 60.284V56.252H634.988V55.736H632.996V54.368H632.396V55.736H631.244V56.252H632.396V60.344C632.396 61.4 632.996 62.048 634.1 62.048C634.568 62.048 635.072 61.904 635.384 61.604L635.132 61.184ZM637.357 54.212C637.633 54.212 637.849 53.996 637.849 53.72C637.849 53.456 637.633 53.24 637.357 53.24C637.081 53.24 636.865 53.468 636.865 53.732C636.865 53.996 637.081 54.212 637.357 54.212ZM637.057 62H637.657V55.736H637.057V62ZM643.246 55.688C642.058 55.688 641.182 56.216 640.762 57.092V55.736H640.186V62H640.786V58.664C640.786 57.176 641.686 56.228 643.162 56.228C644.434 56.228 645.19 56.972 645.19 58.388V62H645.79V58.34C645.79 56.588 644.77 55.688 643.246 55.688ZM654.198 61.184C653.946 61.412 653.598 61.532 653.226 61.532C652.458 61.532 652.062 61.088 652.062 60.284V56.252H654.054V55.736H652.062V54.368H651.462V55.736H650.31V56.252H651.462V60.344C651.462 61.4 652.062 62.048 653.166 62.048C653.634 62.048 654.138 61.904 654.45 61.604L654.198 61.184ZM661.205 58.844C661.205 56.984 659.933 55.688 658.217 55.688C656.501 55.688 655.217 57.008 655.217 58.868C655.217 60.728 656.549 62.048 658.445 62.048C659.393 62.048 660.257 61.7 660.809 61.028L660.461 60.632C659.981 61.22 659.249 61.508 658.457 61.508C656.957 61.508 655.865 60.5 655.805 59.012H661.193C661.193 58.952 661.205 58.892 661.205 58.844ZM658.217 56.216C659.549 56.216 660.533 57.188 660.617 58.544H655.817C655.913 57.176 656.885 56.216 658.217 56.216ZM667.577 62L665.057 58.772L667.409 55.736H666.737L664.721 58.34L662.705 55.736H662.021L664.373 58.772L661.889 62H662.573L664.721 59.204L666.869 62H667.577ZM671.964 61.184C671.712 61.412 671.364 61.532 670.992 61.532C670.224 61.532 669.828 61.088 669.828 60.284V56.252H671.82V55.736H669.828V54.368H669.228V55.736H668.076V56.252H669.228V60.344C669.228 61.4 669.828 62.048 670.932 62.048C671.4 62.048 671.904 61.904 672.216 61.604L671.964 61.184ZM679.419 62.048C681.219 62.048 682.551 60.728 682.551 58.868C682.551 57.008 681.219 55.688 679.419 55.688C677.619 55.688 676.287 57.008 676.287 58.868C676.287 60.728 677.619 62.048 679.419 62.048ZM679.419 61.508C677.979 61.508 676.899 60.44 676.899 58.868C676.899 57.296 677.979 56.228 679.419 56.228C680.859 56.228 681.939 57.296 681.939 58.868C681.939 60.44 680.859 61.508 679.419 61.508ZM687.473 55.688C686.285 55.688 685.409 56.216 684.989 57.092V55.736H684.413V62H685.013V58.664C685.013 57.176 685.913 56.228 687.389 56.228C688.661 56.228 689.417 56.972 689.417 58.388V62H690.017V58.34C690.017 56.588 688.997 55.688 687.473 55.688ZM698.425 61.184C698.173 61.412 697.825 61.532 697.453 61.532C696.685 61.532 696.289 61.088 696.289 60.284V56.252H698.281V55.736H696.289V54.368H695.689V55.736H694.537V56.252H695.689V60.344C695.689 61.4 696.289 62.048 697.393 62.048C697.861 62.048 698.365 61.904 698.677 61.604L698.425 61.184ZM703.41 55.688C702.246 55.688 701.382 56.192 700.95 57.044V53.096H700.35V62H700.95V58.664C700.95 57.176 701.85 56.228 703.326 56.228C704.598 56.228 705.354 56.972 705.354 58.388V62H705.954V58.34C705.954 56.588 704.934 55.688 703.41 55.688ZM713.74 58.844C713.74 56.984 712.468 55.688 710.752 55.688C709.036 55.688 707.752 57.008 707.752 58.868C707.752 60.728 709.084 62.048 710.98 62.048C711.928 62.048 712.792 61.7 713.344 61.028L712.996 60.632C712.516 61.22 711.784 61.508 710.992 61.508C709.492 61.508 708.4 60.5 708.34 59.012H713.728C713.728 58.952 713.74 58.892 713.74 58.844ZM710.752 56.216C712.084 56.216 713.068 57.188 713.152 58.544H708.352C708.448 57.176 709.42 56.216 710.752 56.216ZM721.822 55.688C720.718 55.688 719.782 56.228 719.278 57.164V53.096H718.678V62H719.254V60.524C719.746 61.484 720.694 62.048 721.822 62.048C723.586 62.048 724.918 60.74 724.918 58.868C724.918 56.984 723.586 55.688 721.822 55.688ZM721.786 61.508C720.346 61.508 719.266 60.44 719.266 58.868C719.266 57.296 720.346 56.228 721.786 56.228C723.226 56.228 724.318 57.296 724.318 58.868C724.318 60.44 723.226 61.508 721.786 61.508ZM727.076 54.212C727.352 54.212 727.568 53.996 727.568 53.72C727.568 53.456 727.352 53.24 727.076 53.24C726.8 53.24 726.584 53.468 726.584 53.732C726.584 53.996 726.8 54.212 727.076 54.212ZM726.776 62H727.376V55.736H726.776V62ZM734.801 62H735.545L732.581 58.268L735.281 55.736H734.513L730.505 59.396V53.096H729.905V62H730.505V60.14L732.137 58.652L734.801 62ZM742.006 58.844C742.006 56.984 740.734 55.688 739.018 55.688C737.302 55.688 736.018 57.008 736.018 58.868C736.018 60.728 737.35 62.048 739.246 62.048C740.194 62.048 741.058 61.7 741.61 61.028L741.262 60.632C740.782 61.22 740.05 61.508 739.258 61.508C737.758 61.508 736.666 60.5 736.606 59.012H741.994C741.994 58.952 742.006 58.892 742.006 58.844ZM739.018 56.216C740.35 56.216 741.334 57.188 741.418 58.544H736.618C736.714 57.176 737.686 56.216 739.018 56.216ZM743.743 53.048C743.455 53.048 743.239 53.264 743.239 53.552C743.239 53.804 743.395 53.984 743.635 54.044L743.239 55.736H743.671L744.139 54.104C744.211 53.852 744.247 53.732 744.247 53.552C744.247 53.288 744.043 53.048 743.743 53.048ZM747.614 62.048C749.21 62.048 750.086 61.352 750.086 60.332C750.086 57.944 745.934 59.276 745.934 57.392C745.934 56.72 746.474 56.216 747.698 56.216C748.37 56.216 749.054 56.396 749.582 56.78L749.858 56.3C749.366 55.928 748.502 55.688 747.71 55.688C746.126 55.688 745.334 56.456 745.334 57.404C745.334 59.864 749.486 58.52 749.486 60.344C749.486 61.052 748.958 61.52 747.638 61.52C746.714 61.52 745.862 61.172 745.382 60.764L745.106 61.244C745.598 61.7 746.582 62.048 747.614 62.048ZM756.726 53.564C757.098 53.564 757.446 53.684 757.698 53.912L757.938 53.456C757.638 53.18 757.158 53.048 756.702 53.048C755.586 53.048 754.962 53.732 754.962 54.776V55.736H753.81V56.252H754.962V62H755.562V56.252H757.554V55.736H755.55V54.824C755.55 53.996 755.946 53.564 756.726 53.564ZM761.122 62.048C762.922 62.048 764.254 60.728 764.254 58.868C764.254 57.008 762.922 55.688 761.122 55.688C759.322 55.688 757.99 57.008 757.99 58.868C757.99 60.728 759.322 62.048 761.122 62.048ZM761.122 61.508C759.682 61.508 758.602 60.44 758.602 58.868C758.602 57.296 759.682 56.228 761.122 56.228C762.562 56.228 763.642 57.296 763.642 58.868C763.642 60.44 762.562 61.508 761.122 61.508ZM766.692 57.104V55.736H766.116V62H766.716V58.736C766.716 57.188 767.544 56.264 768.936 56.264C768.984 56.264 769.032 56.276 769.08 56.276V55.688C767.904 55.688 767.076 56.192 766.692 57.104ZM775.629 62H776.373L773.409 58.268L776.109 55.736H775.341L771.333 59.396V53.096H770.733V62H771.333V60.14L772.965 58.652L775.629 62ZM777.002 59.048H780.086V58.508H777.002V59.048ZM787.281 55.736V57.152C786.777 56.216 785.805 55.688 784.653 55.688C782.877 55.688 781.533 56.936 781.533 58.724C781.533 60.512 782.877 61.772 784.653 61.772C785.781 61.772 786.741 61.256 787.257 60.344V61.4C787.257 63.068 786.477 63.836 784.809 63.836C783.801 63.836 782.901 63.5 782.277 62.924L781.953 63.38C782.589 64.016 783.681 64.376 784.821 64.376C786.837 64.376 787.857 63.428 787.857 61.328V55.736H787.281ZM784.701 61.232C783.225 61.232 782.145 60.2 782.145 58.724C782.145 57.248 783.225 56.228 784.701 56.228C786.189 56.228 787.269 57.248 787.269 58.724C787.269 60.2 786.189 61.232 784.701 61.232ZM795.281 55.736V59.072C795.281 60.56 794.405 61.508 792.989 61.508C791.681 61.508 790.925 60.764 790.925 59.348V55.736H790.325V59.396C790.325 61.148 791.345 62.048 792.941 62.048C794.045 62.048 794.897 61.532 795.305 60.656V62H795.881V55.736H795.281ZM800.536 55.688C799.564 55.688 798.652 56.024 798.028 56.576L798.328 57.008C798.844 56.54 799.624 56.216 800.488 56.216C801.712 56.216 802.348 56.84 802.348 58.004V58.508H800.2C798.46 58.508 797.86 59.312 797.86 60.26C797.86 61.328 798.712 62.048 800.116 62.048C801.208 62.048 801.976 61.604 802.372 60.884V62H802.948V58.028C802.948 56.48 802.084 55.688 800.536 55.688ZM800.2 61.556C799.096 61.556 798.46 61.052 798.46 60.236C798.46 59.516 798.916 58.976 800.212 58.976H802.348V60.152C801.988 61.052 801.256 61.556 800.2 61.556ZM805.996 57.104V55.736H805.42V62H806.02V58.736C806.02 57.188 806.848 56.264 808.24 56.264C808.288 56.264 808.336 56.276 808.384 56.276V55.688C807.208 55.688 806.38 56.192 805.996 57.104ZM814.947 53.096V57.188C814.443 56.24 813.507 55.688 812.391 55.688C810.627 55.688 809.295 56.984 809.295 58.868C809.295 60.74 810.627 62.048 812.391 62.048C813.519 62.048 814.467 61.496 814.959 60.524V62H815.547V53.096H814.947ZM812.427 61.508C810.987 61.508 809.907 60.44 809.907 58.868C809.907 57.296 810.987 56.228 812.427 56.228C813.867 56.228 814.947 57.296 814.947 58.868C814.947 60.44 813.867 61.508 812.427 61.508ZM819.661 62.048C821.257 62.048 822.133 61.352 822.133 60.332C822.133 57.944 817.981 59.276 817.981 57.392C817.981 56.72 818.521 56.216 819.745 56.216C820.417 56.216 821.101 56.396 821.629 56.78L821.905 56.3C821.413 55.928 820.549 55.688 819.757 55.688C818.173 55.688 817.381 56.456 817.381 57.404C817.381 59.864 821.533 58.52 821.533 60.344C821.533 61.052 821.005 61.52 819.685 61.52C818.761 61.52 817.909 61.172 817.429 60.764L817.153 61.244C817.645 61.7 818.629 62.048 819.661 62.048ZM829.949 55.688C828.785 55.688 827.921 56.192 827.489 57.044V53.096H826.889V62H827.489V58.664C827.489 57.176 828.389 56.228 829.865 56.228C831.137 56.228 831.893 56.972 831.893 58.388V62H832.493V58.34C832.493 56.588 831.473 55.688 829.949 55.688ZM840.279 58.844C840.279 56.984 839.007 55.688 837.291 55.688C835.575 55.688 834.291 57.008 834.291 58.868C834.291 60.728 835.623 62.048 837.519 62.048C838.467 62.048 839.331 61.7 839.883 61.028L839.535 60.632C839.055 61.22 838.323 61.508 837.531 61.508C836.031 61.508 834.939 60.5 834.879 59.012H840.267C840.267 58.952 840.279 58.892 840.279 58.844ZM837.291 56.216C838.623 56.216 839.607 57.188 839.691 58.544H834.891C834.987 57.176 835.959 56.216 837.291 56.216ZM842.135 62H842.735V53.096H842.135V62ZM848.408 55.688C847.28 55.688 846.332 56.252 845.84 57.212V55.736H845.264V64.328H845.864V60.572C846.368 61.508 847.304 62.048 848.408 62.048C850.172 62.048 851.504 60.752 851.504 58.868C851.504 56.996 850.172 55.688 848.408 55.688ZM848.372 61.508C846.932 61.508 845.852 60.44 845.852 58.868C845.852 57.296 846.932 56.228 848.372 56.228C849.812 56.228 850.904 57.296 850.904 58.868C850.904 60.44 849.812 61.508 848.372 61.508ZM854.946 62.048C856.542 62.048 857.418 61.352 857.418 60.332C857.418 57.944 853.266 59.276 853.266 57.392C853.266 56.72 853.806 56.216 855.03 56.216C855.702 56.216 856.386 56.396 856.914 56.78L857.19 56.3C856.698 55.928 855.834 55.688 855.042 55.688C853.458 55.688 852.666 56.456 852.666 57.404C852.666 59.864 856.818 58.52 856.818 60.344C856.818 61.052 856.29 61.52 854.97 61.52C854.046 61.52 853.194 61.172 852.714 60.764L852.438 61.244C852.93 61.7 853.914 62.048 854.946 62.048ZM865.234 55.688C864.07 55.688 863.206 56.192 862.774 57.044V53.096H862.174V62H862.774V58.664C862.774 57.176 863.674 56.228 865.15 56.228C866.422 56.228 867.178 56.972 867.178 58.388V62H867.778V58.34C867.778 56.588 866.758 55.688 865.234 55.688ZM870.549 54.212C870.825 54.212 871.041 53.996 871.041 53.72C871.041 53.456 870.825 53.24 870.549 53.24C870.273 53.24 870.057 53.468 870.057 53.732C870.057 53.996 870.273 54.212 870.549 54.212ZM870.249 62H870.849V55.736H870.249V62ZM878.441 55.736V57.152C877.937 56.216 876.965 55.688 875.813 55.688C874.037 55.688 872.693 56.936 872.693 58.724C872.693 60.512 874.037 61.772 875.813 61.772C876.941 61.772 877.901 61.256 878.417 60.344V61.4C878.417 63.068 877.637 63.836 875.969 63.836C874.961 63.836 874.061 63.5 873.437 62.924L873.113 63.38C873.749 64.016 874.841 64.376 875.981 64.376C877.997 64.376 879.017 63.428 879.017 61.328V55.736H878.441ZM875.861 61.232C874.385 61.232 873.305 60.2 873.305 58.724C873.305 57.248 874.385 56.228 875.861 56.228C877.349 56.228 878.429 57.248 878.429 58.724C878.429 60.2 877.349 61.232 875.861 61.232ZM884.617 55.688C883.453 55.688 882.589 56.192 882.157 57.044V53.096H881.557V62H882.157V58.664C882.157 57.176 883.057 56.228 884.533 56.228C885.805 56.228 886.561 56.972 886.561 58.388V62H887.161V58.34C887.161 56.588 886.141 55.688 884.617 55.688ZM889.631 62H890.231V53.096H889.631V62ZM893.06 54.212C893.336 54.212 893.552 53.996 893.552 53.72C893.552 53.456 893.336 53.24 893.06 53.24C892.784 53.24 892.568 53.468 892.568 53.732C892.568 53.996 892.784 54.212 893.06 54.212ZM892.76 62H893.36V55.736H892.76V62ZM900.953 55.736V57.152C900.449 56.216 899.477 55.688 898.325 55.688C896.549 55.688 895.205 56.936 895.205 58.724C895.205 60.512 896.549 61.772 898.325 61.772C899.453 61.772 900.413 61.256 900.929 60.344V61.4C900.929 63.068 900.149 63.836 898.481 63.836C897.473 63.836 896.573 63.5 895.949 62.924L895.625 63.38C896.261 64.016 897.353 64.376 898.493 64.376C900.509 64.376 901.529 63.428 901.529 61.328V55.736H900.953ZM898.373 61.232C896.897 61.232 895.817 60.2 895.817 58.724C895.817 57.248 896.897 56.228 898.373 56.228C899.861 56.228 900.941 57.248 900.941 58.724C900.941 60.2 899.861 61.232 898.373 61.232ZM907.129 55.688C905.965 55.688 905.101 56.192 904.669 57.044V53.096H904.069V62H904.669V58.664C904.669 57.176 905.569 56.228 907.045 56.228C908.317 56.228 909.073 56.972 909.073 58.388V62H909.673V58.34C909.673 56.588 908.653 55.688 907.129 55.688ZM914.999 61.184C914.747 61.412 914.399 61.532 914.027 61.532C913.259 61.532 912.863 61.088 912.863 60.284V56.252H914.855V55.736H912.863V54.368H912.263V55.736H911.111V56.252H912.263V60.344C912.263 61.4 912.863 62.048 913.967 62.048C914.435 62.048 914.939 61.904 915.251 61.604L914.999 61.184ZM531.128 85.184C530.876 85.412 530.528 85.532 530.156 85.532C529.388 85.532 528.992 85.088 528.992 84.284V80.252H530.984V79.736H528.992V78.368H528.392V79.736H527.24V80.252H528.392V84.344C528.392 85.4 528.992 86.048 530.096 86.048C530.564 86.048 531.068 85.904 531.38 85.604L531.128 85.184ZM536.113 79.688C534.949 79.688 534.085 80.192 533.653 81.044V77.096H533.053V86H533.653V82.664C533.653 81.176 534.553 80.228 536.029 80.228C537.301 80.228 538.057 80.972 538.057 82.388V86H538.657V82.34C538.657 80.588 537.637 79.688 536.113 79.688ZM546.443 82.844C546.443 80.984 545.171 79.688 543.455 79.688C541.739 79.688 540.455 81.008 540.455 82.868C540.455 84.728 541.787 86.048 543.683 86.048C544.631 86.048 545.495 85.7 546.047 85.028L545.699 84.632C545.219 85.22 544.487 85.508 543.695 85.508C542.195 85.508 541.103 84.5 541.043 83.012H546.431C546.431 82.952 546.443 82.892 546.443 82.844ZM543.455 80.216C544.787 80.216 545.771 81.188 545.855 82.544H541.055C541.151 81.176 542.123 80.216 543.455 80.216ZM553.865 86.048C554.861 86.048 555.725 85.652 556.241 84.896L555.797 84.572C555.341 85.208 554.645 85.508 553.865 85.508C552.389 85.508 551.309 84.452 551.309 82.868C551.309 81.284 552.389 80.228 553.865 80.228C554.645 80.228 555.341 80.528 555.797 81.164L556.241 80.84C555.725 80.072 554.861 79.688 553.865 79.688C552.029 79.688 550.697 80.996 550.697 82.868C550.697 84.728 552.029 86.048 553.865 86.048ZM560.38 86.048C562.18 86.048 563.512 84.728 563.512 82.868C563.512 81.008 562.18 79.688 560.38 79.688C558.58 79.688 557.248 81.008 557.248 82.868C557.248 84.728 558.58 86.048 560.38 86.048ZM560.38 85.508C558.94 85.508 557.86 84.44 557.86 82.868C557.86 81.296 558.94 80.228 560.38 80.228C561.82 80.228 562.9 81.296 562.9 82.868C562.9 84.44 561.82 85.508 560.38 85.508ZM573.174 79.688C571.962 79.688 571.05 80.288 570.642 81.2C570.306 80.204 569.478 79.688 568.35 79.688C567.21 79.688 566.358 80.204 565.95 81.08V79.736H565.374V86H565.974V82.664C565.974 81.176 566.85 80.228 568.266 80.228C569.49 80.228 570.222 80.972 570.222 82.388V86H570.822V82.664C570.822 81.176 571.698 80.228 573.114 80.228C574.338 80.228 575.07 80.972 575.07 82.388V86H575.67V82.34C575.67 80.588 574.686 79.688 573.174 79.688ZM581.291 79.688C580.163 79.688 579.215 80.252 578.723 81.212V79.736H578.147V88.328H578.747V84.572C579.251 85.508 580.187 86.048 581.291 86.048C583.055 86.048 584.387 84.752 584.387 82.868C584.387 80.996 583.055 79.688 581.291 79.688ZM581.255 85.508C579.815 85.508 578.735 84.44 578.735 82.868C578.735 81.296 579.815 80.228 581.255 80.228C582.695 80.228 583.787 81.296 583.787 82.868C583.787 84.44 582.695 85.508 581.255 85.508ZM588.333 79.688C587.361 79.688 586.449 80.024 585.825 80.576L586.125 81.008C586.641 80.54 587.421 80.216 588.285 80.216C589.509 80.216 590.145 80.84 590.145 82.004V82.508H587.997C586.257 82.508 585.657 83.312 585.657 84.26C585.657 85.328 586.509 86.048 587.913 86.048C589.005 86.048 589.773 85.604 590.169 84.884V86H590.745V82.028C590.745 80.48 589.881 79.688 588.333 79.688ZM587.997 85.556C586.893 85.556 586.257 85.052 586.257 84.236C586.257 83.516 586.713 82.976 588.009 82.976H590.145V84.152C589.785 85.052 589.053 85.556 587.997 85.556ZM596.277 79.688C595.089 79.688 594.213 80.216 593.793 81.092V79.736H593.217V86H593.817V82.664C593.817 81.176 594.717 80.228 596.193 80.228C597.465 80.228 598.221 80.972 598.221 82.388V86H598.821V82.34C598.821 80.588 597.801 79.688 596.277 79.688ZM605.59 79.736L603.082 85.34L600.574 79.736H599.938L602.758 85.976L602.422 86.732C602.038 87.584 601.618 87.848 601.042 87.848C600.574 87.848 600.202 87.692 599.878 87.356L599.578 87.812C599.938 88.184 600.466 88.376 601.03 88.376C601.858 88.376 602.482 88.004 602.986 86.852L606.202 79.736H605.59ZM607.665 77.048C607.377 77.048 607.161 77.264 607.161 77.552C607.161 77.804 607.317 77.984 607.557 78.044L607.161 79.736H607.593L608.061 78.104C608.133 77.852 608.169 77.732 608.169 77.552C608.169 77.288 607.965 77.048 607.665 77.048ZM611.536 86.048C613.132 86.048 614.008 85.352 614.008 84.332C614.008 81.944 609.856 83.276 609.856 81.392C609.856 80.72 610.396 80.216 611.62 80.216C612.292 80.216 612.976 80.396 613.504 80.78L613.78 80.3C613.288 79.928 612.424 79.688 611.632 79.688C610.048 79.688 609.256 80.456 609.256 81.404C609.256 83.864 613.408 82.52 613.408 84.344C613.408 85.052 612.88 85.52 611.56 85.52C610.636 85.52 609.784 85.172 609.304 84.764L609.028 85.244C609.52 85.7 610.504 86.048 611.536 86.048ZM621.908 79.688C620.804 79.688 619.868 80.228 619.364 81.164V77.096H618.764V86H619.34V84.524C619.832 85.484 620.78 86.048 621.908 86.048C623.672 86.048 625.004 84.74 625.004 82.868C625.004 80.984 623.672 79.688 621.908 79.688ZM621.872 85.508C620.432 85.508 619.352 84.44 619.352 82.868C619.352 81.296 620.432 80.228 621.872 80.228C623.312 80.228 624.404 81.296 624.404 82.868C624.404 84.44 623.312 85.508 621.872 85.508ZM627.438 81.104V79.736H626.862V86H627.462V82.736C627.462 81.188 628.29 80.264 629.682 80.264C629.73 80.264 629.778 80.276 629.826 80.276V79.688C628.65 79.688 627.822 80.192 627.438 81.104ZM633.591 79.688C632.619 79.688 631.707 80.024 631.083 80.576L631.383 81.008C631.899 80.54 632.679 80.216 633.543 80.216C634.767 80.216 635.403 80.84 635.403 82.004V82.508H633.255C631.515 82.508 630.915 83.312 630.915 84.26C630.915 85.328 631.767 86.048 633.171 86.048C634.263 86.048 635.031 85.604 635.427 84.884V86H636.003V82.028C636.003 80.48 635.139 79.688 633.591 79.688ZM633.255 85.556C632.151 85.556 631.515 85.052 631.515 84.236C631.515 83.516 631.971 82.976 633.267 82.976H635.403V84.152C635.043 85.052 634.311 85.556 633.255 85.556ZM641.535 79.688C640.347 79.688 639.471 80.216 639.051 81.092V79.736H638.475V86H639.075V82.664C639.075 81.176 639.975 80.228 641.451 80.228C642.723 80.228 643.479 80.972 643.479 82.388V86H644.079V82.34C644.079 80.588 643.059 79.688 641.535 79.688ZM651.529 77.096V81.188C651.025 80.24 650.089 79.688 648.973 79.688C647.209 79.688 645.877 80.984 645.877 82.868C645.877 84.74 647.209 86.048 648.973 86.048C650.101 86.048 651.049 85.496 651.541 84.524V86H652.129V77.096H651.529ZM649.009 85.508C647.569 85.508 646.489 84.44 646.489 82.868C646.489 81.296 647.569 80.228 649.009 80.228C650.449 80.228 651.529 81.296 651.529 82.868C651.529 84.44 650.449 85.508 649.009 85.508ZM654.959 78.212C655.235 78.212 655.451 77.996 655.451 77.72C655.451 77.456 655.235 77.24 654.959 77.24C654.683 77.24 654.467 77.468 654.467 77.732C654.467 77.996 654.683 78.212 654.959 78.212ZM654.659 86H655.259V79.736H654.659V86ZM660.848 79.688C659.66 79.688 658.784 80.216 658.364 81.092V79.736H657.788V86H658.388V82.664C658.388 81.176 659.288 80.228 660.764 80.228C662.036 80.228 662.792 80.972 662.792 82.388V86H663.392V82.34C663.392 80.588 662.372 79.688 660.848 79.688ZM670.938 79.736V81.152C670.434 80.216 669.462 79.688 668.31 79.688C666.534 79.688 665.19 80.936 665.19 82.724C665.19 84.512 666.534 85.772 668.31 85.772C669.438 85.772 670.398 85.256 670.914 84.344V85.4C670.914 87.068 670.134 87.836 668.466 87.836C667.458 87.836 666.558 87.5 665.934 86.924L665.61 87.38C666.246 88.016 667.338 88.376 668.478 88.376C670.494 88.376 671.514 87.428 671.514 85.328V79.736H670.938ZM668.358 85.232C666.882 85.232 665.802 84.2 665.802 82.724C665.802 81.248 666.882 80.228 668.358 80.228C669.846 80.228 670.926 81.248 670.926 82.724C670.926 84.2 669.846 85.232 668.358 85.232ZM685.535 79.736L683.423 85.316L681.299 79.736H680.783L678.647 85.328L676.559 79.736H675.983L678.359 86H678.911L681.035 80.564L683.147 86H683.711L686.087 79.736H685.535ZM687.783 78.212C688.059 78.212 688.275 77.996 688.275 77.72C688.275 77.456 688.059 77.24 687.783 77.24C687.507 77.24 687.291 77.468 687.291 77.732C687.291 77.996 687.507 78.212 687.783 78.212ZM687.483 86H688.083V79.736H687.483V86ZM693.468 85.184C693.216 85.412 692.868 85.532 692.496 85.532C691.728 85.532 691.332 85.088 691.332 84.284V80.252H693.324V79.736H691.332V78.368H690.732V79.736H689.58V80.252H690.732V84.344C690.732 85.4 691.332 86.048 692.436 86.048C692.904 86.048 693.408 85.904 693.72 85.604L693.468 85.184ZM698.453 79.688C697.289 79.688 696.425 80.192 695.993 81.044V77.096H695.393V86H695.993V82.664C695.993 81.176 696.893 80.228 698.369 80.228C699.641 80.228 700.397 80.972 700.397 82.388V86H700.997V82.34C700.997 80.588 699.977 79.688 698.453 79.688ZM705.927 86.048C707.727 86.048 709.059 84.728 709.059 82.868C709.059 81.008 707.727 79.688 705.927 79.688C704.127 79.688 702.795 81.008 702.795 82.868C702.795 84.728 704.127 86.048 705.927 86.048ZM705.927 85.508C704.487 85.508 703.407 84.44 703.407 82.868C703.407 81.296 704.487 80.228 705.927 80.228C707.367 80.228 708.447 81.296 708.447 82.868C708.447 84.44 707.367 85.508 705.927 85.508ZM715.804 79.736V83.072C715.804 84.56 714.928 85.508 713.512 85.508C712.204 85.508 711.448 84.764 711.448 83.348V79.736H710.848V83.396C710.848 85.148 711.868 86.048 713.464 86.048C714.568 86.048 715.42 85.532 715.828 84.656V86H716.404V79.736H715.804ZM721.804 85.184C721.552 85.412 721.204 85.532 720.832 85.532C720.064 85.532 719.668 85.088 719.668 84.284V80.252H721.66V79.736H719.668V78.368H719.068V79.736H717.916V80.252H719.068V84.344C719.068 85.4 719.668 86.048 720.772 86.048C721.24 86.048 721.744 85.904 722.056 85.604L721.804 85.184ZM729.955 79.688C728.851 79.688 727.915 80.228 727.411 81.164V77.096H726.811V86H727.387V84.524C727.879 85.484 728.827 86.048 729.955 86.048C731.719 86.048 733.051 84.74 733.051 82.868C733.051 80.984 731.719 79.688 729.955 79.688ZM729.919 85.508C728.479 85.508 727.399 84.44 727.399 82.868C727.399 81.296 728.479 80.228 729.919 80.228C731.359 80.228 732.451 81.296 732.451 82.868C732.451 84.44 731.359 85.508 729.919 85.508ZM740.213 82.844C740.213 80.984 738.941 79.688 737.225 79.688C735.509 79.688 734.225 81.008 734.225 82.868C734.225 84.728 735.557 86.048 737.453 86.048C738.401 86.048 739.265 85.7 739.817 85.028L739.469 84.632C738.989 85.22 738.257 85.508 737.465 85.508C735.965 85.508 734.873 84.5 734.813 83.012H740.201C740.201 82.952 740.213 82.892 740.213 82.844ZM737.225 80.216C738.557 80.216 739.541 81.188 739.625 82.544H734.825C734.921 81.176 735.893 80.216 737.225 80.216ZM742.369 78.212C742.645 78.212 742.861 77.996 742.861 77.72C742.861 77.456 742.645 77.24 742.369 77.24C742.093 77.24 741.877 77.468 741.877 77.732C741.877 77.996 742.093 78.212 742.369 78.212ZM742.069 86H742.669V79.736H742.069V86ZM748.258 79.688C747.07 79.688 746.194 80.216 745.774 81.092V79.736H745.198V86H745.798V82.664C745.798 81.176 746.698 80.228 748.174 80.228C749.446 80.228 750.202 80.972 750.202 82.388V86H750.802V82.34C750.802 80.588 749.782 79.688 748.258 79.688ZM758.348 79.736V81.152C757.844 80.216 756.872 79.688 755.72 79.688C753.944 79.688 752.6 80.936 752.6 82.724C752.6 84.512 753.944 85.772 755.72 85.772C756.848 85.772 757.808 85.256 758.324 84.344V85.4C758.324 87.068 757.544 87.836 755.876 87.836C754.868 87.836 753.968 87.5 753.344 86.924L753.02 87.38C753.656 88.016 754.748 88.376 755.888 88.376C757.904 88.376 758.924 87.428 758.924 85.328V79.736H758.348ZM755.768 85.232C754.292 85.232 753.212 84.2 753.212 82.724C753.212 81.248 754.292 80.228 755.768 80.228C757.256 80.228 758.336 81.248 758.336 82.724C758.336 84.2 757.256 85.232 755.768 85.232ZM767.401 85.184C767.149 85.412 766.801 85.532 766.429 85.532C765.661 85.532 765.265 85.088 765.265 84.284V80.252H767.257V79.736H765.265V78.368H764.665V79.736H763.513V80.252H764.665V84.344C764.665 85.4 765.265 86.048 766.369 86.048C766.837 86.048 767.341 85.904 767.653 85.604L767.401 85.184ZM771.552 86.048C773.352 86.048 774.684 84.728 774.684 82.868C774.684 81.008 773.352 79.688 771.552 79.688C769.752 79.688 768.42 81.008 768.42 82.868C768.42 84.728 769.752 86.048 771.552 86.048ZM771.552 85.508C770.112 85.508 769.032 84.44 769.032 82.868C769.032 81.296 770.112 80.228 771.552 80.228C772.992 80.228 774.072 81.296 774.072 82.868C774.072 84.44 772.992 85.508 771.552 85.508ZM778.993 86.048C780.793 86.048 782.125 84.728 782.125 82.868C782.125 81.008 780.793 79.688 778.993 79.688C777.193 79.688 775.861 81.008 775.861 82.868C775.861 84.728 777.193 86.048 778.993 86.048ZM778.993 85.508C777.553 85.508 776.473 84.44 776.473 82.868C776.473 81.296 777.553 80.228 778.993 80.228C780.433 80.228 781.513 81.296 781.513 82.868C781.513 84.44 780.433 85.508 778.993 85.508ZM792.037 77.096V81.188C791.533 80.24 790.597 79.688 789.481 79.688C787.717 79.688 786.385 80.984 786.385 82.868C786.385 84.74 787.717 86.048 789.481 86.048C790.609 86.048 791.557 85.496 792.049 84.524V86H792.637V77.096H792.037ZM789.517 85.508C788.077 85.508 786.997 84.44 786.997 82.868C786.997 81.296 788.077 80.228 789.517 80.228C790.957 80.228 792.037 81.296 792.037 82.868C792.037 84.44 790.957 85.508 789.517 85.508ZM795.467 78.212C795.743 78.212 795.959 77.996 795.959 77.72C795.959 77.456 795.743 77.24 795.467 77.24C795.191 77.24 794.975 77.468 794.975 77.732C794.975 77.996 795.191 78.212 795.467 78.212ZM795.167 86H795.767V79.736H795.167V86ZM798.871 81.104V79.736H798.295V86H798.895V82.736C798.895 81.188 799.723 80.264 801.115 80.264C801.163 80.264 801.211 80.276 801.259 80.276V79.688C800.083 79.688 799.255 80.192 798.871 81.104ZM808.158 82.844C808.158 80.984 806.886 79.688 805.17 79.688C803.454 79.688 802.17 81.008 802.17 82.868C802.17 84.728 803.502 86.048 805.398 86.048C806.346 86.048 807.21 85.7 807.762 85.028L807.414 84.632C806.934 85.22 806.202 85.508 805.41 85.508C803.91 85.508 802.818 84.5 802.758 83.012H808.146C808.146 82.952 808.158 82.892 808.158 82.844ZM805.17 80.216C806.502 80.216 807.486 81.188 807.57 82.544H802.77C802.866 81.176 803.838 80.216 805.17 80.216ZM812.498 86.048C813.494 86.048 814.358 85.652 814.874 84.896L814.43 84.572C813.974 85.208 813.278 85.508 812.498 85.508C811.022 85.508 809.942 84.452 809.942 82.868C809.942 81.284 811.022 80.228 812.498 80.228C813.278 80.228 813.974 80.528 814.43 81.164L814.874 80.84C814.358 80.072 813.494 79.688 812.498 79.688C810.662 79.688 809.33 80.996 809.33 82.868C809.33 84.728 810.662 86.048 812.498 86.048ZM819.597 85.184C819.345 85.412 818.997 85.532 818.625 85.532C817.857 85.532 817.461 85.088 817.461 84.284V80.252H819.453V79.736H817.461V78.368H816.861V79.736H815.709V80.252H816.861V84.344C816.861 85.4 817.461 86.048 818.565 86.048C819.033 86.048 819.537 85.904 819.849 85.604L819.597 85.184ZM827.052 86.048C828.852 86.048 830.184 84.728 830.184 82.868C830.184 81.008 828.852 79.688 827.052 79.688C825.252 79.688 823.92 81.008 823.92 82.868C823.92 84.728 825.252 86.048 827.052 86.048ZM827.052 85.508C825.612 85.508 824.532 84.44 824.532 82.868C824.532 81.296 825.612 80.228 827.052 80.228C828.492 80.228 829.572 81.296 829.572 82.868C829.572 84.44 828.492 85.508 827.052 85.508ZM832.621 81.104V79.736H832.045V86H832.645V82.736C832.645 81.188 833.473 80.264 834.865 80.264C834.913 80.264 834.961 80.276 835.009 80.276V79.688C833.833 79.688 833.005 80.192 832.621 81.104ZM842.298 86.048C844.098 86.048 845.43 84.728 845.43 82.868C845.43 81.008 844.098 79.688 842.298 79.688C840.498 79.688 839.166 81.008 839.166 82.868C839.166 84.728 840.498 86.048 842.298 86.048ZM842.298 85.508C840.858 85.508 839.778 84.44 839.778 82.868C839.778 81.296 840.858 80.228 842.298 80.228C843.738 80.228 844.818 81.296 844.818 82.868C844.818 84.44 843.738 85.508 842.298 85.508ZM850.436 79.688C849.332 79.688 848.396 80.228 847.892 81.164V77.096H847.292V86H847.868V84.524C848.36 85.484 849.308 86.048 850.436 86.048C852.2 86.048 853.532 84.74 853.532 82.868C853.532 80.984 852.2 79.688 850.436 79.688ZM850.4 85.508C848.96 85.508 847.88 84.44 847.88 82.868C847.88 81.296 848.96 80.228 850.4 80.228C851.84 80.228 852.932 81.296 852.932 82.868C852.932 84.44 851.84 85.508 850.4 85.508ZM859.629 79.736L857.109 85.34L854.613 79.736H853.977L856.797 86H857.409L860.241 79.736H859.629ZM861.853 78.212C862.129 78.212 862.345 77.996 862.345 77.72C862.345 77.456 862.129 77.24 861.853 77.24C861.577 77.24 861.361 77.468 861.361 77.732C861.361 77.996 861.577 78.212 861.853 78.212ZM861.553 86H862.153V79.736H861.553V86ZM867.13 86.048C868.93 86.048 870.262 84.728 870.262 82.868C870.262 81.008 868.93 79.688 867.13 79.688C865.33 79.688 863.998 81.008 863.998 82.868C863.998 84.728 865.33 86.048 867.13 86.048ZM867.13 85.508C865.69 85.508 864.61 84.44 864.61 82.868C864.61 81.296 865.69 80.228 867.13 80.228C868.57 80.228 869.65 81.296 869.65 82.868C869.65 84.44 868.57 85.508 867.13 85.508ZM877.008 79.736V83.072C877.008 84.56 876.132 85.508 874.716 85.508C873.408 85.508 872.652 84.764 872.652 83.348V79.736H872.052V83.396C872.052 85.148 873.072 86.048 874.668 86.048C875.772 86.048 876.624 85.532 877.032 84.656V86H877.608V79.736H877.008ZM881.735 86.048C883.331 86.048 884.207 85.352 884.207 84.332C884.207 81.944 880.055 83.276 880.055 81.392C880.055 80.72 880.595 80.216 881.819 80.216C882.491 80.216 883.175 80.396 883.703 80.78L883.979 80.3C883.487 79.928 882.623 79.688 881.831 79.688C880.247 79.688 879.455 80.456 879.455 81.404C879.455 83.864 883.607 82.52 883.607 84.344C883.607 85.052 883.079 85.52 881.759 85.52C880.835 85.52 879.983 85.172 879.503 84.764L879.227 85.244C879.719 85.7 880.703 86.048 881.735 86.048ZM885.809 86.048C886.085 86.048 886.313 85.82 886.313 85.532C886.313 85.244 886.085 85.028 885.809 85.028C885.533 85.028 885.305 85.244 885.305 85.532C885.305 85.82 885.533 86.048 885.809 86.048Z" fill="white"/>
</svg>
